<svg xmlns="http://www.w3.org/2000/svg" width="120" height="100"><path fill="#FFF" d="M44.923 57.865c-.419-18.562-17.487-19.336-29.532-12.714.535-2.983.723-6.072-1.356-8.063-3.374 3.455-6.386 11.966-6.727 16.807 1.881.129 3.666-.668 5.354-2.395l1.082-1.015c4.361 10.787 20.103 18.345 29.716 9.628l1.463-2.248z"/><path fill="#45AE91" d="M45.973 57.865c-.346-7.348-3.119-13.711-10.27-16.521-6.705-2.635-14.79-.295-20.842 2.9l1.542 1.186c.531-3.457.613-6.268-1.626-9.085-.341-.43-1.138-.396-1.485 0-4.134 4.7-6.396 11.396-7.034 17.549-.057.549.521 1.079 1.05 1.05 3.143-.174 4.945-1.622 7.178-3.717l-1.649-.212c5.25 11.802 24.386 20.605 32.993 7.38.741-1.139-1.078-2.19-1.813-1.061-7.803 11.992-24.842 2.79-29.366-7.38-.286-.643-1.2-.634-1.649-.212-1.627 1.526-2.96 2.95-5.692 3.102l1.05 1.05c.58-5.59 2.672-11.804 6.419-16.064h-1.485c1.382 2.247 1.744 4.595 1.086 7.042-.138.897.667 1.648 1.542 1.186 5.333-2.814 11.371-4.414 17.385-3.221 7.352 1.458 10.246 8.215 10.567 15.028.063 1.348 2.163 1.355 2.099 0z"/><path fill="#FFF" d="M40.118 88.271c-.291-12.798-12.059-13.332-20.364-8.767.369-2.058.498-4.187-.936-5.56-2.325 2.38-4.403 8.251-4.639 11.589 1.297.09 2.528-.46 3.693-1.651l.746-.699c3.006 7.438 13.86 12.649 20.49 6.637l1.01-1.549z"/><path fill="#45AE91" d="M41.167 88.271c-.716-12.479-12.134-14.765-21.943-9.673l1.542 1.186c.336-2.462.412-4.271-1.042-6.369-.356-.514-1.182-.764-1.649-.212-2.898 3.42-4.434 7.92-4.946 12.331-.062.532.525 1.101 1.05 1.05 2.257-.219 3.519-1.1 5.182-2.658l-1.649-.212c3.837 8.29 17.192 14.482 23.312 5.088.741-1.139-1.078-2.19-1.813-1.061-5.34 8.2-16.611 1.553-19.685-5.088-.295-.638-1.194-.639-1.649-.212-1.077 1.01-1.878 1.866-3.697 2.043l1.05 1.05c.443-3.817 1.826-7.89 4.332-10.847l-1.649-.212.83 4.75c-.123.898.655 1.646 1.542 1.186 8.193-4.251 18.158-3.053 18.784 7.86.076 1.345 2.177 1.353 2.098 0z"/><path fill="#FFF" d="M86.227 87.393c-.588-16.825-16.074-17.339-26.919-11.203.45-2.711.587-5.516-1.324-7.295-3.018 3.168-5.658 10.918-5.911 15.312 1.705.098 3.316-.646 4.828-2.228l.969-.936c4.073 9.734 18.431 16.416 27.055 8.405l1.302-2.055z"/><path fill="#45AE91" d="M87.276 87.393c-.379-6.149-2.722-12.573-9.051-14.784-6.531-2.28-13.542-.524-19.448 2.675l1.542 1.186c.446-3.175.497-5.759-1.594-8.316-.343-.419-1.14-.405-1.485 0-3.713 4.359-5.692 10.415-6.218 16.054-.051.544.516 1.086 1.05 1.05 2.875-.192 4.521-1.522 6.539-3.471l-1.649-.212c4.94 10.683 22.458 18.528 30.17 6.35.728-1.148-1.091-2.2-1.813-1.061-6.923 10.932-22.348 2.726-26.544-6.35-.292-.631-1.199-.646-1.649-.212-1.435 1.386-2.62 2.692-5.054 2.855l1.05 1.05c.471-5.054 2.282-10.67 5.604-14.569h-1.485c1.26 1.989 1.611 4.08 1.054 6.273-.125.887.661 1.664 1.542 1.186 10.884-5.896 24.442-4.268 25.339 10.297.084 1.343 2.184 1.352 2.1-.001z"/><path fill="#FFF" d="M77.176 45.887c-6.533 6.236 4.454 13.365 8.909 7.128 5.346-8.02-4.455-11.583-8.909-7.128"/><path fill="#43AD91" d="M76.434 45.145c-2.824 2.836-3.145 6.847.072 9.529 2.989 2.492 7.49 2.395 10.077-.596 2.417-2.794 3.143-7.559-.249-9.89-3.046-2.092-7.271-1.532-9.9.957-.985.933.502 2.415 1.484 1.484 1.743-1.649 4.403-2.123 6.593-1.092 3.011 1.418 2.108 4.691.668 6.947-1.519 2.378-4.735 2.229-6.867.922-2.752-1.688-2.472-4.689-.394-6.777.956-.96-.528-2.445-1.484-1.484z"/><path fill="#FFF" d="M27.529 9.695c-4.561 4.354 3.11 9.331 6.22 4.976 3.733-5.598-3.109-8.086-6.22-4.976"/><path fill="#43AD91" d="M26.787 8.953c-2.084 2.093-2.327 5.118.051 7.101 2.211 1.844 5.558 1.81 7.483-.416 1.83-2.115 2.31-5.651-.238-7.401-2.243-1.543-5.363-1.113-7.296.716-.985.933.502 2.415 1.485 1.484 1.107-1.047 2.822-1.37 4.219-.713 1.936.912 1.268 2.982.352 4.416-.966 1.513-3.025 1.35-4.36.531-1.749-1.072-1.515-2.924-.21-4.234.955-.959-.53-2.445-1.486-1.484z"/></svg>