<svg xmlns="http://www.w3.org/2000/svg" width="95" height="100"><path fill="#FFF" d="M65.92 10.495c-6.996 6.679 4.771 14.313 9.541 7.633 5.725-8.587-4.771-12.403-9.541-7.633"/><path fill="#43AD91" d="M65.178 9.753c-2.998 3.011-3.336 7.253.078 10.1 3.172 2.645 7.943 2.531 10.686-.638 2.555-2.953 3.339-8.006-.252-10.474-3.234-2.222-7.719-1.632-10.512 1.012-.985.933.502 2.415 1.484 1.484 1.894-1.791 4.774-2.299 7.15-1.181 3.263 1.537 2.306 5.093.742 7.541-1.648 2.581-5.136 2.437-7.456 1.015-2.987-1.832-2.696-5.104-.437-7.375.957-.96-.527-2.445-1.483-1.484z"/><path fill="#FFF" d="M7.258 31.294c-4.112 3.924 2.803 8.41 5.608 4.486 3.365-5.049-2.805-7.292-5.608-4.486"/><path fill="#43AD91" d="M6.515 30.552c-1.916 1.923-2.141 4.724.046 6.547 2.034 1.695 5.117 1.677 6.894-.374 1.698-1.96 2.118-5.219-.236-6.837-2.062-1.416-4.93-1.017-6.704.664-.985.932.503 2.415 1.485 1.484.961-.911 2.462-1.2 3.678-.627 1.69.796 1.078 2.594.281 3.841-.839 1.315-2.639 1.146-3.791.439-1.519-.931-1.295-2.52-.168-3.653.957-.96-.528-2.445-1.485-1.484z"/><path fill="#45A98C" d="M24.167 88.317c3.542-5.666 9.206-4.25 9.916 2.124-2.834 0-7.083.708-9.916-.708v-1.416z"/><path fill="#45A98C" d="M25.074 88.848c1.108-1.677 2.812-3.426 5.01-2.927 2.065.47 2.741 3.018 2.986 4.8l1.013-1.329c-3.067.04-6.484.725-9.386-.564l.52.906v-1.416c0-1.354-2.1-1.354-2.1 0v1.416c0 .338.193.762.52.906 3.338 1.483 6.909.898 10.446.852.75-.01 1.105-.658 1.013-1.329-.39-2.824-1.813-5.666-4.808-6.347-2.994-.68-5.521 1.693-7.028 3.972-.749 1.133 1.071 2.184 1.814 1.06z"/><path fill="#FFF" d="M44.746 90.892L42.55 69.991l-17.916-3.955-10.606 7.302-4.114-5.172 14.72-10.346 14.352 3.956-7.954-13.691h-7.405l-.549-6.695h6.675l-2.424-12.779 13.851-4.563 3.566 6.998-10.422 2.13 3.016 14.909 18.101-3.956v-9.128h6.034v13.997l-18.101 5.476 4.662 10.649 16.092-5.477 8.866-14.604 4.936 1.826-1.918 5.171 6.582 2.435-1.922 4.563-5.94-1.566-5.578 6.435L50.505 70.6l-.275 19.979z"/><path fill="#43AD91" d="M45.795 90.892l-2.196-20.9c-.047-.452-.283-.905-.771-1.013l-9.917-2.188c-2.124-.47-6.371-2.368-8.558-1.767-2.871.79-6.128 4.152-8.566 5.831l-1.646 1.133c-1.152.794.824.854.2.07l-3.686-4.634-.213 1.648 14.216-9.99c.701-.493-.766-.376.847.068l4.629 1.275 8.572 2.363c.891.245 1.649-.746 1.186-1.543l-7.365-12.677c-1.633-2.813-6.009-1.534-8.901-1.534l1.05 1.05-.549-6.695-1.05 1.05h6.675c.725 0 1.138-.666 1.013-1.329l-2.424-12.778-.733 1.292 11.322-3.73 2.206-.727c-.089.029-1.122-1.097-.306.504l3.009 5.905.627-1.543-10.422 2.13c-.588.12-.84.762-.733 1.292l3.017 14.909c.118.582.764.849 1.292.733a96124.85 96124.85 0 0 1 18.101-3.956c.453-.1.771-.564.771-1.013V35l-1.05 1.05h6.034L60.426 35v13.221c0 1.267 1.482-.452-.167.047l-17.164 5.193c-.704.213-.9.919-.627 1.543l4.662 10.649c.178.406.782.62 1.186.482l9.888-3.365c1.745-.594 5.922-1.097 6.98-2.84l6.266-10.32 2.413-3.976c-1.13.303-1.256.538-.376.705l1.696.628 2.468.913-.733-1.292L75 51.759c-.211.57.234 1.107.733 1.292l6.582 2.435-.733-1.292-1.922 4.563 1.292-.733c-1.98-.521-3.96-1.044-5.939-1.566-.344-.09-.779-.009-1.021.271l-4.824 5.565c-.791.912-2.281 1.314-4.319 2.046l-14.621 5.247c-.449.161-.764.518-.771 1.013l-.275 19.979 1.05-1.05-5.484.313c-1.346.076-1.354 2.177 0 2.1l5.484-.313c.578-.032 1.042-.453 1.05-1.05l.204-14.8.051-3.7c.025-1.859.373-.87-.69-.489l6.504-2.334 8.813-3.163c1.032-.37 3.057-.662 3.828-1.553l5.129-5.917c.476-.435.309-.466-.5-.096l1.925.507 3.849 1.016c.608.16 1.068-.202 1.292-.733l1.922-4.563c.235-.56-.253-1.114-.733-1.292l-6.582-2.435.733 1.292 1.918-5.171c.211-.57-.234-1.107-.733-1.292l-4.936-1.826c-.442-.163-.957.105-1.186.482l-6.415 10.566-2.413 3.976c.429-.707.482-.384-.437-.07l-3.424 1.165-7.193 2.448-2.893.984c-2.019.687-.83-.037-.412.917l-4.62-10.555-.627 1.543 18.101-5.476c.448-.136.771-.537.771-1.013V35a1.06 1.06 0 0 0-1.05-1.05h-6.034a1.06 1.06 0 0 0-1.05 1.05v8.622c0 1.09 1.135-.586.507-.449l-2.564.561-15.272 3.338 1.292.733-3.017-14.909-.733 1.292 10.422-2.13c.699-.144.917-.976.627-1.543l-3.566-6.998c-.205-.4-.761-.622-1.186-.482-4.617 1.521-9.233 3.043-13.851 4.563-.577.19-.844.707-.733 1.292l2.424 12.778 1.013-1.329h-6.675c-.537 0-1.097.479-1.05 1.05l.549 6.695c.046.57.442 1.05 1.05 1.05h5.485c1.561 0 1.589.471 1.054-.45l1.202 2.069 6.711 11.553 1.186-1.543-8.572-2.362c-1.163-.321-5.39-2.331-6.589-1.487L9.388 67.26c-.597.419-.656 1.092-.213 1.648l4.114 5.172c.275.346.919.408 1.272.164l10.529-7.248c-.687.473-.398.126.778.386l3.713.82 9.141 2.018 2.56.564c1.555.344.291-.133.246-.559l.67 6.379 1.501 14.287c.136 1.334 2.238 1.347 2.096.001z"/><g fill="#45A98C"><path d="M45.877 91.027c4.958-9.915 18.414-7.081 20.539 2.126-6.375.707-17.705 2.831-20.539-1.418v-.708z"/><path d="M46.784 91.558c4.399-8.004 16.098-7.261 18.62 1.875l1.013-1.329c-2.514.292-19.489 3.275-19.489-1.076 0-1.354-2.1-1.354-2.1 0 0 7.373 17.793 3.616 21.589 3.176.665-.077 1.21-.612 1.013-1.329-2.991-10.839-17.181-11.979-22.458-2.377-.654 1.187 1.159 2.246 1.812 1.06z"/></g></svg>