<svg xmlns="http://www.w3.org/2000/svg" width="134.75" height="54.167"><path fill="#FFF" d="M119.171 41.5H72.239c-1.274 0-2.929-.259-4.089.315-.856.423-1.246 1.292-1.701 2.078-.755 1.303-1.761 2.355-2.932 3.297-.957.77-1.958 1.767-3.059 2.362-1.361.737-1.649 1.214-3.21 1.114 1.462-.65 1.106-3.035 1.747-4.438.499-1.091.995-4.292-.564-4.806-.499-.165-1.72.076-2.301.076H16.17c-6.489 0-11.75-5.261-11.75-11.75v-14C4.421 9.261 9.682 4 16.171 4h103c6.489 0 11.75 5.261 11.75 11.75v14c0 6.489-5.261 11.75-11.75 11.75z"/><path fill="#43AD91" d="M119.171 40.45h-35.94c-4.884 0-10.616-.883-15.358.352-1.111.29-1.805 1.682-2.328 2.561-1.5 2.517-5.226 6.051-8.294 6.254l.742 1.792c2.032-1.719 2.72-6.192 2.44-8.754-.415-3.815-6.765-2.206-9.13-2.206H28.324c-7.765 0-17.336 1.896-21.803-6.063-1.699-3.029-1.051-7.782-1.051-11.138 0-3.969-.528-8.402 1.051-12.137C9.05 5.134 15.08 5.05 20.435 5.05h98.736c10.214 0 10.7 9.693 10.7 17.201 0 8.041.015 17.581-10.7 18.199-1.346.078-1.354 2.178 0 2.1 8.46-.488 12.8-6.822 12.8-14.803 0-6.103 1.585-15.099-2.889-20.088-6.153-6.864-17.888-4.708-26.192-4.708H19.238c-4.574 0-8.473.481-12.117 3.749-5.577 4.998-3.75 15.107-3.75 21.72 0 10.062 7.051 14.13 16.272 14.13h36.489c3.263 0 2.369 5.689.376 7.375-.69.584-.143 1.851.742 1.792 3.316-.218 5.735-2.656 8.124-4.768 2.246-1.986 3.163-4.523 6.866-4.399 3.012.101 6.045 0 9.059 0h37.872c1.354 0 1.354-2.1 0-2.1z"/></svg>