<svg xmlns="http://www.w3.org/2000/svg" width="130" height="120"><path fill="#CADEE3" d="M45.124 110.572c-.229 2.579-.568 5.222 1.845 6.374 4.781 2.534 6.127.094 9.206-2.446"/><path fill="#43AD91" d="M44.074 110.572c-.146 1.628-.4 3.448.262 5.001.719 1.685 2.138 2.353 3.755 3.026 3.715 1.548 6.223-1.156 8.826-3.357 1.035-.875-.458-2.354-1.485-1.484-1.582 1.337-3.066 3.239-5.308 3.194-1.639-.032-3.557-1.078-4.006-2.68-.319-1.142-.047-2.544.056-3.7.121-1.349-1.98-1.338-2.1 0z"/><path fill="#FFF" d="M42.594 35.848c-6.229-1.128-17.7.369-21.492 6.83.665-8.935-7.372-15.871-15.719-17.146-6.243 10.785 1.04 19.252 10.523 24.783l-.084.461c-2.674 14.766.479 26.3 8.541 39.675 11.208 14.423 24.112 18.822 39.977 22.017 15.234 3.067 38.304-1.64 38.669-22.067-7.644-15.682-27.698-20.745-42.755-19.185-7.254.593-15.055 1.563-22.271-.697-7.217-2.26-21.93-5.225-16.156-19.132 9.062 2.595 21.887-4.613 21.229-15.456"/><path fill="#43AD91" d="M42.874 34.835c-7.829-1.202-17.949.256-22.678 7.313l1.957.53c.235-9.642-7.473-16.458-16.49-18.158-.452-.085-.955.044-1.186.483-5.043 9.556-.891 17.673 7.172 23.794.158.12 3.022 2.465 3.204 1.47a86.82 86.82 0 0 0-.556 3.583c-.381 2.737-.471 5.489-.434 8.25.084 6.254 1.731 12.367 4.063 18.129 8.583 21.211 29.5 31.981 51.507 33.995 8.392.768 17.365-.816 24.552-5.325 3.123-1.959 5.61-4.731 7.44-7.906 1.37-2.379 3.873-8.448 2.492-11.122-4.641-8.986-12.83-14.541-22.285-17.601-11.142-3.605-22-1.481-33.394-1.381-6.38.057-13.122-1.879-18.988-4.406-6.627-2.855-8.996-7.971-6.409-14.816l-1.292.733c10.584 2.555 22.716-5.047 22.558-16.468-.019-1.353-2.119-1.355-2.1 0 .138 10.04-10.626 16.682-19.9 14.443-.596-.144-1.084.185-1.292.733-6.433 17.022 16.898 21.974 29.157 21.866 10.825-.097 20.443-1.816 31.101 1.32a38.806 38.806 0 0 1 14.135 7.64c2.233 1.897 4.054 4.209 5.625 6.667 1.729 2.707.868 5.743-.021 8.592-2.793 8.951-12.269 13.111-20.762 14.565-9.753 1.671-19.826-.79-29.072-3.784-24.307-7.871-38.628-32.27-34.058-57.379.086-.475-.052-.926-.483-1.186C9.47 45.2 2.581 39.039 4.567 30.092c1.223-5.503 5.725-2.261 8.966-.123 4.314 2.847 6.643 7.626 6.52 12.708-.027 1.1 1.401 1.358 1.957.53 4.132-6.167 13.489-7.394 20.306-6.347 1.324.203 1.892-1.82.558-2.025z"/><path fill="#CADEE3" d="M102.585 90.756c.172 20.762-24.459 24.522-40.034 21.702-8.306-1.506-15.89-5.024-23.064-8.826-7.804-4.273-12.829-11.068-17.3-16.971 7.399 8.489 22.191 15.622 32.574 17.503 9.69 1.755 19.055 3.423 28.805.899 6.32-1.357 16.034-7.701 19.019-14.307z"/><path fill="#43AD91" d="M101.535 90.756c-.26 16.104-15.962 21.38-29.695 21.476-8.974.063-17.484-2.636-25.566-6.357-9.986-4.599-16.625-11.086-23.181-19.743l-1.649 1.272c10.835 11.905 26.586 17.037 42.048 19.268 14.553 2.1 32.613-.856 39.999-15.385.612-1.204-1.199-2.268-1.813-1.061-7.735 15.215-26.521 16.207-41.218 13.877-13.82-2.191-27.911-7.613-37.531-18.184-.793-.871-2.374.315-1.649 1.272 6.837 9.027 13.642 15.556 23.935 20.496 8.75 4.2 17.995 6.704 27.716 6.637 14.712-.103 30.436-6.948 30.704-23.568.022-1.355-2.078-1.353-2.1 0z"/><path fill="#CADEE3" d="M70.613 75.85c-3.178-.219-4.088 2.834-.564 3.114s3.778-3.426.564-3.114"/><path fill="#43AD91" d="M70.613 74.8c-1.485-.077-3.552.543-3.83 2.263-.339 2.095 1.896 2.92 3.597 2.967 1.687.046 3.377-.93 3.535-2.717.158-1.794-1.821-2.629-3.302-2.513-1.341.104-1.352 2.206 0 2.1.238-.019.472-.021.71-.001.069.006.296.102.326.118.092.05.103.064.137.118.04.063.028.041.03.096.011.266.056-.215-.002.05-.011.051-.12.283-.018.073-.014.028-.18.26-.043.092a1.874 1.874 0 0 1-.21.208c-.115.103-.607.256-1.007.274-.517.023-1.085-.057-1.519-.299-.268-.15.077.094-.127-.095-.21-.193.075.146-.062-.081.111.186.007.009-.011-.064.068.289.049-.14.002.15.009-.054.11-.282.009-.069.016-.032.181-.252.045-.09.141-.168.117-.142.369-.282.337-.188.903-.222 1.369-.198 1.357.07 1.35-2.031.002-2.1z"/><path fill="#CADEE3" d="M71.211 59.802c-1.022-1.593-4.023-11.991-.755-12.278 2.43-.264.966 9.149.909 11.426"/><path fill="#43AD91" d="M72.117 59.273c-.765-1.311-1.113-2.924-1.474-4.381-.429-1.734-1.162-4.393-.343-6.115.273-.573.453 1.333.469 1.531.08 1.005.028 2.025-.02 3.03-.088 1.875-.358 3.737-.435 5.612-.055 1.354 2.045 1.349 2.1 0 .078-1.927 2.174-14.344-2.752-12.287-2.184.912-1.81 4.159-1.565 6.012.33 2.516.908 5.434 2.207 7.657.682 1.169 2.498.113 1.813-1.059z"/><path fill="#CADEE3" d="M74.587 57.598c.71-1.278 1.728-6.902 3.235-4.692 1.59 2.4-1.726 4.262-2.804 4.947"/><path fill="#43AD91" d="M75.493 58.128c.748-1.434.828-3.532 1.883-4.728.19-.215-.211.143-.475 0 .02.01.196.349.232.444.169.451-.036.914-.316 1.272-.613.787-1.498 1.306-2.329 1.828-1.143.72-.089 2.538 1.061 1.813 1.244-.784 2.491-1.603 3.276-2.884.828-1.354.521-3.538-.958-4.339-2.674-1.45-3.495 4.206-4.187 5.533-.625 1.2 1.187 2.263 1.813 1.061zm8.429 37.447c.059.079.115.158.168.241.159.247.019-.022.063.103.098.273.008-.133.009.013.034-.194.039-.238.015-.133.083-.177.1-.219.05-.126.125-.148.151-.185.08-.108-.078.069-.043.042.104-.08-.211.142.193-.061.028-.01-.259.08.205-.01.022.005a1.323 1.323 0 0 1-.218-.004c.455.033-.342-.16.059.019-.079-.035-.277-.186-.005.027-.082-.064-.178-.241.003.03-.051-.094-.035-.054.045.12-.027-.105-.024-.061.009.134-.03-.265-.051.18-.003.002.037-.135-.107.184.049-.065.065-.092.063-.091-.005.004.044-.05.09-.099.137-.146l-.463.271c-.214.035-.192.021-.006.01.068-.003.136-.003.204 0l-.064-.01c.179.056.14.028-.117-.083.955.962 2.439-.523 1.484-1.484-.452-.455-1.11-.58-1.729-.503-.639.079-1.083.505-1.362 1.077-.44.903-.162 1.967.765 2.431.813.405 1.758.36 2.479-.2.843-.653.56-1.861.013-2.593-.342-.457-.9-.69-1.437-.376-.452.262-.721.974-.377 1.434zM36.817 4.616c-.067 8.346 2.915 17.812 12.951 18.399 8.418.493 16.947.206 25.381.273 4.373.035 8.726.035 13.097-.097 4.707-.143 5.016 6.959 2.969 10.097-.599.916.553 1.923 1.437 1.437 4.314-2.378 9.352-6.628 9.683-11.857l-1.05 1.05 25.565-.074c1.354-.004 1.354-2.104 0-2.1l-25.565.074c-.6.001-1.014.478-1.05 1.05-.268 4.228-5.229 8.163-8.644 10.044l1.437 1.437c1.812-2.775 2.355-9.226.521-12.053-.943-1.453-3.988-1.176-5.302-1.204-4.351-.09-8.738.132-13.097.097-8.57-.069-17.963.912-26.432-.45-8.243-1.325-9.855-9.241-9.8-16.123.01-1.354-2.09-1.353-2.101 0z"/></svg>