<svg xmlns="http://www.w3.org/2000/svg" width="420" height="111"><path fill="#FFF" d="M26.576 20.064C32.023 4.24 47.541 7.287 55.852 16.976c.342-2.7 1.362-5.402 3.745-6.561 2.044 3.861 2.384 11.966 1.361 16.213-1.7-.387-3.064-1.546-4.083-3.477l-.681-1.156c-6.808 8.103-22.81 10.42-28.938.386l-.68-2.317z"/><path fill="#45A588" d="M27.413 20.295c5.222-13.692 19.153-12.29 27.825-2.705.416.46 1.337.254 1.452-.384.01-1.912 1.016-3.273 3.018-4.082.635 1.949.758 4.052.899 6.082.112 1.59.013 3.185-.097 4.771-.193 2.807-3.345-2.047-3.565-2.421-.274-.465-.984-.595-1.366-.176-6.815 7.485-24.469 11.046-28.167-1.547-.315-1.073-1.993-.616-1.675.461 2.127 7.246 9.328 9.938 16.407 9.512 4.217-.253 8.264-2.001 11.674-4.406 2.418-1.707 1.417-3.21 3.136-.508.884 1.389 2.299 2.044 3.773 2.573.422.151.983-.168 1.068-.607 1.084-5.524.874-11.693-1.449-16.882-.184-.411-.827-.557-1.188-.312-2.65 1.809-3.576 3.949-4.146 7.08.485-.127.968-.256 1.453-.384-9.738-10.764-25.088-11.325-30.73 3.472-.397 1.051 1.285 1.5 1.678.463z"/><path d="M11.208 44.198h1.02v8.223h-1.02v-8.223zm7.808 5.373c0 2.073-1.436 2.977-2.791 2.977-1.517 0-2.687-1.112-2.687-2.884 0-1.876 1.228-2.977 2.78-2.977 1.609.001 2.698 1.17 2.698 2.884zm-4.448.058c0 1.228.707 2.154 1.703 2.154.973 0 1.703-.915 1.703-2.177 0-.95-.475-2.154-1.68-2.154-1.204 0-1.726 1.112-1.726 2.177zm10.566-2.814c-.023.405-.046.857-.046 1.541v3.254c0 1.285-.255 2.073-.799 2.56-.544.509-1.332.671-2.039.671-.671 0-1.413-.162-1.865-.463l.255-.776c.371.232.95.44 1.645.44 1.042 0 1.807-.544 1.807-1.958v-.625h-.023c-.313.521-.915.938-1.784.938-1.39 0-2.386-1.182-2.386-2.733 0-1.899 1.239-2.977 2.525-2.977.973 0 1.505.51 1.749.973h.023l.046-.846h.892zm-1.054 2.212c0-.173-.012-.324-.058-.463-.185-.591-.683-1.077-1.424-1.077-.973 0-1.668.822-1.668 2.119 0 1.101.556 2.015 1.656 2.015.625 0 1.193-.394 1.413-1.042.058-.174.081-.371.081-.544v-1.008zm7.774.544c0 2.073-1.436 2.977-2.791 2.977-1.517 0-2.687-1.112-2.687-2.884 0-1.876 1.228-2.977 2.78-2.977 1.61.001 2.698 1.17 2.698 2.884zm-4.447.058c0 1.228.707 2.154 1.703 2.154.973 0 1.703-.915 1.703-2.177 0-.95-.475-2.154-1.68-2.154-1.204 0-1.726 1.112-1.726 2.177zm8.193-1.297c0-.579-.011-1.054-.046-1.517h.892l.046.903h.035c.313-.533.834-1.031 1.76-1.031.765 0 1.344.463 1.587 1.124h.023c.174-.313.394-.556.625-.729.336-.255.707-.394 1.239-.394.741 0 1.841.486 1.841 2.432v3.301h-.996v-3.173c0-1.077-.394-1.726-1.216-1.726-.579 0-1.031.429-1.205.926a1.693 1.693 0 0 0-.081.51v3.463h-.996v-3.358c0-.892-.394-1.541-1.169-1.541-.637 0-1.101.51-1.263 1.019a1.403 1.403 0 0 0-.081.498v3.382H35.6v-4.089zm14.737 1.239c0 2.073-1.436 2.977-2.791 2.977-1.517 0-2.687-1.112-2.687-2.884 0-1.876 1.228-2.977 2.78-2.977 1.61.001 2.698 1.17 2.698 2.884zm-4.447.058c0 1.228.707 2.154 1.703 2.154.973 0 1.703-.915 1.703-2.177 0-.95-.475-2.154-1.68-2.154s-1.726 1.112-1.726 2.177zm9.732 2.583c-.266.139-.857.324-1.609.324-1.691 0-2.792-1.146-2.792-2.86 0-1.726 1.182-2.977 3.011-2.977.603 0 1.135.15 1.413.29l-.231.788c-.244-.139-.625-.267-1.182-.267-1.286 0-1.98.95-1.98 2.12 0 1.297.834 2.096 1.946 2.096.579 0 .961-.15 1.251-.278l.173.764zm2.203-2.826h.023c.139-.197.336-.44.498-.637l1.645-1.934h1.228l-2.166 2.305 2.467 3.301h-1.24l-1.934-2.687-.521.579v2.108h-1.008v-8.223h1.008v5.188zm9.164 1.506c0 .579.011 1.089.046 1.529h-.903l-.058-.915h-.023a2.108 2.108 0 0 1-1.853 1.042c-.88 0-1.934-.486-1.934-2.455v-3.278h1.02v3.104c0 1.065.324 1.783 1.25 1.783.684 0 1.158-.475 1.344-.926.058-.15.092-.336.092-.521v-3.44h1.02v4.077zm1.694-2.247c0-.718-.023-1.297-.046-1.83h.915l.046.961h.023c.417-.684 1.077-1.089 1.992-1.089 1.355 0 2.375 1.146 2.375 2.849 0 2.015-1.228 3.011-2.548 3.011-.741 0-1.39-.324-1.726-.88h-.023v3.046h-1.008v-6.068zm1.008 1.494c0 .151.023.29.046.417a1.572 1.572 0 0 0 1.529 1.193c1.077 0 1.702-.88 1.702-2.166 0-1.124-.59-2.084-1.667-2.084-.695 0-1.343.498-1.541 1.262a1.639 1.639 0 0 0-.069.417v.961z" fill="#44A587"/><path fill="#45A588" d="M65.184 41.213c-4.081-8-8.603-15.792-12.879-23.688-2.07-3.826-5.511-9.892-10.654-9.215-.657.086-.666 1.131 0 1.042 5.728-.753 9.331 7.743 11.453 11.948 3.5 6.932 7.649 13.518 11.179 20.44.305.599 1.205.073.901-.527zm-35.49-15.937c-3.91 4.877-7.283 10.103-10.51 15.449-.349.578.554 1.102.901.527 3.18-5.27 6.493-10.43 10.347-15.238.415-.519-.318-1.264-.738-.738z"/><path fill="#FFF" d="M251.379 22.382c5.446-15.825 20.579-13.068 29.276-3.088.342-2.7 1.362-5.402 3.746-6.561 2.043 3.861 2.383 11.966 1.36 16.212-1.7-.387-3.064-1.545-4.083-3.476l-.682-1.157c-6.808 8.103-22.809 10.421-28.938.386l-.679-2.316z"/><path fill="#45A588" d="M252.218 22.612c5.28-13.886 19.022-12.307 27.824-2.705.418.457 1.335.257 1.453-.384.009-1.912 1.016-3.273 3.017-4.082.636 1.949.756 4.052.898 6.083.112 1.59.014 3.184-.097 4.771-.195 2.804-3.346-2.048-3.565-2.422-.273-.465-.984-.595-1.364-.175-6.817 7.484-24.468 11.046-28.166-1.547-.314-1.073-1.993-.616-1.677.461 2.127 7.247 9.329 9.938 16.407 9.513 4.218-.253 8.264-2.001 11.673-4.407 2.418-1.707 1.419-3.21 3.137-.507.884 1.389 2.297 2.043 3.772 2.573.422.151.982-.168 1.069-.607 1.085-5.524.873-11.693-1.448-16.882-.185-.412-.828-.558-1.189-.312-2.648 1.809-3.576 3.95-4.144 7.08l1.452-.384c-9.874-10.776-25.029-11.521-30.729 3.472-.398 1.049 1.281 1.5 1.677.461z"/><path d="M244.987 54.214c.023 1.378.903 1.946 1.923 1.946.729 0 1.169-.128 1.552-.29l.174.73c-.359.162-.974.347-1.865.347-1.726 0-2.756-1.135-2.756-2.826s.996-3.023 2.629-3.023c1.83 0 2.316 1.61 2.316 2.641 0 .208-.023.371-.035.475h-3.938zm2.989-.73c.011-.648-.267-1.656-1.413-1.656-1.031 0-1.482.949-1.563 1.656h2.976zm2.689-2.258l.799 1.205c.209.313.383.602.567.915h.035c.186-.336.37-.625.556-.927l.788-1.193h1.1l-1.911 2.71 1.97 2.896h-1.158l-.822-1.263c-.221-.324-.405-.637-.603-.973h-.023c-.186.336-.382.637-.591.973l-.811 1.263h-1.123l1.992-2.861-1.899-2.745h1.134zm4.891 1.83c0-.718-.023-1.297-.047-1.83h.915l.047.961h.022c.417-.684 1.077-1.089 1.992-1.089 1.355 0 2.374 1.146 2.374 2.849 0 2.015-1.228 3.011-2.548 3.011-.741 0-1.39-.324-1.726-.88h-.023v3.046h-1.007v-6.068zm1.007 1.494c0 .151.023.29.047.417a1.572 1.572 0 0 0 1.528 1.193c1.077 0 1.703-.88 1.703-2.166 0-1.124-.591-2.084-1.668-2.084-.695 0-1.344.498-1.54 1.262a1.64 1.64 0 0 0-.07.417v.961zm10.659-.568c0 2.073-1.436 2.977-2.791 2.977-1.518 0-2.687-1.112-2.687-2.884 0-1.876 1.228-2.977 2.779-2.977 1.61.001 2.699 1.171 2.699 2.884zm-4.448.059c0 1.228.707 2.154 1.702 2.154.974 0 1.703-.915 1.703-2.177 0-.95-.475-2.154-1.68-2.154-1.203-.001-1.725 1.111-1.725 2.177zm8.053 1.748c.302.197.834.405 1.344.405.741 0 1.089-.371 1.089-.833 0-.486-.29-.753-1.042-1.031-1.008-.359-1.482-.915-1.482-1.587 0-.903.729-1.645 1.934-1.645.567 0 1.065.162 1.378.348l-.255.741a2.18 2.18 0 0 0-1.146-.324c-.602 0-.938.347-.938.764 0 .463.336.672 1.065.95.973.371 1.471.857 1.471 1.691 0 .985-.765 1.679-2.097 1.679-.613 0-1.181-.15-1.574-.382l.253-.776zm5.956-6.173v1.61h1.459v.776h-1.459v3.023c0 .695.196 1.088.765 1.088.266 0 .463-.034.59-.069l.047.765c-.197.081-.51.139-.903.139-.475 0-.857-.15-1.101-.428-.289-.302-.394-.8-.394-1.46v-3.058h-.869v-.776h.869v-1.343l.996-.267zm5.712 7.216l-.081-.707h-.035c-.313.44-.914.834-1.714.834-1.135 0-1.714-.799-1.714-1.61 0-1.355 1.204-2.096 3.37-2.084v-.116c0-.463-.127-1.297-1.273-1.297-.521 0-1.065.162-1.46.417l-.231-.672c.464-.301 1.135-.498 1.842-.498 1.714 0 2.131 1.17 2.131 2.293v2.096c0 .486.023.961.093 1.344h-.928zm-.15-2.861c-1.112-.023-2.374.174-2.374 1.263 0 .66.439.973.961.973.729 0 1.193-.463 1.355-.938.034-.104.058-.22.058-.324v-.974zm3.813-4.355v1.61h1.459v.776h-1.459v3.023c0 .695.196 1.088.765 1.088.266 0 .463-.034.59-.069l.047.765c-.197.081-.51.139-.903.139-.475 0-.857-.15-1.101-.428-.289-.302-.394-.8-.394-1.46v-3.058h-.869v-.776h.869v-1.343l.996-.267zm2.468 6.173c.302.197.834.405 1.344.405.741 0 1.089-.371 1.089-.833 0-.486-.29-.753-1.042-1.031-1.008-.359-1.482-.915-1.482-1.587 0-.903.729-1.645 1.934-1.645.567 0 1.065.162 1.378.348l-.255.741a2.18 2.18 0 0 0-1.146-.324c-.602 0-.938.347-.938.764 0 .463.336.672 1.065.95.973.371 1.471.857 1.471 1.691 0 .985-.765 1.679-2.097 1.679-.613 0-1.181-.15-1.574-.382l.253-.776z" fill="#44A587"/><path fill="#45A588" d="M289.95 45.015c-4.202-8.425-8.357-16.891-12.844-25.173-2.069-3.826-5.511-9.892-10.653-9.215-.656.086-.665 1.131 0 1.042 5.981-.788 9.73 8.475 11.905 12.86 3.492 7.035 7.184 13.98 10.691 21.012.301.603 1.2.076.901-.526zm-35.535-17.317c-3.654 5.573-6.536 11.593-9.931 17.317-.343.581.559 1.104.9.527 3.396-5.726 6.276-11.746 9.932-17.317.371-.564-.534-1.085-.901-.527z"/><path fill="none" stroke="#45A588" stroke-miterlimit="10" d="M82.498 49.089a7.613 7.613 0 0 1-7.612 7.613h-64.25a7.613 7.613 0 0 1-7.612-7.613 7.612 7.612 0 0 1 7.612-7.612h64.249a7.614 7.614 0 0 1 7.613 7.612z"/><path fill="#FFF" d="M132.025 69.893c5.447-15.825 20.191-13.061 29.276-3.088.341-2.7 1.362-5.402 3.745-6.562 2.044 3.861 2.384 11.966 1.361 16.213-1.7-.387-3.063-1.546-4.082-3.477l-.681-1.156c-6.808 8.103-22.811 10.42-28.938.386l-.681-2.316z"/><path fill="#45A588" d="M132.863 70.124c5.336-14.02 18.828-12.12 27.825-2.705.424.444 1.335.266 1.452-.385.01-1.911 1.016-3.272 3.017-4.082.635 1.95.758 4.053.899 6.083.111 1.59.013 3.185-.098 4.771-.193 2.807-3.345-2.048-3.565-2.422-.274-.465-.984-.595-1.365-.175-6.816 7.484-24.469 11.046-28.167-1.547-.315-1.073-1.992-.616-1.675.462 2.127 7.245 9.328 9.938 16.407 9.512 4.217-.253 8.264-2.002 11.674-4.406 2.418-1.708 1.417-3.21 3.136-.508.885 1.389 2.299 2.043 3.773 2.573.422.15.983-.169 1.068-.607 1.084-5.524.874-11.692-1.448-16.882-.184-.412-.828-.558-1.189-.313-2.65 1.81-3.576 3.949-4.145 7.08l1.452-.383c-10.068-10.538-24.957-11.696-30.729 3.472-.398 1.049 1.284 1.498 1.678.462z"/><path d="M103.911 98.474c0-.718-.023-1.297-.046-1.83h.915l.046.961h.023c.417-.683 1.077-1.088 1.992-1.088 1.355 0 2.375 1.146 2.375 2.849 0 2.016-1.228 3.011-2.548 3.011-.741 0-1.39-.324-1.726-.88h-.023v3.046h-1.008v-6.069zm1.007 1.494c0 .15.023.289.046.417a1.572 1.572 0 0 0 1.529 1.192c1.077 0 1.702-.88 1.702-2.166 0-1.123-.59-2.084-1.667-2.084-.695 0-1.343.498-1.541 1.262a1.646 1.646 0 0 0-.069.417v.962zm5.841-3.324l1.228 3.313c.127.37.266.811.359 1.146h.023c.104-.336.22-.765.359-1.17l1.112-3.289h1.077l-1.528 3.996c-.73 1.922-1.228 2.906-1.923 3.509-.498.44-.996.613-1.25.66l-.255-.857c.255-.081.591-.243.892-.498.278-.22.625-.613.857-1.135.046-.104.081-.186.081-.243s-.023-.139-.069-.267l-2.073-5.165h1.11zm8.978 5.397c-.266.139-.857.324-1.609.324-1.691 0-2.792-1.146-2.792-2.861 0-1.726 1.182-2.977 3.011-2.977.603 0 1.135.151 1.413.29l-.232.787c-.243-.139-.625-.266-1.181-.266-1.286 0-1.98.949-1.98 2.119 0 1.297.834 2.096 1.946 2.096.579 0 .961-.15 1.251-.277l.173.765zm5.122 0c-.266.139-.857.324-1.609.324-1.691 0-2.792-1.146-2.792-2.861 0-1.726 1.182-2.977 3.011-2.977.603 0 1.135.151 1.413.29l-.232.787c-.243-.139-.625-.266-1.181-.266-1.286 0-1.98.949-1.98 2.119 0 1.297.834 2.096 1.946 2.096.579 0 .961-.15 1.251-.277l.173.765zm2.204-5.397v2.433h.243l2.108-2.433h1.239l-2.444 2.536c.903.093 1.448.695 1.888 1.703.151.37.348.914.603 1.366h-1.065c-.151-.243-.348-.684-.521-1.146-.382-.903-.903-1.32-1.853-1.32h-.197v2.467h-1.008v-5.605h1.007zm5.481 0v2.362c0 .893-.012 1.448-.058 2.247l.035.012c.336-.684.533-1.077.903-1.726l1.749-2.896h1.193v5.605h-.973v-2.374c0-.915.023-1.39.069-2.293h-.035a32.414 32.414 0 0 1-.927 1.737c-.533.868-1.146 1.945-1.749 2.93h-1.17v-5.605h.963zm6.419 0v2.362c0 .893-.012 1.448-.058 2.247l.035.012c.336-.684.533-1.077.903-1.726l1.749-2.896h1.193v5.605h-.973v-2.374c0-.915.023-1.39.07-2.293h-.035a32.414 32.414 0 0 1-.927 1.737c-.533.868-1.146 1.945-1.749 2.93h-1.17v-5.605h.962zm.661-2.282c.035.498.278.88.741.88.498 0 .729-.37.788-.88h.729c-.046.949-.648 1.436-1.541 1.436-1.019 0-1.413-.637-1.459-1.436h.742zm11.887 2.282v5.605h-1.02v-4.795h-2.605v4.795h-1.008v-5.605h4.633zm2.227 2.988c.023 1.378.903 1.945 1.922 1.945.729 0 1.17-.127 1.552-.289l.174.729c-.359.162-.973.348-1.865.348-1.726 0-2.756-1.136-2.756-2.826 0-1.691.996-3.022 2.629-3.022 1.83 0 2.316 1.609 2.316 2.641 0 .208-.023.37-.035.475h-3.937zm2.988-.73c.012-.648-.266-1.656-1.413-1.656-1.031 0-1.482.949-1.563 1.656h2.976zm2.249-.428c0-.718-.023-1.297-.046-1.83h.915l.046.961h.023c.417-.683 1.077-1.088 1.992-1.088 1.355 0 2.375 1.146 2.375 2.849 0 2.016-1.228 3.011-2.548 3.011-.741 0-1.39-.324-1.726-.88h-.023v3.046h-1.008v-6.069zm1.008 1.494c0 .15.023.289.046.417a1.572 1.572 0 0 0 1.529 1.192c1.077 0 1.702-.88 1.702-2.166 0-1.123-.59-2.084-1.667-2.084-.695 0-1.343.498-1.541 1.262a1.646 1.646 0 0 0-.069.417v.962zm6.153-.336c.023 1.378.903 1.945 1.922 1.945.729 0 1.17-.127 1.552-.289l.174.729c-.359.162-.973.348-1.865.348-1.726 0-2.756-1.136-2.756-2.826 0-1.691.996-3.022 2.629-3.022 1.83 0 2.316 1.609 2.316 2.641 0 .208-.023.37-.035.475h-3.937zm2.988-.73c.012-.648-.266-1.656-1.413-1.656-1.031 0-1.482.949-1.563 1.656h2.976zm2.227-2.189c.394-.069 1.124-.127 1.784-.127.938 0 2.49.15 2.49 1.401 0 .694-.533 1.123-1.169 1.262v.023c.822.116 1.424.579 1.424 1.39 0 1.471-1.853 1.656-2.953 1.656-.625 0-1.274-.046-1.575-.069v-5.536zm.962 4.864c.29.035.498.047.822.047.683 0 1.702-.162 1.702-.974 0-.811-.811-.984-1.783-.984h-.741v1.911zm.011-2.582h.765c.753 0 1.529-.221 1.529-.881 0-.556-.486-.822-1.506-.822-.336 0-.544.023-.788.047v1.656zm9.917.405c0 2.072-1.436 2.976-2.791 2.976-1.517 0-2.687-1.111-2.687-2.884 0-1.876 1.228-2.976 2.78-2.976 1.609.001 2.698 1.17 2.698 2.884zm-4.448.058c0 1.228.707 2.154 1.703 2.154.973 0 1.703-.915 1.703-2.178 0-.949-.475-2.154-1.68-2.154-1.204 0-1.726 1.113-1.726 2.178zm9.999-2.814v4.841l.579.012-.058 2.536h-.8l-.046-1.783h-3.88l-.046 1.783h-.799l-.046-2.536.475-.012c.243-.358.429-.741.556-1.146.22-.694.324-1.447.324-2.235v-1.459h3.741zm-2.838 1.702c0 .741-.104 1.46-.29 2.085a5.342 5.342 0 0 1-.452 1.042h2.583V97.42h-1.841v.926z" fill="#44A587"/><path fill="#45A588" d="M170.723 90.553c-4.054-7.87-8.751-15.414-12.968-23.199-2.07-3.826-5.511-9.893-10.654-9.216-.657.087-.665 1.131 0 1.043 5.728-.753 9.331 7.743 11.453 11.948 3.444 6.822 7.768 13.154 11.27 19.95.306.599 1.205.071.899-.526zm-35.579-15.449c-3.91 4.878-7.283 10.104-10.511 15.449-.349.578.554 1.102.901.526 3.18-5.269 6.493-10.429 10.348-15.237.414-.52-.318-1.263-.738-.738z"/><path fill="none" stroke="#45A588" stroke-miterlimit="10" d="M297.675 53.36a7.713 7.713 0 0 1-7.713 7.715h-44.763a7.714 7.714 0 1 1 0-15.429h44.763a7.712 7.712 0 0 1 7.713 7.714z"/><path fill="#FFF" d="M368.416 57.146c5.447-15.825 20.386-12.778 29.276-3.088.342-2.7 1.362-5.402 3.746-6.562 2.044 3.861 2.383 11.966 1.36 16.213-1.7-.387-3.064-1.546-4.083-3.476l-.682-1.157c-6.808 8.103-22.809 10.421-28.938.386l-.679-2.316z"/><path fill="#45A588" d="M369.255 57.376c5.289-13.922 18.9-11.984 27.823-2.705.426.443 1.334.268 1.454-.384.01-1.912 1.017-3.273 3.017-4.082.637 1.949.758 4.052.9 6.083.11 1.59.012 3.185-.098 4.771-.194 2.805-3.347-2.047-3.565-2.421-.274-.466-.984-.595-1.366-.176-6.815 7.484-24.467 11.046-28.165-1.547-.314-1.073-1.993-.615-1.677.461 2.127 7.246 9.33 9.938 16.407 9.514 4.218-.254 8.263-2.002 11.673-4.407 2.418-1.707 1.418-3.21 3.137-.508.884 1.389 2.298 2.044 3.772 2.573.422.15.982-.169 1.069-.607 1.086-5.523.873-11.693-1.448-16.882-.185-.411-.828-.557-1.188-.312-2.648 1.809-3.575 3.949-4.145 7.08l1.453-.384c-10.02-10.419-25.006-11.589-30.73 3.472-.398 1.049 1.282 1.499 1.677.461z"/><path d="M359.115 84.415c.012.348-.243.626-.648.626a.606.606 0 0 1-.614-.626c0-.358.267-.637.638-.637.381 0 .624.279.624.637zm-1.135 7.181V85.99h1.019v5.605h-1.019zm2.573-1.042c.302.196.834.405 1.344.405.741 0 1.089-.371 1.089-.834 0-.486-.29-.753-1.042-1.031-1.008-.358-1.482-.915-1.482-1.586 0-.903.729-1.645 1.934-1.645.567 0 1.065.162 1.378.347l-.255.741a2.18 2.18 0 0 0-1.146-.324c-.602 0-.938.348-.938.765 0 .463.336.672 1.065.95.973.37 1.471.856 1.471 1.69 0 .984-.765 1.68-2.097 1.68-.613 0-1.181-.151-1.574-.383l.253-.775zm4.588 0c.302.196.834.405 1.344.405.741 0 1.089-.371 1.089-.834 0-.486-.29-.753-1.042-1.031-1.008-.358-1.482-.915-1.482-1.586 0-.903.729-1.645 1.934-1.645.567 0 1.065.162 1.378.347l-.255.741a2.18 2.18 0 0 0-1.146-.324c-.602 0-.938.348-.938.765 0 .463.336.672 1.065.95.973.37 1.471.856 1.471 1.69 0 .984-.765 1.68-2.097 1.68-.613 0-1.181-.151-1.574-.383l.253-.775zm9.419-.487c0 .579.012 1.088.046 1.528h-.903l-.058-.915h-.023a2.108 2.108 0 0 1-1.853 1.042c-.881 0-1.935-.486-1.935-2.455V85.99h1.02v3.104c0 1.065.324 1.784 1.251 1.784.683 0 1.158-.476 1.343-.927.059-.15.093-.336.093-.521v-3.44h1.02v4.077zm2.261-1.088c.023 1.378.903 1.945 1.923 1.945.729 0 1.169-.127 1.552-.289l.174.729c-.359.162-.974.348-1.865.348-1.726 0-2.756-1.136-2.756-2.826 0-1.691.996-3.022 2.629-3.022 1.83 0 2.316 1.609 2.316 2.641 0 .208-.023.37-.035.475h-3.938zm2.989-.73c.011-.648-.267-1.656-1.413-1.656-1.031 0-1.482.949-1.563 1.656h2.976zm4.938 3.347l.301-2.27h-.949v-.684h1.054l.22-1.68h-.996v-.682h1.101l.301-2.213h.672l-.289 2.213h1.204l.301-2.213h.684l-.289 2.213h.949v.683h-1.054l-.208 1.68h.995v.684h-1.1l-.302 2.27h-.694l.301-2.27h-1.204l-.302 2.27h-.696zm2.305-2.953l.22-1.68h-1.204l-.22 1.68h1.204zm2.898 2.953v-.625l.799-.776c1.923-1.83 2.791-2.803 2.803-3.938 0-.765-.371-1.471-1.494-1.471-.684 0-1.251.347-1.599.637l-.324-.718a3.306 3.306 0 0 1 2.132-.765c1.621 0 2.305 1.111 2.305 2.188 0 1.39-1.008 2.514-2.595 4.042l-.603.557v.022h3.382v.846h-4.806zm9.094 0v-2.05h-3.497v-.672l3.358-4.807h1.101v4.68h1.054v.799h-1.054v2.05h-.962zm0-2.849v-2.514c0-.394.012-.787.035-1.182h-.035c-.231.44-.417.765-.625 1.112l-1.842 2.56v.023h2.467zm7.092-3.961c-.209-.012-.476 0-.765.046-1.599.267-2.444 1.437-2.617 2.676h.034c.359-.476.984-.869 1.818-.869 1.332 0 2.27.962 2.27 2.433 0 1.378-.938 2.651-2.501 2.651-1.61 0-2.664-1.25-2.664-3.208 0-1.482.533-2.651 1.274-3.393.625-.614 1.459-.996 2.408-1.112.302-.046.557-.058.742-.058v.834zm-.29 4.343c0-1.077-.614-1.726-1.552-1.726-.614 0-1.182.382-1.459.927a.859.859 0 0 0-.116.451c.023 1.239.591 2.154 1.656 2.154.88.001 1.471-.729 1.471-1.806zm1.844.556c0-.949.567-1.621 1.494-2.015l-.012-.035c-.834-.394-1.193-1.042-1.193-1.69 0-1.193 1.008-2.004 2.328-2.004 1.459 0 2.188.915 2.188 1.853 0 .638-.313 1.32-1.239 1.761v.035c.938.37 1.518 1.03 1.518 1.945 0 1.309-1.123 2.188-2.56 2.188-1.574 0-2.524-.938-2.524-2.038zm4.054-.046c0-.915-.638-1.355-1.656-1.645-.881.255-1.355.834-1.355 1.552-.034.765.545 1.436 1.506 1.436.914-.001 1.505-.568 1.505-1.343zm-2.803-3.765c0 .753.567 1.158 1.436 1.391.648-.221 1.146-.684 1.146-1.367 0-.602-.358-1.228-1.273-1.228-.846 0-1.309.556-1.309 1.204z" fill="#44A587"/><path fill="#45A588" d="M406.987 79.778c-4.202-8.425-8.357-16.891-12.843-25.173-2.07-3.825-5.512-9.891-10.653-9.214-.657.086-.666 1.131 0 1.042 5.979-.788 9.729 8.474 11.905 12.86 3.491 7.035 7.183 13.98 10.69 21.012.301.603 1.2.076.901-.527zm-35.535-17.316c-3.653 5.572-6.536 11.593-9.931 17.316-.343.582.559 1.104.9.527 3.396-5.725 6.276-11.746 9.931-17.316.372-.564-.533-1.086-.9-.527z"/><path fill="none" stroke="#45A588" stroke-miterlimit="10" d="M419 88.123a7.713 7.713 0 0 1-7.713 7.716h-52.359a7.715 7.715 0 0 1-7.716-7.716 7.713 7.713 0 0 1 7.716-7.713h52.359A7.711 7.711 0 0 1 419 88.123zM195.383 98.69c0 4.329-3.579 7.84-7.996 7.84h-83.664c-4.416 0-7.996-3.509-7.996-7.84v-.034c0-4.328 3.58-7.84 7.996-7.84h83.664c4.417 0 7.996 3.511 7.996 7.84v.034z"/></svg>