<svg xmlns="http://www.w3.org/2000/svg" width="420" height="111"><path fill="#FFF" d="M144.557 40.775c9.612-16.227 25.267-8.557 33.016 3.256.992-2.903 2.733-5.653 5.628-6.39 1.376 4.727-.094 13.749-2.19 18.203-1.787-.813-3.029-2.404-3.715-4.765l-.49-1.433c-9.358 7.395-27.548 6.312-32.028-6.161l-.221-2.71z"/><path fill="#45A588" d="M145.402 41.27c9.032-14.062 23.288-8.373 31.325 3.256.511.738 1.469.564 1.791-.234.945-2.346 4.083-6.902 4.24-2.003.076 2.342-.347 4.769-.76 7.052-.304 1.684-.826 3.309-1.376 4.924-.472 1.389-2.529-3.879-2.871-4.876-.186-.546-.897-.981-1.438-.585-9.165 6.685-29.568 6.725-30.777-8.026-.102-1.25-2.062-1.26-1.959 0 .654 8.002 7.601 13.341 15.387 14.221 4.508.511 9.277.173 13.473-1.703 3.328-1.487 3.247-3.713 4.533-.326.662 1.741 2.028 2.796 3.546 3.726.595.361 1.203-.023 1.439-.586 2.405-5.738 3.542-12.597 2.189-18.724-.104-.474-.728-.883-1.204-.685-3.379 1.41-4.966 3.732-6.312 7.074l1.791-.234c-9.017-13.048-24.927-18.482-34.708-3.256-.685 1.062 1.012 2.043 1.691.985z"/><path fill="#FFF" d="M242.92 37.914c-1.209-18.821 16.043-21.311 29.104-15.924-.817-2.958-.93-6.211 1.046-8.451 3.802 3.129 7.675 11.409 8.456 16.269-1.936.336-3.856-.277-5.757-1.841l-1.209-.907c-3.562 11.384-19.195 20.744-29.926 12.969l-1.714-2.115z"/><path fill="#45A588" d="M243.899 37.914c-.554-16.79 14.609-20.125 27.864-14.979.743.288 1.349-.548 1.205-1.206-.523-2.38-1.622-9.554 2.315-4.161 1.082 1.48 1.891 3.162 2.709 4.792 1.017 2.024 1.696 4.138 2.298 6.304.411 1.476-4.364-1.794-5.238-2.45-.544-.409-1.245.051-1.44.585-3.912 10.837-20.722 21.877-30.001 10.421-.796-.982-2.174.413-1.387 1.386 4.761 5.879 13.155 6.575 19.805 3.318 4.277-2.096 7.631-4.919 10.508-8.695.521-.682 3.173-4.088 2.13-4.87 2.322 1.74 3.981 2.458 6.856 2.428.668-.006 1.069-.618.943-1.239-1.245-6.091-4.135-12.402-8.708-16.702-.473-.447-1.187-.341-1.538.197-1.945 2.994-1.897 5.773-1.145 9.205l1.206-1.205c-14.633-5.681-30.935-1.063-30.343 16.87.043 1.262 2.002 1.266 1.961.001z"/><path d="M148.504 77.275l.836 3.213c.183.705.353 1.358.47 2.012h.039c.144-.641.353-1.319.562-1.999l1.032-3.226h.966l.98 3.16c.235.758.418 1.424.562 2.064h.039c.104-.641.274-1.307.483-2.051l.901-3.174h1.136l-2.038 6.321h-1.045l-.967-3.018a21.154 21.154 0 0 1-.562-2.076h-.026c-.156.757-.353 1.41-.574 2.09l-1.019 3.004h-1.045l-1.907-6.321h1.177zm9.155-2.952h1.149v3.944h.026c.183-.326.47-.614.823-.81a2.362 2.362 0 0 1 1.175-.327c.849 0 2.208.522 2.208 2.704v3.762h-1.149v-3.631c0-1.019-.379-1.881-1.463-1.881-.745 0-1.333.522-1.542 1.149-.065.156-.078.326-.078.549v3.813h-1.149v-9.272zm7.887 6.322c.026 1.555 1.019 2.194 2.168 2.194.823 0 1.319-.144 1.75-.326l.196.823c-.405.183-1.097.392-2.103.392-1.946 0-3.108-1.28-3.108-3.188s1.123-3.409 2.965-3.409c2.063 0 2.612 1.816 2.612 2.979 0 .235-.026.418-.039.535h-4.441zm3.37-.823c.013-.731-.3-1.868-1.594-1.868-1.162 0-1.672 1.071-1.763 1.868h3.357zm2.533-.575c0-.744-.013-1.385-.052-1.972h1.006l.039 1.24h.052c.287-.849.979-1.385 1.75-1.385.131 0 .222.014.327.039v1.085a1.733 1.733 0 0 0-.392-.04c-.81 0-1.385.614-1.542 1.477-.026.156-.052.34-.052.535v3.37h-1.136v-4.349zm4.78 1.398c.026 1.555 1.019 2.194 2.168 2.194.823 0 1.319-.144 1.75-.326l.196.823c-.405.183-1.097.392-2.103.392-1.946 0-3.108-1.28-3.108-3.188s1.123-3.409 2.965-3.409c2.063 0 2.612 1.816 2.612 2.979 0 .235-.026.418-.039.535h-4.441zm3.37-.823c.013-.731-.3-1.868-1.594-1.868-1.162 0-1.672 1.071-1.763 1.868h3.357zm10.76-5.499v7.641c0 .562.013 1.202.052 1.633h-1.032l-.052-1.097h-.026c-.353.705-1.123 1.24-2.155 1.24-1.528 0-2.704-1.293-2.704-3.213-.013-2.104 1.293-3.396 2.834-3.396.967 0 1.62.457 1.907.967h.026v-3.774h1.15zm-1.15 5.525c0-.144-.013-.339-.052-.482-.17-.732-.797-1.333-1.659-1.333-1.188 0-1.894 1.045-1.894 2.442 0 1.28.627 2.338 1.868 2.338.771 0 1.476-.509 1.685-1.371.039-.156.052-.313.052-.496v-1.098zm8.776.536c0 2.338-1.619 3.356-3.147 3.356-1.711 0-3.03-1.254-3.03-3.252 0-2.116 1.385-3.357 3.135-3.357 1.815 0 3.042 1.319 3.042 3.253zm-5.015.065c0 1.384.797 2.429 1.92 2.429 1.098 0 1.92-1.031 1.92-2.455 0-1.071-.535-2.43-1.894-2.43s-1.946 1.254-1.946 2.456zm9.232-1.11c0-.81-.025-1.463-.052-2.063h1.032l.052 1.084h.026c.47-.771 1.215-1.229 2.246-1.229 1.528 0 2.678 1.293 2.678 3.214 0 2.272-1.385 3.396-2.873 3.396-.836 0-1.567-.365-1.946-.992h-.026v3.435h-1.137v-6.845zm1.137 1.684c0 .17.026.326.053.471.209.797.9 1.345 1.724 1.345 1.215 0 1.92-.992 1.92-2.442 0-1.267-.666-2.351-1.881-2.351-.783 0-1.515.562-1.737 1.423a1.886 1.886 0 0 0-.078.471v1.083zm6.934-.378c.026 1.555 1.019 2.194 2.168 2.194.823 0 1.319-.144 1.75-.326l.196.823c-.405.183-1.098.392-2.104.392-1.945 0-3.108-1.28-3.108-3.188s1.124-3.409 2.965-3.409c2.064 0 2.612 1.816 2.612 2.979 0 .235-.025.418-.039.535h-4.44zm3.371-.823c.013-.731-.301-1.868-1.594-1.868-1.163 0-1.672 1.071-1.764 1.868h3.358zm8.252.562c0 2.338-1.62 3.356-3.148 3.356-1.711 0-3.03-1.254-3.03-3.252 0-2.116 1.385-3.357 3.135-3.357 1.815 0 3.043 1.319 3.043 3.253zm-5.015.065c0 1.384.796 2.429 1.92 2.429 1.097 0 1.92-1.031 1.92-2.455 0-1.071-.536-2.43-1.894-2.43-1.359 0-1.946 1.254-1.946 2.456zm6.464-1.11c0-.81-.025-1.463-.052-2.063h1.032l.052 1.084h.026c.47-.771 1.215-1.229 2.246-1.229 1.528 0 2.678 1.293 2.678 3.214 0 2.272-1.385 3.396-2.873 3.396-.836 0-1.567-.365-1.946-.992h-.026v3.435h-1.137v-6.845zm1.136 1.684c0 .17.026.326.053.471.209.797.9 1.345 1.724 1.345 1.215 0 1.92-.992 1.92-2.442 0-1.267-.666-2.351-1.881-2.351-.783 0-1.515.562-1.737 1.423a1.886 1.886 0 0 0-.078.471v1.083zm6.293-6.7h1.149v9.273h-1.149v-9.273zm3.723 6.322c.025 1.555 1.019 2.194 2.168 2.194.823 0 1.319-.144 1.75-.326l.196.823c-.405.183-1.098.392-2.103.392-1.946 0-3.109-1.28-3.109-3.188s1.123-3.409 2.965-3.409c2.064 0 2.612 1.816 2.612 2.979 0 .235-.025.418-.039.535h-4.44zm3.369-.823c.014-.731-.3-1.868-1.593-1.868-1.163 0-1.672 1.071-1.764 1.868h3.357zm6.687-4.363v1.816h1.646v.875h-1.646v3.408c0 .784.222 1.229.862 1.229.301 0 .522-.039.666-.078l.053.861c-.223.092-.575.157-1.02.157-.535 0-.967-.17-1.24-.483-.327-.34-.444-.901-.444-1.646V78.15h-.979v-.875h.979V75.76l1.123-.301zm2.937-1.136h1.149v3.944h.026c.183-.326.471-.614.823-.81.34-.196.744-.327 1.176-.327.849 0 2.207.522 2.207 2.704v3.762h-1.149v-3.631c0-1.019-.379-1.881-1.463-1.881-.745 0-1.332.522-1.541 1.149-.065.156-.079.326-.079.549v3.813h-1.149v-9.272zm8.528 1.175c.013.393-.274.706-.731.706-.404 0-.692-.313-.692-.706 0-.404.301-.718.719-.718.429 0 .704.314.704.718zm-1.281 8.099v-6.321h1.149v6.321h-1.149zm3.057-4.611c0-.653-.013-1.189-.052-1.711h1.019l.065 1.045h.026c.313-.602 1.045-1.189 2.09-1.189.875 0 2.233.522 2.233 2.691v3.774h-1.149v-3.645c0-1.019-.379-1.867-1.463-1.867-.758 0-1.346.535-1.541 1.175a1.64 1.64 0 0 0-.079.536v3.801h-1.149v-4.61zm8.384 1.189h.026c.156-.223.379-.497.562-.719l1.854-2.181h1.385l-2.442 2.599 2.782 3.723h-1.398l-2.181-3.03-.588.653v2.377h-1.137v-9.273h1.137v5.851zm-117.837 12.77l.836 3.214c.183.705.353 1.358.47 2.011h.039c.144-.64.353-1.318.562-1.998l1.032-3.227h.966l.98 3.161c.235.758.418 1.424.562 2.063h.039c.104-.64.274-1.306.483-2.05l.901-3.175h1.136l-2.038 6.322h-1.045l-.967-3.018a21.154 21.154 0 0 1-.562-2.076h-.026c-.156.758-.353 1.41-.574 2.09l-1.019 3.004h-1.045l-1.907-6.322h1.177zm9.664 3.37c.026 1.555 1.019 2.194 2.168 2.194.823 0 1.319-.144 1.75-.326l.196.822c-.405.184-1.097.393-2.103.393-1.946 0-3.108-1.28-3.108-3.188 0-1.906 1.123-3.409 2.965-3.409 2.063 0 2.612 1.815 2.612 2.979 0 .235-.026.418-.039.535h-4.441zm3.37-.822c.013-.731-.3-1.868-1.594-1.868-1.162 0-1.672 1.071-1.763 1.868h3.357zm5.145 2.599c.339.223.94.457 1.515.457.836 0 1.228-.418 1.228-.94 0-.548-.327-.849-1.175-1.162-1.137-.405-1.672-1.032-1.672-1.789 0-1.02.823-1.855 2.181-1.855.64 0 1.202.184 1.554.393l-.287.836a2.46 2.46 0 0 0-1.293-.366c-.68 0-1.058.392-1.058.862 0 .522.378.758 1.202 1.071 1.097.418 1.659.966 1.659 1.906 0 1.11-.862 1.895-2.364 1.895-.692 0-1.332-.17-1.776-.432l.286-.876zm5.327-8.098h1.149v3.944h.026c.183-.326.47-.614.823-.81a2.362 2.362 0 0 1 1.175-.327c.849 0 2.208.522 2.208 2.704v3.762h-1.149v-3.631c0-1.02-.379-1.881-1.463-1.881-.745 0-1.333.522-1.542 1.149-.065.156-.078.326-.078.548v3.814h-1.149v-9.272zm12.969 6.061c0 2.338-1.62 3.356-3.148 3.356-1.711 0-3.03-1.254-3.03-3.252 0-2.116 1.385-3.357 3.135-3.357 1.815 0 3.043 1.319 3.043 3.253zm-5.016.065c0 1.384.797 2.429 1.92 2.429 1.097 0 1.92-1.031 1.92-2.455 0-1.071-.536-2.43-1.894-2.43s-1.946 1.254-1.946 2.456zm11.755 1.423c0 .653.013 1.229.052 1.725h-1.019l-.065-1.032h-.026c-.3.51-.967 1.176-2.09 1.176-.993 0-2.181-.549-2.181-2.769v-3.697h1.149v3.501c0 1.202.365 2.012 1.41 2.012.771 0 1.307-.536 1.516-1.045a1.69 1.69 0 0 0 .104-.588v-3.88h1.149v4.597zm1.905-7.549h1.149v9.273h-1.149v-9.273zm8.541 0v7.641c0 .562.014 1.202.053 1.633h-1.032l-.052-1.098h-.026c-.353.706-1.124 1.241-2.155 1.241-1.528 0-2.704-1.293-2.704-3.213-.013-2.103 1.293-3.396 2.835-3.396.966 0 1.619.458 1.906.967h.026v-3.774h1.149zm-1.149 5.525c0-.144-.013-.339-.052-.483-.17-.73-.797-1.332-1.659-1.332-1.188 0-1.894 1.045-1.894 2.442 0 1.28.627 2.339 1.867 2.339.771 0 1.477-.51 1.686-1.372.039-.156.052-.313.052-.496v-1.098zm11.27-2.574a27.85 27.85 0 0 0-.053 1.737v3.671c0 1.449-.287 2.338-.901 2.887-.613.574-1.502.757-2.299.757-.757 0-1.593-.183-2.103-.522l.287-.875c.418.262 1.071.496 1.855.496 1.175 0 2.037-.613 2.037-2.207v-.705h-.026c-.353.588-1.031 1.058-2.011 1.058-1.568 0-2.691-1.332-2.691-3.082 0-2.143 1.397-3.357 2.848-3.357 1.098 0 1.698.575 1.973 1.098h.025l.053-.954h1.006zm-1.188 2.495c0-.196-.014-.365-.065-.522-.209-.666-.771-1.215-1.606-1.215-1.098 0-1.881.928-1.881 2.391 0 1.24.627 2.272 1.867 2.272.706 0 1.346-.444 1.594-1.176.065-.195.092-.418.092-.613V95.44zm8.762.615c0 2.338-1.62 3.356-3.148 3.356-1.711 0-3.03-1.254-3.03-3.252 0-2.116 1.385-3.357 3.135-3.357 1.815 0 3.043 1.319 3.043 3.253zm-5.015.065c0 1.384.797 2.429 1.92 2.429 1.097 0 1.92-1.031 1.92-2.455 0-1.071-.535-2.43-1.895-2.43-1.357 0-1.945 1.254-1.945 2.456zm10.617-4.99v1.815h1.646v.876h-1.646v3.409c0 .783.223 1.228.862 1.228.3 0 .522-.039.666-.079l.052.862c-.222.092-.574.157-1.019.157-.535 0-.966-.17-1.24-.483-.327-.34-.444-.901-.444-1.646v-3.448h-.979v-.876h.979V91.43l1.123-.3zm8.581 4.925c0 2.338-1.62 3.356-3.148 3.356-1.711 0-3.03-1.254-3.03-3.252 0-2.116 1.385-3.357 3.135-3.357 1.814 0 3.043 1.319 3.043 3.253zm-5.016.065c0 1.384.796 2.429 1.92 2.429 1.097 0 1.92-1.031 1.92-2.455 0-1.071-.536-2.43-1.894-2.43-1.359 0-1.946 1.254-1.946 2.456zm9.232-6.126h1.149v9.273h-1.149v-9.273zm8.372 7.549c0 .653.014 1.229.053 1.725h-1.019l-.065-1.032h-.026a2.38 2.38 0 0 1-2.09 1.176c-.993 0-2.182-.549-2.182-2.769v-3.697h1.149v3.501c0 1.202.366 2.012 1.411 2.012.771 0 1.306-.536 1.515-1.045a1.69 1.69 0 0 0 .104-.588v-3.88h1.149v4.597zm1.905-2.886c0-.653-.013-1.188-.052-1.712h1.019l.065 1.045h.026c.313-.601 1.045-1.188 2.09-1.188.875 0 2.233.522 2.233 2.691v3.774h-1.149v-3.645c0-1.019-.379-1.867-1.463-1.867-.758 0-1.346.535-1.541 1.176a1.63 1.63 0 0 0-.079.535v3.801h-1.149v-4.61zm11.755 4.375c-.301.157-.967.366-1.815.366-1.907 0-3.148-1.293-3.148-3.227 0-1.946 1.332-3.356 3.396-3.356.679 0 1.279.17 1.594.326l-.262.889c-.274-.157-.705-.301-1.332-.301-1.45 0-2.233 1.071-2.233 2.391 0 1.463.94 2.364 2.194 2.364.652 0 1.084-.17 1.41-.314l.196.862zm1.343-9.038h1.149v3.944h.026c.183-.326.471-.614.823-.81a2.362 2.362 0 0 1 1.175-.327c.85 0 2.208.522 2.208 2.704v3.762h-1.149v-3.631c0-1.02-.379-1.881-1.463-1.881-.744 0-1.332.522-1.541 1.149-.065.156-.079.326-.079.548v3.814h-1.149v-9.272zm8.136 6.778l-.026-.339c-.078-.706.157-1.477.81-2.26.588-.692.915-1.202.915-1.79 0-.666-.418-1.11-1.241-1.123-.471 0-.992.157-1.319.405l-.313-.823c.432-.313 1.176-.522 1.868-.522 1.502 0 2.181.928 2.181 1.92 0 .889-.496 1.528-1.123 2.273-.574.679-.783 1.254-.744 1.92l.013.339h-1.021zm-.287 1.83c0-.483.326-.823.783-.823s.771.34.771.823c0 .457-.3.81-.783.81-.457-.001-.771-.353-.771-.81z" fill="#44A587"/><path fill="none" stroke="#45A588" stroke-miterlimit="10" d="M280.289 89.604c0 8.276-5.96 14.988-13.311 14.988H150.821c-7.352 0-13.311-6.715-13.311-14.988v-4.038c0-8.279 5.959-14.99 13.311-14.99h116.158c7.351 0 13.311 6.711 13.311 14.99v4.038z"/><path fill="#45A588" d="M175.954 70.422a477.89 477.89 0 0 0-6.475-21.804c-1.114-3.448-3.612-16.132-7.979-17.372-.731-.208-1.04.926-.312 1.133 2.136.607 3.679 6.667 4.295 8.286 1.662 4.366 3.068 8.833 4.457 13.292a482.712 482.712 0 0 1 4.882 16.777c.197.73 1.332.421 1.132-.312zm-27.192-19.523c-3.859 9.029-8.502 18.4-10.646 28.009-.165.738.969 1.052 1.133.313 2.121-9.509 6.71-18.799 10.527-27.728.295-.689-.717-1.288-1.014-.594zM279.623 78.77c-2.714-6.038-27.085-59.414-30.994-56.632-.61.436-.026 1.455.594 1.015 1.874-1.333 26.91 50.704 29.387 56.211.309.688 1.322.09 1.013-.594zm-34.112-37.667c2.234 9.843 4.018 19.957 6.902 29.629.217.727 1.351.416 1.133-.311-2.885-9.675-4.665-19.789-6.902-29.632-.166-.738-1.298-.425-1.133.314z"/><path fill="#FFF" d="M150.659 23.457c-.916-1.369-.198-3.086-.955-4.513-.765-1.351-2.205-1.935-3.54-1.055-1.134.79-1.504 2.014-.646 3.144.962 1.26 2.476 1.431 3.838 2.007.517.213 1.033.424 1.421.813"/><path fill="#45A588" d="M151.503 22.962c-.521-.912-.37-1.982-.494-2.992-.123-.997-.549-1.808-1.242-2.524-1.314-1.362-3.222-1.087-4.586-.025-1.557 1.211-1.264 3.237-.125 4.574 1.296 1.524 3.59 1.306 5.028 2.549.95.823 2.342-.558 1.385-1.385-.816-.706-1.801-1.073-2.812-1.418-.992-.34-3.502-1.23-2.34-2.691 1.131-1.422 2.613-.061 2.778 1.273.161 1.292.047 2.45.719 3.626.625 1.098 2.318.112 1.689-.987z"/><path fill="#FFF" d="M237.055 20.187c-1.552-1.014-1.567-3.114-2.98-4.259-1.389-1.062-3.143-1.035-4.137.468-.828 1.321-.673 2.75.717 3.544 1.554.882 3.198.392 4.867.388.632-.008 1.259-.017 1.83.215"/><path fill="#45A588" d="M237.55 19.341c-.869-.651-1.204-1.815-1.692-2.739-.459-.866-1.154-1.499-2.01-1.958-1.778-.952-3.612-.239-4.757 1.259-1.075 1.409-.757 3.671.719 4.653 2.331 1.551 4.82.189 7.282.934 1.211.366 1.727-1.525.521-1.89-1.33-.402-2.714-.226-4.079-.132-1.006.072-2.04-.002-2.826-.71-.757-.684-.021-1.931.595-2.371 1.389-1 2.693.83 3.202 1.874.542 1.114 1.052 2.019 2.055 2.772 1.011.76 1.986-.943.99-1.692z"/><path fill="#FFF" d="M164.135 24.142c.722-1.479 2.567-1.721 3.42-3.094.783-1.34.565-2.878-.868-3.59-1.255-.583-2.497-.289-3.043 1.021-.604 1.465.009 2.86.196 4.328.077.555.153 1.107.013 1.638"/><path fill="#45A588" d="M164.98 24.636c.907-1.568 2.992-1.845 3.694-3.667.561-1.457.302-3.309-1.16-4.163-1.382-.806-3.272-.904-4.311.514-1.661 2.267.111 4.46-.295 6.865-.209 1.234 1.678 1.764 1.888.52.18-1.066.023-2.073-.183-3.127-.154-.792-.324-1.54-.186-2.354.201-1.187 1.361-1.307 2.181-.656 1.272 1.012-.307 2.499-1.158 3.043-.872.56-1.636 1.122-2.164 2.035-.63 1.097 1.062 2.082 1.694.99z"/><path fill="#FFF" d="M247.341 15.211c.814-1.668 2.895-1.942 3.855-3.489.883-1.511.636-3.244-.978-4.045-1.415-.658-2.815-.325-3.431 1.152-.68 1.652.01 3.223.221 4.876.086.625.173 1.247.015 1.845"/><path fill="#45A588" d="M248.187 15.706c1.018-1.759 3.369-2.075 4.151-4.104.613-1.59.354-3.616-1.25-4.55-1.493-.872-3.56-1.008-4.688.533-1.854 2.529.134 5.015-.321 7.707-.208 1.234 1.679 1.764 1.889.52.198-1.178.02-2.295-.206-3.458-.18-.916-.367-1.775-.208-2.715.245-1.444 1.679-1.582 2.666-.794 1.507 1.199-.307 2.967-1.329 3.623-.967.62-1.811 1.24-2.395 2.25-.634 1.094 1.058 2.08 1.691.988z"/></svg>