<svg xmlns="http://www.w3.org/2000/svg" width="420" height="111"><path fill="#FFF" d="M.155 66.175H420v45H.155z"/><path fill="#FFF" d="M218.046 64.661l8.067 21.152-5.595 5.248-21.3 9.785-7.718-21.512 7.873-8.589z"/><path fill="#45A588" d="M189.981 79.122c3.478 6.604 5.031 14.058 7.98 20.894.513 1.19 2.247.161 1.738-1.019-2.951-6.84-4.497-14.274-7.979-20.894-.604-1.147-2.342-.128-1.739 1.019z"/><path fill="#45A588" d="M199.218 100.846c7.711-.594 14.499-4.932 21.513-7.795 1.188-.482.666-2.434-.532-1.939-6.813 2.775-13.499 7.145-20.979 7.723-1.288.097-1.298 2.11-.002 2.011z"/><path fill="#45A588" d="M221.704 91.091c-2.679-6.798-5.205-13.637-7.5-20.571-.406-1.228-2.353-.701-1.942.533 2.295 6.938 4.824 13.774 7.499 20.571.469 1.194 2.419.677 1.943-.533z"/><path fill="#45A588" d="M212.626 69.369c-5.96 5.111-14.237 5.678-21.355 8.334-1.205.449-.685 2.396.534 1.943 7.515-2.805 15.952-3.455 22.245-8.856.988-.845-.445-2.263-1.424-1.421z"/><path fill="#45A588" d="M214.227 70.393c1.525-1.959 3.272-3.729 4.797-5.688.791-1.01-.625-2.446-1.424-1.426-1.523 1.957-3.272 3.729-4.798 5.691-.786 1.01.628 2.448 1.425 1.423zm7.712 22.091c2.093-1.672 3.658-4.026 4.943-6.344.633-1.14-1.105-2.154-1.74-1.019-1.213 2.188-2.656 4.356-4.625 5.938-1.016.814.419 2.23 1.422 1.425z"/><path fill="#45A588" d="M217.469 64.581c2.67 6.785 5.292 13.584 7.292 20.601.356 1.25 2.3.717 1.94-.531-1.995-7.021-4.617-13.817-7.289-20.603-.473-1.194-2.42-.677-1.943.533z"/><path fill="#45A588" d="M217.512 62.719c-6.215 2.448-12.431 4.9-18.645 7.35-1.194.475-.675 2.422.534 1.942 6.216-2.45 12.43-4.896 18.645-7.35 1.195-.472.675-2.417-.534-1.942z"/><path fill="#45A588" d="M191.563 79.325c2.501-2.521 5.206-4.828 7.708-7.349.916-.925-.507-2.349-1.424-1.427-2.501 2.521-5.206 4.827-7.709 7.351-.914.923.509 2.349 1.425 1.425z"/><path fill="#D5E4E9" d="M207.891 93.4c-2.921-1.508-10.205-3.959-10.529-8.153-.438-4.483 5.659-5.89 7.824-2.085-.088-5.286 6.237-6.117 7.589-.996 1.073 3.566-2.06 9.122-4.884 11.234"/><path fill="#46AA8D" d="M208.399 92.531c-2.751-1.369-5.67-2.426-8.102-4.354-1.49-1.182-2.496-2.948-1.572-4.825 1.165-2.369 4.457-1.377 5.589.315.558.833 1.835.519 1.877-.509.196-4.793 5.428-3.932 5.79.422.28 3.338-2.354 7.104-4.804 9.104-1.005.821.427 2.237 1.426 1.426 4.057-3.316 7.573-10.32 3.65-14.947-3.291-3.887-7.916.141-8.073 3.998.624-.168 1.25-.34 1.874-.51-2.331-3.489-8.963-3.777-9.632 1.283-.786 5.957 6.803 8.264 10.962 10.332 1.157.582 2.177-1.157 1.015-1.735z"/><path fill="#FFF" d="M268.329 30.526c-9.749 3.08-1.539 16.933 7.696 11.802 10.777-5.645 1.539-15.394-7.696-11.802"/><path fill="#45A588" d="M268.063 29.554c-4.072 1.417-6.332 5.209-4.443 9.357 1.872 4.118 6.253 6.294 10.646 5.227 4.256-1.036 9.36-5.675 7.06-10.41-2.359-4.841-8.615-5.84-13.263-4.174-1.213.436-.691 2.381.535 1.942 3.539-1.269 7.611-.915 10.233 2.008 3.216 3.583-1.453 7.349-4.603 8.537-6.666 2.518-13.574-7.783-5.633-10.544 1.221-.425.697-2.37-.532-1.943z"/><path fill="#FFF" d="M287.375 24.448c-.723-2.647 2.404-5.776 4.57-4.091 4.093 3.126-2.405 8.181-4.57 4.091"/><path fill="#45A588" d="M288.346 24.18c-.304-1.29.557-2.786 1.809-3.218 1.131-.391 2.154.892 2.104 1.929-.042.819-.896 1.595-1.599 1.886-1.015.419-1.88.11-2.413-.837-.639-1.131-2.379-.117-1.738 1.017.991 1.76 2.949 2.482 4.831 1.704 1.67-.691 3.065-2.333 2.929-4.222-.166-2.247-2.459-4-4.646-3.417-2.355.629-3.744 3.422-3.217 5.694.292 1.263 2.235.726 1.94-.536z"/><path fill="#FFF" d="M127.918 57.54c3.188-4.363 9.397 3.522 4.363 5.873-3.692 1.678-7.719-2.852-4.363-5.873"/><path fill="#45A588" d="M128.63 58.252c1.841-2.377 4.673.359 4.531 2.686-.104 1.694-2.406 2.03-3.643 1.617-2.012-.673-2.298-2.941-.888-4.303.936-.902-.49-2.325-1.424-1.425-2.313 2.233-1.818 5.503.817 7.218 2.269 1.479 5.848.643 6.887-1.945 1.705-4.257-4.481-9.435-7.704-5.271-.785 1.013.63 2.448 1.424 1.423z"/><path fill="#FFF" d="M197.01 35.672c-.452 2.753-1.485 4.234-.301 7.676 3.363 9.768 7.713 12.108-2.728 25.304-4.711 5.953-.674 10.854-2.898 11.852-1.333.598-2.338-1.363-2.338-1.363-1.016-1.703-1.642-2.017-1.727-3.888-.252-5.603 7.007-12.01 9.245-16.721 3.4-7.638-6.739-13.116-3.518-22.903"/><path fill="#44A98D" d="M196.039 35.405c-1.395 6.672 1.018 10.617 3.03 16.896 2.923 9.126-8.155 14.771-8.509 23.412.016-.38.25 4.792-.945 2.919-2.384-3.743-.71-7.506 1.408-10.771 2.276-3.512 5.313-6.45 6.696-10.469.799-2.314-.115-5.02-.953-7.148-1.972-5.016-4.492-8.67-3.049-14.346.319-1.259-1.621-1.792-1.941-.535-.911 3.583-.796 6.868.695 10.309 1.111 2.564 2.451 5.02 3.255 7.704 1.203 4.013-1.975 7.429-4.162 10.34-2.263 3.017-6.264 7.595-5.515 11.806.294 1.658 1.688 5.746 3.837 5.902 1.463.104 2.977-.253 2.925-2.134-.108-3.944-.321-6.511 2.041-10.132 1.874-2.874 3.97-5.37 5.458-8.495 1.373-2.886 1.457-5.855.702-8.898-1.444-5.806-4.372-9.405-3.031-15.828.264-1.265-1.677-1.803-1.942-.532z"/><path fill="#FFF" d="M200.919 40.241c-4.027 9.683 11.968 14.795 6.514 24.829-2.684 4.437-6.93 7.445-2.589 12.794 2.485 2.407 7.984 2.702 8.076 9.116 5.766 4.996 4.155-4.277.607-7.935-4.793-4.103-8.369-2.589-4.976-8.712 2.86-5.236 6.917-9.854 3.046-16.251-3.822-6.323-8.612-6.172-8.588-13.729"/><path fill="#44A98D" d="M199.949 39.974c-1.238 3.729-.389 6.712 1.655 9.983 4.073 6.516 8.339 10.025 2.812 17.725-2.729 3.803-3.543 8.271.543 11.563 3.208 2.583 6.389 2.28 6.954 7.735.123 1.19 1.733 1.795 2.655 2.231 1.729.826 3.264-.762 3.162-2.479-.234-4.043-2.069-7.316-5.238-9.733-2.079-1.585-5.313-1.636-3.07-6.156.868-1.75 1.979-3.411 2.924-5.12 1.338-2.42 1.856-4.879 1.768-7.611-.244-7.582-9.603-10.11-10.095-17.756-.085-1.289-2.097-1.297-2.014 0 .251 3.888 1.384 6.345 4.203 9.052 3.441 3.307 6.63 6.504 5.688 12.092-.588 3.489-3.539 6.971-5.089 10.104-.947 1.905-.726 3.512.848 4.85 2.351 1.998 4.578 2.16 6.488 5.117 1.188 1.84 1.108 8.228-.43 3.394-.973-3.06-2.755-4.629-5.532-6.151-9.171-5.008.592-11.063 1.25-16.36 1.071-8.627-10.386-13.345-7.534-21.94.404-1.241-1.543-1.767-1.948-.54z"/><path fill="#FFF" d="M205.995 40.635c.039 12.25 17.057 7.876 20.334 11.976 5.938 7.221-6.621 13.206.655 19.476-.68 6.144-6.233-1.538-5.523-6.313.922-6.235 6.242-8.535-1.845-10.691-5.597-1.26-8.196.434-13.935-4.779-2.674-2.43-2.859-4.618-4.094-8.091"/><path fill="#44A98D" d="M204.988 40.635c.415 6.827 5.185 9.254 11.384 10.32 4.45.766 11.392.341 10.474 7.15-.475 3.504-3.063 6.182-3.199 9.824-.053 1.368.705 2.553 1.437 3.619.465.508.071.503-1.181-.015-1.416-2.058-1.68-4.497-1.189-6.868.521-2.525 2.986-5.03 2.049-7.716-.779-2.234-4.854-2.944-6.742-3.179-8.214-1.026-12.723-3.625-15.461-11.832-.41-1.226-2.354-.699-1.941.535 1.817 5.442 3.733 9.012 9.037 11.786 4.37 2.284 15.503-.338 12.059 7.262-1.764 3.889-1.511 7.303.448 11.025.774 1.477 3.108 3.977 4.842 2.242.642-.641 1.192-2.102.953-2.977-.265-.957-2.384-3.664-2.162-3.119-.665-1.642.581-4.063 1.229-5.485 1.574-3.444 2.603-6.317.996-9.917-3.892-8.728-20.224.469-21.019-12.663-.079-1.282-2.093-1.29-2.014.008z"/><path fill="#FFF" d="M213.751 38.236c-2.963-10.349.397-15.206-3.589-20.641-5.054-6.684-16.965-7.519-23.997-5.405-17.533 5.464-2.107 22.048-1.248 33.168 2.225-.173 4.538-1.498 6.407-1.583 3.022.009 4.174 1.61 7.377.82 2.848-.703 3.334-4.053 6.628-4.486 3.293-.435 10.775 3.658 8.422-1.873z"/><path fill="#44A98D" d="M214.725 37.969c-2.018-7.999.662-17.284-6.042-23.323-5.483-4.941-14.613-5.119-21.411-3.787-19.587 3.835-4.707 23.307-3.36 34.5.082.684.577 1.099 1.274.971 3.151-.58 5.474-1.946 8.852-1.062 1.686.442 2.886.565 4.666.335 3.92-.503 4.857-5.114 9.704-4.156 3.476.688 7.926 1.578 6.317-3.478-.395-1.232-2.34-.706-1.942.534.772 2.431-6.665.316-7.719.637-1.172.354-2.094.548-2.992 1.458-2.824 2.857-4.934 3.397-8.854 2.373-1.373-.36-7.446 1.025-7.47.909-.822-4.201-2.575-8.093-4.184-12.038-1.585-3.887-3.247-8.104-2.487-12.363 1.2-6.724 11.192-7.412 16.445-7.263 7.264.208 15.004 3.781 15.754 11.741.473 4.983.27 9.629 1.507 14.548.315 1.258 2.257.724 1.942-.536z"/></svg>