<svg xmlns="http://www.w3.org/2000/svg" width="500" height="31.167"><path fill="#FFF" d="M233.006 16.372c5.379-13.783 20.508-10.705 29.249-2.705h-.336c.336-2 1.345-4.69 3.697-5.699 2.018 3.361 2.354 10.43 1.345 14.127-1.681-.335-3.024-1.34-4.033-3.021l-.673-1.007c-6.725 7.06-22.525 9.069-28.577.329l-.672-2.024z"/><path fill="#45A588" d="M233.653 16.767c5.429-12.632 19.265-10.011 28.071-2.538l.53-1.28c.378 0 3.369-3.171 3.509-2.81.57 1.485.749 3.229.91 4.778.134 1.293.086 2.598.036 3.893-.17 4.408-2.528.799-3.808-1.119-.269-.402-.816-.504-1.178-.151-6.557 6.404-24.212 10.003-27.996-1.351-.304-.913-1.753-.521-1.446.398 2.299 6.9 10.019 8.748 16.621 8.232 4.026-.314 7.925-1.813 11.279-4.014 2.005-1.316 1.3-2.453 2.917-.215.901 1.249 2.262 1.793 3.662 2.235.376.118.835-.136.923-.524 1.078-4.767.84-10.3-1.421-14.697-.185-.359-.69-.471-1.026-.269-2.494 1.501-3.459 3.324-4.042 6.163-.097.473.212.949.724.949h.336c.615 0 1.046-.844.53-1.28-9.523-8.081-24.611-10.691-30.427 2.841-.377.88.915 1.644 1.296.759zm-39.289 1.05c3.688-4.228 10.546-1.83 14.887-.005 3.016 1.269 5.127.001 7.446-1.995.734-.632-.332-1.688-1.061-1.061-2.906 2.501-4.576 2.189-7.735.88-1.662-.689-3.512-1.194-5.302-1.396-3.414-.386-6.904-.226-9.295 2.517-.633.725.424 1.791 1.06 1.06zm90 0c3.687-4.229 10.546-1.83 14.887-.005 3.017 1.269 5.127.001 7.445-1.995.734-.632-.332-1.688-1.061-1.061-2.906 2.502-4.575 2.189-7.734.88-1.662-.689-3.512-1.194-5.303-1.396-3.413-.386-6.904-.226-9.295 2.517-.632.725.425 1.791 1.061 1.06z"/></svg>