<svg xmlns="http://www.w3.org/2000/svg" width="500" height="132.143"><path fill="#FFF" d="M0 87.143h500v45H0z"/><path fill="#45A588" d="M269.844 128.765l-2.708-11.157 4.985 5.58.752-6.696.954 6.136 3.984-5.178-2.707 11.315z"/><path fill="#FFF" d="M201.318 87.286c-11.733-15.318-27.083-5.512-33.527 7.429l.374-.121c-1.357-2.83-3.461-5.413-6.491-5.812-.828 4.969 1.759 13.96 4.426 18.229 1.719-1.045 2.788-2.812 3.201-5.296l.322-1.515c10.406 6.382 28.756 3.081 31.797-10.139l-.102-2.775z"/><path fill="#45A588" d="M201.848 86.756c-4.872-5.993-11.177-9.409-18.919-7.261-7.125 1.978-12.509 8.569-15.786 14.841-.289.553.187 1.313.847 1.103l.374-.121c.474-.149.681-.657.448-1.103-1.593-3.024-3.512-5.331-6.939-6.156-.514-.123-.893.235-.949.728-.727 6.27 1.397 13.22 4.528 18.608.188.323.699.518 1.026.271 1.633-1.227 2.476-2.445 3.219-4.34.266-.682.403-1.769.564-2.526-.224 1.053 1.26 1.288 2.085 1.595 4.519 1.685 9.134 2.018 13.889 1.313 8.362-1.239 16.157-7.543 15.832-16.415-.035-.964-1.536-.971-1.5 0 .556 15.16-20.167 18.231-30.567 12.271-.401-.229-1-.032-1.102.448-.187.881-2.032 6.837-2.683 5.716-1.269-2.185-2.028-4.672-2.735-7.082-.732-2.496-1.121-5.081-1.214-7.676-.125-3.521 4.983 3.139 5.325 3.027.282.363.564.731.847 1.103 2.959-5.659 7.092-10.476 12.863-13.368 7.495-3.756 14.663.157 19.486 6.093.611.742 1.666-.326 1.061-1.069z"/><path fill="#FFF" d="M274.145 127.635V52.232h6.707v75.403"/><path fill="#45A588" d="M274.895 127.635V52.301c0 .49-1.219.682-.166.682h4.899c1.626 0 .476.172.476-.682v75.334c0 .968 1.5.968 1.5 0V52.233a.76.76 0 0 0-.75-.75h-6.709a.76.76 0 0 0-.75.75v75.402c0 .968 1.5.968 1.5 0zm28.912-111.097c14.275.505 14.447 23.67 14.002 33.896-.045 1 1.123-.288.354-.288h-30.229c-.971 0-.971 1.5 0 1.5h30.602c.428 0 .727-.342.75-.75.684-11.2.059-35.31-15.479-35.854-.969-.038-.966 1.462 0 1.496z"/><path fill="#D4E3E8" d="M289.334 51.367c.234 5.65 4.005 14.375 6.833 18.851 3.533 5.655 9.425 7.539 15.787 7.068 6.125-.473 10.604-4.004 10.604-10.366 0-5.421-2.142-11.075-4.021-16.023"/><path fill="#45A588" d="M288.584 51.367c.938 11.819 7.479 25.676 20.475 26.714 5.215.416 10.449-1.365 13.116-6.027 3.534-6.18-.704-15.518-2.918-21.354-.34-.896-1.79-.512-1.446.396 1.955 5.156 3.787 10.254 3.998 15.824.275 7.303-6.688 9.751-12.75 9.661-11.942-.181-18.16-14.938-18.975-25.214-.076-.958-1.576-.965-1.5 0z"/><path fill="#FFF" stroke="#46AA8D" stroke-width=".3" stroke-linecap="round" stroke-linejoin="round" stroke-miterlimit="10" d="M301.631 34.063l3.103 18.869 33.748-5.294-3.451-19.218z"/><path fill="#FFF" d="M301.631 34.063c.949 5.978 2.141 12.529 3.096 18.505"/><path fill="#46AA8D" d="M301.197 34.183c.99 6.176 2.098 12.331 3.095 18.506.092.571.959.328.867-.236-.996-6.178-2.103-12.329-3.095-18.508-.091-.573-.959-.33-.867.238z"/><path fill="#FFF" d="M304.784 52.928c11.204-1.32 20.432-3.495 33.698-5.29"/><path fill="#46AA8D" d="M304.784 53.378c11.329-1.387 22.513-3.74 33.813-5.311.573-.075.328-.942-.234-.863-11.229 1.555-22.329 3.896-33.579 5.271-.568.072-.575.973 0 .903z"/><path fill="#FFF" d="M338.34 46.827c-.902-6.355-2.479-12.042-3.046-17.894"/><path fill="#46AA8D" d="M338.773 46.708c-.896-5.945-2.383-11.789-3.029-17.771-.063-.566-.963-.576-.9 0 .658 6.063 2.157 11.984 3.063 18.009.085.574.952.329.866-.238z"/><path fill="#FFF" d="M335.031 28.42c-5.979-.041-11.237 1.604-17.231 2.563-5.251.846-11.159 1.042-16.266 2.786"/><path fill="#46AA8D" d="M335.031 27.97c-5.307.108-10.383 1.284-15.573 2.274-6.03 1.146-12.144 1.271-18.044 3.091-.553.17-.316 1.039.24.867 4.799-1.479 9.729-1.82 14.672-2.555 6.255-.924 12.35-2.648 18.705-2.777.578-.012.58-.912 0-.9zm-11.886 16.374c2.971-.602 5.969-1.013 8.953-1.502.571-.094.328-.961-.236-.867-2.986.489-5.985.899-8.953 1.502-.573.115-.332.982.236.867zm-.543-2.598c2.987-.243 5.975-.537 8.914-1.122.568-.112.327-.98-.236-.867-2.864.568-5.77.853-8.678 1.089-.575.047-.581.947 0 .9z"/><path fill="#D2E2E7" d="M325.79 32.337c.542 1.454.319 3.263.953 4.573 1.522-.194 3.521-.437 4.972-.979-.146-1.294-.322-3.077-.701-4.322-1.664.108-3.558.637-5.224.728"/><path fill="#46AA8D" d="M325.355 32.456c.504 1.534.36 3.182.996 4.682.058.127.254.24.392.223 1.716-.219 3.45-.417 5.091-.989.175-.063.354-.229.331-.438-.17-1.489-.313-2.994-.72-4.438-.053-.185-.234-.35-.437-.33-1.755.143-3.467.598-5.223.726-.575.042-.579.942 0 .9 1.757-.129 3.468-.583 5.223-.729-.146-.106-.289-.221-.434-.33.386 1.371.521 2.79.686 4.202.11-.145.224-.289.331-.434-1.459.512-2.99.722-4.52.918-.184.021-.703-3.748-.854-4.2-.173-.55-1.042-.316-.862.237zm-1.544 14.499c1.188-.287 2.412-.148 3.584-.507.558-.173.317-1.037-.234-.867-1.169.354-2.401.219-3.586.507-.568.137-.329 1.005.236.867z"/><path fill="#FFF" stroke="#46AA8D" stroke-width=".3" stroke-linecap="round" stroke-linejoin="round" stroke-miterlimit="10" d="M301.284 30.661l-16.763 9.202 16.209 30.07 16.98-9.645z"/><path fill="#FFF" d="M301.284 30.661c-5.315 2.883-11.104 6.184-16.421 9.068"/><path fill="#46AA8D" d="M301.057 30.272c-5.492 2.989-10.93 6.079-16.42 9.072-.51.278-.056 1.055.454.777 5.49-2.993 10.929-6.083 16.421-9.072.509-.277.054-1.054-.455-.777z"/><path fill="#FFF" d="M284.54 39.909c4.97 10.128 10.097 18.104 16.19 30.021"/><path fill="#46AA8D" d="M284.15 40.137c5.058 10.188 10.979 19.914 16.188 30.023.27.516 1.043.061.777-.455-5.215-10.108-11.137-19.834-16.19-30.023-.254-.52-1.03-.064-.775.455z"/><path fill="#FFF" d="M301.451 69.526c5.691-2.962 10.529-6.34 15.863-8.814"/><path fill="#46AA8D" d="M301.68 69.915c5.353-2.831 10.396-6.208 15.862-8.818.522-.25.065-1.026-.455-.777-5.467 2.611-10.513 5.987-15.862 8.818-.514.271-.059 1.049.455.777z"/><path fill="#FFF" d="M317.71 60.288c-1.821-5.272-5.435-10.402-8.146-15.399-2.535-4.668-4.69-10.179-8.03-14.413"/><path fill="#46AA8D" d="M318.145 60.169c-1.883-4.97-4.695-9.424-7.353-14.004-3.06-5.279-5.216-10.985-8.869-15.917-.342-.46-1.123-.017-.776.455 2.981 4.021 5.033 8.536 7.279 12.985 2.854 5.653 6.594 10.762 8.854 16.719.199.538 1.07.305.865-.238z"/><path fill="#FFF" d="M316.555 60.08c-1.222-.904-6.412-2.887-7.754-3.619-3.127-1.536-6.222-3.497-9.195-5.322"/><path fill="#46AA8D" d="M316.781 59.691c-2.106-1.37-4.604-2.181-6.893-3.195-3.521-1.569-6.783-3.729-10.061-5.742-.496-.309-.948.474-.455.773 3.287 2.021 6.563 4.106 10.063 5.742 2.274 1.063 4.771 1.823 6.89 3.199.489.318.941-.461.456-.777z"/><path fill="#FFF" d="M299.604 51.139c.097-3.285-.033-6.978.271-10.271.175-3.325 1.308-6.442 1.479-9.77"/><path fill="#46AA8D" d="M300.055 51.139c.067-3.427.021-6.85.271-10.271.235-3.294 1.183-6.479 1.478-9.77.055-.578-.849-.573-.896 0-.295 3.292-1.18 6.479-1.479 9.77-.309 3.407-.198 6.85-.269 10.271-.017.581.883.58.895 0z"/><path fill="#FFF" d="M303.55 54.367c-.442 2.848-.7 4.279-1.268 6.891-.386 1.979-.875 5.58-1.138 7.599"/><path fill="#46AA8D" d="M303.116 54.247c-.769 4.884-1.777 9.704-2.423 14.605-.074.574.826.567.897 0 .638-4.826 1.638-9.563 2.392-14.369.091-.564-.776-.807-.866-.236z"/><path fill="#FFF" d="M299.111 45.038c-2.146-.297-4.549-1.281-6.506-2.201-2.041-.88-5.217-1.524-7.188-2.648"/><path fill="#46AA8D" d="M299.232 44.604c-2.326-.401-4.33-1.33-6.506-2.201-2.338-.936-4.834-1.438-7.078-2.604-.519-.267-.974.51-.455.777 1.89.979 3.938 1.523 5.951 2.188 2.676.878 5.028 2.216 7.848 2.706.569.101.811-.766.24-.866z"/><path fill="#FFF" stroke="#46AA8D" stroke-width=".3" stroke-linecap="round" stroke-linejoin="round" stroke-miterlimit="10" d="M288.996 18.118l1.449 19.069 34.08-2.329-1.761-19.449z"/><path fill="#FFF" d="M288.996 18.118c.43 6.03 1.043 12.669 1.473 18.705"/><path fill="#46AA8D" d="M288.546 18.118c.454 6.234 1.019 12.467 1.474 18.705.041.571.941.575.899 0-.454-6.238-1.019-12.471-1.474-18.705-.041-.575-.941-.579-.899 0z"/><path fill="#FFF" d="M290.495 37.187c11.278-.337 20.659-1.702 34.03-2.328"/><path fill="#46AA8D" d="M290.495 37.637c11.368-.391 22.673-1.76 34.03-2.328.574-.029.58-.93 0-.896-11.357.564-22.662 1.938-34.03 2.324-.579.02-.581.919 0 .9z"/><path fill="#FFF" d="M324.456 34.035c-.343-6.406-1.421-12.212-1.472-18.092"/><path fill="#46AA8D" d="M324.906 34.035c-.373-6.041-1.35-12.031-1.475-18.092-.013-.575-.91-.577-.897 0 .125 6.061 1.1 12.051 1.472 18.092.036.576.935.58.9 0z"/><path fill="#FFF" d="M322.764 15.409c-5.553-.521-11.716.647-17.388 1.054-5.306.38-11.205.063-16.442 1.354"/><path fill="#46AA8D" d="M322.764 14.959c-5.838-.375-11.584.575-17.388 1.054-5.556.458-11.079.192-16.563 1.371-.563.121-.326.989.24.867 5.387-1.157 10.854-1.018 16.323-1.338 5.829-.35 11.522-1.435 17.388-1.058.579.041.575-.859 0-.896z"/><path fill="#FFF" d="M322.098 16.378c-1.328.738-5.271 4.646-6.498 5.563-2.688 2.211-5.761 4.225-8.649 6.177"/><path fill="#46AA8D" d="M321.869 15.99c-2.021 1.274-3.712 3.104-5.479 4.69-2.961 2.665-6.375 4.823-9.672 7.042-.479.322-.025 1.104.455.777 3.084-2.077 6.133-4.17 9.046-6.482 2.097-1.662 3.837-3.813 6.104-5.254.49-.306.038-1.085-.454-.773z"/><path fill="#FFF" d="M306.945 28.115c-2.948-1.443-6.365-2.854-9.237-4.485-2.956-1.536-5.328-3.854-8.285-5.388"/><path fill="#46AA8D" d="M307.174 27.726c-3.088-1.48-6.232-2.836-9.238-4.481-2.896-1.595-5.396-3.777-8.285-5.392-.508-.283-.961.494-.455.777 2.892 1.61 5.398 3.776 8.285 5.388 2.992 1.67 6.153 3.002 9.238 4.485.52.25.976-.525.455-.777z"/><path fill="#FFF" d="M311.52 25.858c2.407 1.579 3.613 2.41 5.748 4.005 1.646 1.166 4.728 3.104 6.451 4.176"/><path fill="#46AA8D" d="M311.291 26.247c4.098 2.691 8.029 5.589 12.2 8.177.495.307.946-.472.454-.777-4.17-2.588-8.104-5.479-12.199-8.177-.487-.321-.937.46-.455.777z"/><path fill="#FFF" d="M301.188 26.042c-1.151 1.83-3.045 3.606-4.688 5.012-1.645 1.498-3.547 4.12-5.381 5.447"/><path fill="#46AA8D" d="M300.798 25.814c-1.397 2.082-3.241 3.607-5.034 5.317-1.717 1.637-3.08 3.586-4.966 5.051-.458.356.185.988.638.637 1.873-1.457 3.313-3.359 4.965-5.051 1.791-1.83 3.729-3.347 5.179-5.499.318-.483-.461-.933-.782-.455z"/><path fill="#FFF" stroke="#46AA8D" stroke-width=".3" stroke-linecap="round" stroke-linejoin="round" stroke-miterlimit="10" d="M283.568 27.749l-6.682 17.916 31.915 12.177 6.554-18.394z"/><path fill="#FFF" d="M283.568 27.749c-2.146 5.657-4.368 11.937-6.508 17.597"/><path fill="#46AA8D" d="M283.136 27.63c-2.208 5.851-4.307 11.743-6.509 17.596-.205.545.665.777.867.24 2.203-5.854 4.301-11.746 6.509-17.598.206-.544-.665-.776-.867-.238z"/><path fill="#FFF" d="M276.93 45.687c10.381 4.421 19.471 7.118 31.871 12.155"/><path fill="#46AA8D" d="M276.811 46.12c10.484 4.406 21.32 7.905 31.871 12.151.539.221.771-.649.238-.863-10.55-4.246-21.386-7.746-31.871-12.155-.533-.226-.766.646-.238.867z"/><path fill="#FFF" d="M309.084 57.069c2.374-5.965 3.829-11.684 6.245-17.042"/><path fill="#46AA8D" d="M309.518 57.188c2.186-5.604 3.787-11.42 6.2-16.934.23-.526-.545-.985-.774-.455-2.443 5.587-4.079 11.473-6.289 17.15-.216.542.656.775.863.239z"/><path fill="#FFF" d="M315.355 39.448c-4.82-2.805-10.91-4.321-16.229-6.341-4.977-1.88-10.201-4.641-15.497-5.666"/><path fill="#46AA8D" d="M315.584 39.06c-4.247-2.313-8.804-3.771-13.371-5.317-6.221-2.107-12.027-5.262-18.461-6.729-.564-.129-.805.738-.238.867 5.407 1.235 10.358 3.646 15.496 5.666 5.397 2.123 10.993 3.496 16.119 6.292.51.276.964-.501.455-.779zm-18.461 8.299c2.874.953 5.682 2.088 8.516 3.146.545.203.778-.667.24-.867-2.836-1.058-5.643-2.193-8.516-3.146-.552-.183-.788.686-.24.867zm.82-2.522c2.713 1.271 5.445 2.501 8.291 3.45.552.185.783-.688.234-.867-2.771-.926-5.432-2.121-8.07-3.36-.521-.246-.978.531-.455.777z"/><path fill="#D2E2E7" d="M305.393 38.258c-.252 1.528-1.347 2.99-1.441 4.441 1.418.586 3.271 1.375 4.798 1.615.515-1.19 1.25-2.824 1.541-4.096-1.502-.733-3.407-1.212-4.898-1.96"/><path fill="#46AA8D" d="M304.959 38.138c-.331 1.582-1.266 2.944-1.462 4.563-.024.213.16.359.331.434 1.563.647 3.127 1.31 4.797 1.619.182.034.425-.014.509-.206.595-1.375 1.218-2.747 1.587-4.203.047-.183-.021-.423-.207-.509-1.594-.75-3.306-1.204-4.894-1.965-.521-.249-.978.522-.455.773 1.59.765 3.301 1.215 4.894 1.965-.064-.17-.138-.339-.203-.509-.354 1.383-.935 2.688-1.496 3.988l.51-.206c-1.671-.31-3.236-.973-4.803-1.619.111.146.225.289.332.438.188-1.521 1.115-2.828 1.432-4.321.114-.568-.754-.81-.872-.242zM296.4 49.957c1.172.336 2.166 1.069 3.363 1.343.563.128.805-.74.236-.867-1.189-.269-2.189-1.008-3.359-1.343-.559-.16-.796.708-.24.867z"/><path fill="#D2E2E7" d="M241.63 50.896s-1.414-35.104 15.55-35.104h47.127c-16.968 0-15.554 35.104-15.554 35.104H241.63z"/><path fill="#45A588" d="M242.38 50.896c-.458-12.192.804-34.354 16.88-34.354h45.047v-1.5c-9.021.314-12.77 9.127-14.576 16.768-1.039 4.392-1.469 8.939-1.676 13.438a86.31 86.31 0 0 0-.078 4.289c.01 1.891.104.611.531.611H241.63c-.967 0-.967 1.5 0 1.5h47.124c.396 0 .766-.341.75-.75-.393-10.438.484-33.853 14.803-34.354.965-.034.971-1.5 0-1.5h-46.881c-15.709 0-16.966 24.648-16.545 35.854.036.962 1.536.967 1.499-.002z"/><path fill="#FFF" d="M246.156 50.896c0-.002-1.412-35.104 15.55-35.104h3.382c-16.965 0-15.551 35.104-15.551 35.104h-3.381z"/><path fill="#45A588" d="M246.906 50.896c-.222-5.938.308-11.981 1.479-17.802.933-4.632 2.496-9.377 5.615-13.01 2.969-3.458 6.9-3.547 11.088-3.547v-1.5c-9.712.343-13.316 10.442-14.949 18.551-.856 4.253-1.21 8.616-1.347 12.945a75.554 75.554 0 0 0-.019 3.896c.019.95-.063-.288.513-.288h-3.13c-.967 0-.967 1.5 0 1.5h3.381c.397 0 .765-.341.75-.75-.392-10.438.484-33.853 14.801-34.354.964-.034.971-1.5 0-1.5-3.795 0-7.1.003-10.311 2.304-3.543 2.538-5.406 6.948-6.708 10.948-2.311 7.11-2.945 15.146-2.667 22.604.04.967 1.54.972 1.504.003z"/><path fill="#FFF" d="M280.85 50.896c0-.002-1.414-35.104 15.551-35.104h3.386c-16.97 0-15.558 35.104-15.558 35.104h-3.379z"/><path fill="#45A588" d="M281.6 50.896c-.223-5.938.311-11.981 1.479-17.802.935-4.632 2.496-9.377 5.614-13.01 2.971-3.459 6.902-3.547 11.091-3.547v-1.5c-9.714.343-13.318 10.442-14.95 18.551-.855 4.253-1.211 8.616-1.35 12.945a77.881 77.881 0 0 0-.021 3.896c.021.95-.063-.288.516-.288h-3.129c-.971 0-.971 1.5 0 1.5h3.379c.396 0 .768-.341.75-.75-.394-10.438.483-33.853 14.806-34.354.964-.034.97-1.5 0-1.5-3.796 0-7.103.003-10.313 2.304-3.541 2.538-5.406 6.948-6.705 10.948-2.312 7.11-2.943 15.146-2.666 22.604.034.967 1.534.972 1.499.003z"/><g fill="#45A588" stroke="#45A588" stroke-width=".5" stroke-miterlimit="10"><path d="M263.117 3.378h18.141v8.953h-18.141zm13.272 8.953h4.869v8.834h-4.869z"/><path d="M283.299 22.386c0 1.213-2.318 2.201-5.183 2.201-2.865 0-5.185-.988-5.185-2.201s2.317-2.199 5.185-2.199c2.864 0 5.183.986 5.183 2.199z"/></g><path fill="#45A588" d="M279.79 128.765l-3.856-15.885 7.099 7.942 1.071-9.529 1.36 8.733 5.672-7.373-3.859 16.112z"/></svg>