<svg xmlns="http://www.w3.org/2000/svg" width="500" height="153"><path fill="#FFF" d="M-.182 107.813h500v45h-500z"/><path fill="#D6E5EA" d="M218.308 74.364c4.116-.239 7.158-2.237 9.276-5.518l-.776-.806c-3.608-1.491-8.023-2.207-11.841-1.014"/><path fill="#44A98D" d="M218.308 75.614c4.453-.383 7.852-2.455 10.355-6.137.318-.467.175-1.13-.195-1.515-3.149-3.268-9.747-3.262-13.833-2.141-1.553.426-.893 2.838.665 2.411 3.188-.875 8.9-1.098 11.401 1.498l-.195-1.515c-1.974 2.902-4.685 4.597-8.197 4.899-1.595.137-1.608 2.638-.001 2.5z"/><path fill="#FFF" d="M213.89 71.352c-7.308 18.523-20.401 33.616-39.043 41.014-15.302 6.354-40.894 4.923-50.558-10.915l-.896-2.864c-10.231-44.472 65.619-58.225 88.646-29.8l1.851 2.565z"/><path fill="#44A98D" d="M212.684 71.02c-9.304 23.02-29.324 42.537-55.18 43.599-10.982.451-22.817-2.62-30.244-11.135-5.198-5.961-4.172-16.549-1.567-23.411 5.819-15.329 24.168-22.363 39.125-24.314 15.304-1.996 33.434.581 44.689 12.04 1.255 1.277 2.261 2.738 3.305 4.185.933 1.294 3.104.049 2.158-1.262-17.234-23.904-57.492-22.672-79.602-6.5-11.122 8.135-17.094 22.176-12.863 35.706 2.48 7.934 11.119 12.691 18.544 15.1 9.193 2.982 19.526 2.682 28.811.332 21.472-5.432 37.232-23.873 45.237-43.673.603-1.498-1.817-2.142-2.413-.667z"/><path fill="#44A98D" d="M135.917 72.202c5.341 2.006 10.72 4.134 15.108 7.88 1.219 1.041 2.996-.719 1.768-1.768-4.734-4.042-10.445-6.357-16.21-8.524-1.514-.567-2.161 1.85-.666 2.412z"/><path fill="#44A98D" d="M152.253 81.143l5.37 17.181c.479 1.532 2.893.878 2.411-.665l-5.37-17.182c-.479-1.534-2.893-.879-2.411.666z"/><path fill="#44A98D" d="M157.617 97.732c-4.003 3.934-7.302 8.504-11.305 12.438-1.151 1.131.617 2.898 1.768 1.768 4.003-3.934 7.302-8.504 11.305-12.438 1.151-1.132-.618-2.898-1.768-1.768zM155.5 78.785c2.104-6.087 6.629-11.339 11.744-15.152 1.276-.951.032-3.123-1.262-2.158-5.665 4.223-10.56 9.898-12.893 16.645-.528 1.528 1.888 2.179 2.411.665z"/><path fill="#44A98D" d="M167.861 64.618l14.586 6.442c1.46.645 2.734-1.508 1.262-2.158l-14.586-6.442c-1.46-.646-2.734 1.508-1.262 2.158zm-7.307 34.458c5.123 1.013 10.329 1.492 15.451 2.505 1.575.312 2.246-2.099.665-2.411-5.123-1.012-10.329-1.492-15.451-2.505-1.574-.311-2.245 2.099-.665 2.411z"/><path fill="#44A98D" d="M177.55 100.632c3.783-3.39 7.016-7.335 9.739-11.616.868-1.365-1.296-2.617-2.158-1.263-2.615 4.11-5.719 7.858-9.349 11.111-1.203 1.079.572 2.841 1.768 1.768z"/><path fill="#44A98D" d="M182.744 72.998c2.402 4.611 3.459 9.669 4.125 14.79.205 1.575 2.708 1.595 2.5 0-.725-5.578-1.85-11.027-4.467-16.052-.744-1.43-2.902-.166-2.158 1.262z"/><path fill="#44A98D" d="M187.936 89.471c2.697.652 5.398 1.301 8.023 2.206 1.528.527 2.179-1.888.665-2.411-2.625-.906-5.327-1.553-8.023-2.207-1.567-.379-2.231 2.031-.665 2.412zm-4.094-20.664c1.99-2.317 3.054-4.98 3.782-7.919.387-1.565-2.024-2.229-2.411-.665-.618 2.497-1.439 4.838-3.138 6.816-1.045 1.216.715 2.993 1.767 1.768zm-16.948-7.868l-1.492-4.772c-.48-1.533-2.894-.878-2.411.665l1.492 4.772c.479 1.533 2.893.878 2.411-.665zm34.343 4.184c1.8 4.066 4.205 8.594 3.245 13.175-.33 1.573 2.081 2.242 2.411.665 1.121-5.349-1.384-10.33-3.498-15.102-.651-1.472-2.805-.198-2.158 1.262z"/><path fill="#D6E5EA" d="M118.383 87.581c-7.159 2.237-14.556.358-21.059 1.343-4.295 1.342-14.884 9.366-13.869 14.288 1.163 5.399 13.93 7.695 18.374 6.83 6.502-.983 12.766-6.085 18.344-8.353"/><path fill="#44A98D" d="M118.05 86.375c-5.769 1.536-11.52.928-17.405 1.012-3.655.053-6.035 1.202-9.033 3.205-3.998 2.672-10.935 8.094-9.119 13.702 1.711 5.284 10.486 6.599 15.016 7.079 8.733.924 15.763-5.298 23.295-8.604 1.473-.646.2-2.802-1.262-2.158-6.289 2.76-12.127 7.813-19.192 8.343-4.793.358-11.354-1.082-14.86-4.501-4.305-4.198 7.402-11.854 10.168-13.426 3.394-1.93 8.207-1.145 11.949-1.053 3.799.09 7.438-.209 11.108-1.188 1.556-.414.895-2.826-.665-2.411z"/><path fill="#D6E5EA" d="M132.432 114.098c-.774 7.575-4.802 11.453-.357 18.969 2.446 4.476 11.007 11.752 15.72 13.424 1.134-9.783-6.651-16.258-1.074-26.904"/><path fill="#44A98D" d="M131.226 113.766c-1.054 7.821-4.204 13.354.262 20.75 3.344 5.539 10.017 10.773 15.974 13.18.808.326 1.529-.479 1.583-1.205.681-9.272-5.557-17.133-1.245-26.273.684-1.447-1.471-2.719-2.158-1.262-1.911 4.051-2.505 7.792-1.831 12.216.806 5.286 3.138 9.82 2.734 15.319l1.583-1.206c-5.206-2.103-9.741-6.317-13.357-10.517-5.686-6.603-2.126-12.965-1.132-20.338.21-1.576-2.198-2.257-2.413-.664z"/><path fill="#D6E5EA" d="M194.434 51.507c5.661-2.491 9.66-8.756 13.421-13.459 7.334 4.324 4.264 16.01-2.791 19.248"/><path fill="#44A98D" d="M195.064 52.586c5.991-2.914 9.668-8.575 13.674-13.654l-1.515.195c6.59 4.351 3.218 14.005-2.791 17.089-1.435.736-.169 2.893 1.262 2.158 7.823-4.015 10.879-16.066 2.791-21.406-.426-.281-1.185-.223-1.515.195-3.864 4.899-7.386 10.451-13.168 13.264-1.449.706-.181 2.862 1.262 2.159z"/><path fill="#D6E5EA" d="M211.862 86.652c8.023 2.207 7.517 12.32 4.713 18.435-4.235-1.819-6.503-7.397-11.036-10.171"/><path fill="#44A98D" d="M211.53 87.859c7.073 2.287 6.384 11.025 3.966 16.597l1.71-.448c-4.526-2.269-6.844-7.354-11.036-10.171-1.342-.903-2.592 1.265-1.262 2.158 4.216 2.835 6.431 7.862 11.036 10.171.551.275 1.427.205 1.71-.448 3.099-7.14 3.349-17.42-5.459-20.27-1.539-.498-2.192 1.917-.665 2.411zm-110.84 8.228c.148.093.193.118.135.077.111.113.13.134.058.061.068.135.081.15.038.043.047.115.082.237.119.356.483 1.532 2.897.877 2.411-.665-.274-.869-.692-1.563-1.5-2.029-1.397-.81-2.655 1.351-1.261 2.157zm-6.433 13.931c3.247-1.549 6.479-3.147 8.621-6.146.94-1.313-1.229-2.562-2.158-1.263-1.848 2.584-4.944 3.923-7.725 5.248-1.454.696-.185 2.851 1.262 2.161z"/><path fill="#D6E5EA" d="M127.5 66.5c-1.25-7-2.75-11.75 3-17.25 4-4 10.5-7.75 16-6.75-1.75 1.75-3.75 2.75-4.75 5.5-.75 2.5 1.25 5.75.5 7.75"/><path fill="#44A98D" d="M128.706 66.167c-.995-5.433-2.165-10.288 1.623-14.943 3.759-4.62 10.166-8.137 16.172-7.475l-.884-2.134c-1.984 1.836-3.786 3.261-4.945 5.753-1.176 2.526.776 5.478.374 8.048-.247 1.577 2.162 2.254 2.411.665.244-1.563.08-2.807-.25-4.353-.895-4.193 1.422-5.794 4.178-8.346.879-.813.116-2.023-.884-2.134-7.334-.809-14.342 3.785-18.815 9.283-3.87 4.757-2.393 10.828-1.391 16.299.29 1.587 2.699.914 2.411-.663z"/><path fill="#FFF" d="M101.383 104.189c6 2.244 11.43 6.434 16.523 9.551l.503 1.607c-3.854 6.502-10.557 13.305-15.986 18.533l-.904.871c-14.68-3.652-32.342-18.732-44.977-27.146 2.554-5.95 9.685-14.211 13.337-19.473l1.441-1.039c4.391 2.748 10.213 6.309 14.603 9.057 0 0-5.405 8.505 1.092 11.025 6.498 2.523 7.017 3.299 12.696-1.715"/><path fill="#44A98D" d="M101.051 105.395c4.284 1.738 8.124 4.174 11.978 6.696 1.281.839 3.578 1.681 4.045 3.173.215.688-3.996 5.479-4.199 5.733-2.447 3.071-5.199 5.901-7.958 8.69-1.256 1.27-2.543 2.508-3.829 3.746-.227.219-3.952-1.398-4.374-1.56-14.599-5.53-26.74-16.731-39.541-25.347l.449 1.709c2.783-6.012 7.152-11.184 11.123-16.434.607-.805 1.313-2.263 2.139-2.857 1.075-.774 2.465.887 3.66 1.628 3.583 2.221 7.174 4.427 10.749 6.657l-.448-1.709c-2.146 3.482-3.421 8.043-.54 11.427 1.556 1.825 5.897 3.174 8.188 3.387 3.338.31 5.724-1.937 8.103-3.985 1.223-1.057-.554-2.815-1.768-1.77-1.604 1.383-3.287 3.167-5.541 3.328-1.982.142-5.014-1.5-6.667-2.313-3.268-1.604-.876-6.77.383-8.813.365-.594.119-1.356-.448-1.71-4.858-3.034-9.744-6.023-14.603-9.058-.349-.218-.916-.25-1.262 0-2.834 2.043-4.595 5.176-6.703 7.945-3.137 4.121-6.339 8.292-8.525 13.014-.3.65-.158 1.303.449 1.711 8.029 5.402 15.669 11.354 23.74 16.701 4.312 2.854 8.782 5.454 13.465 7.649 1.873.878 7.114 3.92 9.034 2.795 3.422-2.004 6.505-6.335 9.172-9.226 2.541-2.754 7.271-7.209 8.293-10.926.682-2.479-2.396-3.846-3.891-4.811-4.544-2.936-8.977-5.848-14.009-7.891-1.494-.596-2.138 1.823-.664 2.421z"/><path fill="#44A98D" d="M70.37 91.534c5.325 6.302 6.877 14.672 9.733 22.205.565 1.491 2.983.845 2.41-.665-3.03-7.991-4.728-16.623-10.376-23.307-1.041-1.234-2.801.544-1.767 1.767z"/><path fill="#44A98D" d="M82.717 115.395c10.313.791 20.489 2.896 30.866 2.713 1.61-.026 1.613-2.526 0-2.5-10.377.185-20.554-1.922-30.866-2.713-1.609-.125-1.597 2.376 0 2.5z"/><path fill="#44A98D" d="M90.896 116.251c1.412 6.218 7.455 11.46 7.49 17.972.009 1.611 2.509 1.611 2.5 0-.037-6.895-6.105-12.146-7.58-18.637-.357-1.57-2.767-.904-2.41.665zm-13.542-11.099c-7.06-.664-13.814 1.106-20.812 1.207-1.611.021-1.613 2.521 0 2.5 6.998-.1 13.752-1.87 20.812-1.207 1.605.151 1.59-2.351 0-2.5z"/><path fill="#FFF" d="M237.333 41c-4.333 4.667 8 9.333 10.667 3.667 3.333-7-10.333-11.334-10.667-3.667"/><path fill="#44A98D" d="M236.449 40.116c-5.62 6.571 10.605 12.924 13.15 3.782 2.198-7.899-12.817-12.056-13.517-2.898-.123 1.609 2.378 1.597 2.5 0 .384-5.032 8.557-2.582 8.69 1.52.097 2.97-3.054 3.78-5.404 3.39-1.679-.278-5.52-1.842-3.652-4.026 1.043-1.218-.717-2.995-1.767-1.768z"/><path fill="#FFF" d="M103.75 56.25c-.25 2.75 4.75 3.25 5 0 0-2.5-4-3.25-4.75-.75"/><path fill="#44A98D" d="M102.5 56.25c-.202 4.04 6.036 4.706 7.283 1.111 1.529-4.41-5.484-6.519-6.988-2.194-.531 1.527 1.884 2.177 2.41.665.445-1.281 2.851-.444 2.136.89-.536 1.002-2.394.578-2.341-.473.081-1.611-2.42-1.603-2.5.001z"/><path fill="#FFF" d="M226.431 126.038c1.111-8.854 10.455-9.121 16.708-5.89l-.197.049c-.15-1.426.092-2.951 1.32-3.889 1.676 1.668 2.914 5.748 2.87 8.061-1.032.051-1.968-.34-2.806-1.176l-.541-.489c-2.891 5.121-11.834 8.633-16.663 4.414l-.691-1.08z"/><path fill="#46AA8D" d="M227.154 126.236c1.361-7.993 9.473-8.406 15.607-5.44l.179-1.371-.197.05c.316.24.633.481.949.724-.178-6.425 4.915 5.86.623 1.977-.366-.332-.91-.271-1.178.152-2.836 4.458-12.269 9.258-16.059 3.333-.519-.813-1.818-.063-1.295.757 4.44 6.94 15.18 2.12 18.649-3.333-.393.051-.785.102-1.178.15 1.263 1.146 2.165 1.722 3.877 1.886.395.038.767-.37.75-.75-.139-3.113-1.086-6.177-3.089-8.591-.254-.307-.801-.278-1.061 0-1.267 1.363-1.591 2.572-1.54 4.419a.76.76 0 0 0 .949.723c.066-.019.131-.032.197-.049.601-.149.772-1.084.179-1.371-7.004-3.388-16.282-2.64-17.81 6.338-.16.944 1.286 1.349 1.448.396z"/><path fill="#FFF" d="M163.968 28.991c1.859-14.825 17.504-15.271 27.971-9.86l-.329.083c-.25-2.387.155-4.94 2.21-6.509 2.805 2.793 4.878 9.623 4.805 13.493-1.73.085-3.295-.569-4.697-1.967l-.906-.821c-4.842 8.573-19.814 14.452-27.898 7.39l-1.156-1.809z"/><path fill="#46AA8D" d="M164.691 29.19c2.165-13.718 16.428-14.555 26.87-9.412l.179-1.371c.367-.093 2.489-4.02 2.768-3.624.928 1.318 1.529 2.98 2.071 4.463.451 1.233.727 2.522.998 3.802.925 4.373-2.296 1.396-4.024-.169-.362-.329-.916-.274-1.178.152-4.855 7.868-21.23 15.793-27.759 5.581-.519-.812-1.818-.061-1.295.757 3.978 6.222 12.046 6.06 18.396 3.905 3.751-1.272 7.078-3.636 9.781-6.49 1.709-1.804.805-2.944 2.981-1.115 1.192 1.001 2.666 1.19 4.146 1.278.401.024.76-.359.75-.75-.123-4.929-1.729-10.28-5.024-14.023-.27-.306-.786-.276-1.061 0-2.072 2.087-2.559 4.117-2.43 7.04.021.492.462.846.949.723l.329-.083c.604-.152.769-1.08.179-1.371-11.299-5.566-26.757-4.37-29.073 10.309-.148.946 1.297 1.352 1.447.398z"/><path fill="#FFF" d="M327.167 56.042c3.362 1.931 5.288-3.551 8.82-3.561 3.002-.188 5.13 2.279 5.489 5.104.17 4.727-6.851 7.501-7.405 12.016-.403 3.289 5.146-.526 5.146-.526 1.286 2.333 2.688 10.38-4.707 15.806-2.014 1.477-4.003-4.615-4.329-2.759-.55 3.121-1.186 6.208-2.729 9.069-3.336 6.545-10.214 9.926-15.884 3.938-2.483-2.818-3.387-8.645 1.2-10.425 1.589-.89 6.184.155 6.544 2.274.539 3.354-3.698 3.016-3.888-.343-4.586 2.487.736 9.536 5.318 6.343 5.463-4.078-.211-10.773-1.286-16.069-1.076-4.59.141-11.129 5.078-13.617 1.411-.711 6.184-.196 6.883-1.965 1.403-3.184-4.955-3.164-5.842-4.043-.001-.354.352-.355.524-.886l1.068-.356z"/><path fill="#46AA8D" d="M326.968 56.765c1.618.618 2.659.399 4.118-.492 1.183-.723 2.166-1.817 3.329-2.584 5.476.245 7.326 2.419 5.552 6.524a15.853 15.853 0 0 1-2.037 2.502c-1.012 1.093-7.101 6.835-3.936 8.689.987.578 2.104.121 3.063-.267.725-.292 1.396-.7 2.061-1.102.246-.149-.043.668.188 1.726.969 4.394-1.045 8.589-4.108 11.606-2.268 2.23-3.188-1.989-4.668-2.303-.304-.063-.709.027-.85.345-.685 1.563-.797 3.483-1.213 5.146-1.01 4.031-3.272 7.676-6.792 9.928-3.821 2.447-8.473.187-10.55-3.359-1.188-2.025-1.172-4.787.322-6.693.986-.432 1.977-.861 2.965-1.293 1.688-.378 2.27.057 1.739 1.303-.092-.449-.725-.721-1.104-.447-3.876 2.773-1.604 7.533 2.556 8.501 2.349.546 4.279-1.319 5.494-3.029 2.018-2.835-.13-7.302-1.232-9.963-2.037-4.907-2.942-9.645-.223-14.555 1.556-2.804 4.027-3.075 6.805-3.514.804-.127 2.474-.248 3.064-1.009.868-1.115 1.261-2.461.123-3.598-.667-.667-1.632-.948-2.499-1.235-1.157-.384-3.764-.154-1.771-.822.912-.306.521-1.755-.398-1.446-1.148.386-1.461.488-2.035 1.586-.189.365-.094.809.271 1.026.82.493 1.758.654 2.681.876.777.172 1.527.428 2.25.768 2.59 1.19-3.978 2.604-4.021 2.609-2.588.272-4.305 1.969-5.765 4.002-4.778 6.658.07 14.024 1.803 20.624.925 3.703-.986 5.604-5.731 5.699-4.026-1.889-.504-2.794-1.438-4.486.52.94.963 1.443 1.943 1.892.956.437 2.473.009 2.861-1.039 1.723-4.622-5.585-6.622-8.58-4.176-4.719 3.854-1.819 10.047 2.306 12.987 6.33 4.514 12.758-2.322 15.289-7.564.941-1.951 1.379-4.143 1.818-6.244.284-1.361.845.438 1.6 1.238 1.425 1.514 2.818.299 4.037-.688 4.424-3.578 6.084-10.602 3.609-15.731-.17-.353-.706-.484-1.026-.269a16 16 0 0 1-2.908 1.558c-.938-1.411-.729-2.623.621-3.634.729-.919 1.622-1.736 2.438-2.575 1.474-1.514 3.731-4.021 3.212-6.39-.624-2.833-2.009-4.65-4.785-5.553-3.961-1.288-6.425 4.87-10.051 3.485-.904-.352-1.292 1.099-.397 1.44z"/><path fill="#FFF" d="M277.75 98.635c-.25 2.75 4.75 3.25 5 0 0-2.5-4-3.25-4.75-.75"/><path fill="#44A98D" d="M276.5 98.635c-.202 4.04 6.036 4.706 7.283 1.111 1.529-4.41-5.484-6.52-6.988-2.194-.531 1.527 1.885 2.177 2.41.665.445-1.281 2.852-.443 2.136.891-.536 1.002-2.394.578-2.341-.474.081-1.611-2.42-1.605-2.5.001z"/></svg>