<svg xmlns="http://www.w3.org/2000/svg" width="191.375" height="144.875"><defs><clipPath id="a"><path d="M0 131.333h150V0H0v131.333z"/></clipPath></defs><g clip-path="url(#a)" transform="matrix(1.25 0 0 -1.25 3.304 154.202)"><path d="M117.712 88.694c5.542.109 11 1.27 15.54 4.585 2.338 1.502 9.26 7.063 10.144 1.922.552-3.175-2.162-8.396-3.247-11.471-1.29-3.961-4.371-5.418-8.161-6.233-.903-.095-1.658-.198-2.562-.292" fill="#cadfe3"/><path d="M117.712 87.644c7.442.293 12.829 2.644 18.949 6.666 1.213.797 5.506 3.775 5.754-.237.129-2.069-1.094-4.543-1.831-6.429-.823-2.103-1.596-4.604-3.023-6.367-1.857-2.291-5.446-2.716-8.135-3.023-1.33-.151-1.345-2.253 0-2.099 4.586.521 8.68 1.605 11.136 5.815 2.174 3.727 4.846 10.114 3.568 14.453-.912 3.1-4.791 1.699-6.712.768-2.148-1.04-4.105-2.611-6.084-3.936-3.962-2.654-8.981-3.328-13.622-3.511-1.35-.054-1.354-2.154 0-2.1" fill="#44ad91"/><path d="M135.834 68.667c2-.167 10.666-5 9.5-7-.667-1.334-6.5-1.667-8.167-2.334" fill="#cadfe3"/><path d="M135.834 67.617c1.259-.165 2.575-1.02 3.662-1.618 1.487-.817 2.944-1.757 4.17-2.938.232-.223.708-.985.762-.864-.215-.48-1.782-.66-2.223-.76-1.752-.4-3.618-.486-5.317-1.09-1.266-.453-.721-2.482.558-2.027 2.223.792 10.7.663 8.711 4.943-.85 1.83-3.259 3.158-4.897 4.145-1.629.98-3.512 2.06-5.426 2.31-1.34.173-1.323-1.929 0-2.1" fill="#44ad91"/><path d="M130.248 49.656c4.139-2.478 7.176-5.826 7.748-10.744.193-2.022.949-7.817-.39-9.517-1.701-2.372-3.097.36-4.094 1.615-1.087 1.697-2.663 2.878-4.223 4.201-2.729 2.313-5.886 3.392-9.293 4.786" fill="#cadfe3"/><path d="M129.718 48.75c6.197-3.911 8.75-10.743 7.384-17.921-.495-2.596-3.541 1.871-3.555 1.886-1.387 1.507-2.944 2.794-4.558 4.052-2.542 1.978-5.76 3.05-8.713 4.243-1.257.507-1.798-1.526-.56-2.026 3.112-1.255 6.16-2.435 8.83-4.515 2.145-1.67 3.485-3.82 5.35-5.705 2.102-2.126 4.314-1.265 5.23 1.507.998 3.02.187 7.043-.31 10.118-.734 4.528-4.363 7.854-8.037 10.173-1.15.726-2.203-1.092-1.061-1.812" fill="#44ad91"/><path d="M37.334 75.334c-6.168 0-12 1-18 1.832-5 .5-8.333-1.5-12.667-3.665-1.833-1-4.597-2.575-4.416-4.835 0 0 .54-11.374 14.083-13 7.493-.898 13.833 4.168 21 4.335" fill="#cadfe3"/><path d="M37.334 76.383c-9.857.155-19.145 3.823-28.428-.583-4.266-2.024-8.548-4.13-7.342-9.338 1.114-4.808 4.625-8.428 9.037-10.407 9.42-4.225 17.463 2.245 26.733 2.895 1.342.094 1.351 2.194 0 2.1-6.734-.472-12.653-4.207-19.412-4.439-6.136-.21-11.97 3.597-14.018 9.326-1.796 5.025 3.482 6.826 7.391 8.681 7.535 3.575 17.924-.208 26.039-.335 1.354-.02 1.352 2.08 0 2.1" fill="#44ad91"/><path d="M8.334 58.45c2.945-.009 5.912-.066 8.53 1.477 1.166.686.11 2.502-1.06 1.812-2.28-1.342-4.917-1.197-7.47-1.189-1.354.004-1.354-2.096 0-2.1" fill="#44ad91"/><path d="M45.75 46.33c-.988-5.75-3.343-15.234.077-20.47 2.803-4.346 8.148-9.214 12.37-12.019 7.437-4.892 2.326 5.866 1.005 9.463-1.013 2.341-1.66 4.378-1.806 6.86-.257 2.202.456 6.448-.304 8.204" fill="#cadfe3"/><path d="M44.737 46.61c-1.075-6.033-3.622-14.473-.393-20.25 3.121-5.584 9.79-12.89 16.128-14.754 3.952-1.162 2.322 5.001 1.822 6.546-.895 2.764-2.15 5.402-3.11 8.142-1.43 4.083.025 8.294-1.079 12.353-.355 1.305-2.382.75-2.026-.559 1.23-4.52-.067-9.079 1.548-13.689 1.182-3.377 3.234-6.744 3.467-10.377.054-.847-3.572 1.56-3.544 1.54-1.678 1.16-3.205 2.523-4.72 3.882-2.743 2.46-5.622 5.381-7.017 8.842-2.16 5.362-.015 12.35.95 17.764.235 1.325-1.789 1.89-2.026.56" fill="#44ad91"/><path d="M47.29 85.315c-3.135 14.028 2.66 23.699 9.793 28.75 1.438 1.038 5.104 4.297 6.753 4.258 2.618-.118 1.122-2.975.414-4.653-1.475-3.49-3.23-6.861-4.564-10.411-1.039-2.853-.522-6.224.313-9.374" fill="#cadfe3"/><path d="M48.303 85.594c-2.303 11.518 1.02 21.01 10.157 28.211-.012-.009 6.255 4.776 5.566 2.07-.746-2.926-2.557-5.84-3.799-8.585-2.156-4.768-2.474-8.593-1.24-13.685.32-1.315 2.344-.757 2.025.56-1.462 6.028.07 10.014 2.602 15.513 1.074 2.333 2.78 5.095 2.7 7.76-.134 4.404-6.622-.023-7.64-.817-4.428-3.453-8.18-6.74-10.732-11.858-3.056-6.132-2.975-13.169-1.664-19.728.265-1.327 2.29-.763 2.025.56" fill="#44ad91"/><path d="M45.809 54.874c1.669-3.641 8.344-8.04 11.227-10.771 0 0 14.745-7.611 30.039-9.406 16.496-1.936 31.099 8.04 40.2 20.784 1.67 2.428 3.794 4.704 5.009 7.434v.758c-2.18 2.143-4.705 7.586-6.221 9.558-3.035 3.793-6.221 7.282-9.861 10.468-5.916 5.006-13.502 9.255-21.088 10.771-16.233 3.338-32.161-2.882-44.905-12.44-4.703-3.489-6.675-6.978-7.13-12.743-.456-4.855-1.214-10.62 2.73-14.413" fill="#fff"/><path d="M44.902 54.344c3.328-5.957 10.138-10.635 16.315-13.327 9.91-4.32 21.027-7.936 31.947-7.555 10.238.357 19.62 5.67 27.053 12.38 4.143 3.742 7.31 8.278 10.64 12.713 3.094 4.12 2.864 4.499.315 8.285-2.648 3.93-4.703 7.672-7.861 11.273-4.33 4.94-9.323 9.027-14.975 12.356-10.644 6.27-23.06 7.17-34.89 4.3-5.432-1.318-10.6-3.691-15.474-6.383-4.278-2.363-9.531-5.386-12.508-9.4-4.752-6.407-5.923-18.65-.398-24.854.903-1.014 2.382.477 1.485 1.484-3.482 3.91-2.88 8.864-2.423 13.67.554 5.828 3.326 9.426 7.94 12.814 8.728 6.41 18.944 10.849 29.743 12.03 10.814 1.185 20.97-2.231 29.843-8.243 4.805-3.255 8.8-7.58 12.52-11.99 2.586-3.066 4.123-6.826 6.539-10.02 1.34-1.767-3.19-6.261-4.344-7.865-2.851-3.965-6.162-7.48-9.871-10.646-7.777-6.644-17.654-10.293-27.883-9.765-9.296.478-18.811 3.95-27.275 7.638-5.425 2.364-11.735 6.994-14.625 12.166-.66 1.18-2.474.123-1.813-1.061" fill="#44ad91"/><path d="M87.453 94.8c.068-2.782.885-5.475.73-8.269-.076-1.354 2.026-1.347 2.1 0 .154 2.8-.662 5.486-.73 8.27-.034 1.351-2.133 1.354-2.1 0" fill="#44ad91"/><path d="M88.953 87.3c-5.562-2.341-10.75-5.35-15.815-8.618-1.134-.731-.082-2.55 1.06-1.813 4.901 3.164 9.927 6.139 15.314 8.407 1.228.517.69 2.55-.559 2.025" fill="#44ad91"/><path d="M72.131 77.775c.062-5.914.89-11.886-.449-17.719-.302-1.318 1.722-1.878 2.025-.558 1.384 6.031.588 12.161.524 18.277-.015 1.354-2.115 1.355-2.1 0" fill="#44ad91"/><path d="M72.651 57.898c4.612-3.373 9.388-6.51 14.106-9.729 1.122-.765 2.172 1.055 1.061 1.813-4.72 3.22-9.496 6.355-14.107 9.728-1.095.801-2.14-1.022-1.06-1.812" fill="#44ad91"/><path d="M89.277 47.684c5.035 3.02 10.082 6.027 14.836 9.485 1.082.788.037 2.612-1.06 1.813-4.755-3.457-9.799-6.465-14.837-9.486-1.16-.695-.105-2.51 1.061-1.812" fill="#44ad91"/><path d="M105.12 59.534c-.019 4.784-.216 9.567 0 14.35.06 1.354-2.042 1.348-2.1 0-.215-4.783-.018-9.566 0-14.35.003-1.354 2.103-1.354 2.1 0" fill="#44ad91"/><path d="M105.219 75.387c-3.178 4.972-9.023 7.404-13.541 10.914-1.055.82-2.553-.655-1.484-1.485 4.32-3.357 10.187-5.755 13.213-10.49.726-1.136 2.544-.084 1.812 1.06M86.762 47.897c-.63-3.15-.166-6.417-1.217-9.485-.44-1.286 1.59-1.832 2.026-.56 1.06 3.097.584 6.324 1.216 9.486.264 1.323-1.761 1.886-2.025.559m16.541 9.166c1.922-.429 3.479-2.007 4.893-3.283 1.49-1.343 2.912-2.785 4.586-3.906 1.128-.757 2.177 1.063 1.06 1.812-3.31 2.219-5.904 6.495-9.98 7.402-1.32.294-1.88-1.73-.56-2.025" fill="#44ad91"/><path d="M112.748 50.535c-.002-1.868 0-3.738-.244-5.594-.176-1.34 1.926-1.322 2.099 0 .245 1.856.245 3.726.245 5.594 0 1.354-2.1 1.354-2.1 0m-7.207 25.039c2.275 2.502 4.727 4.836 6.488 7.752.701 1.163-1.115 2.217-1.812 1.06-1.67-2.761-4.006-4.958-6.16-7.327-.911-1 .57-2.488 1.484-1.485M73.71 78.682c-4.352 2.695-8.854 5.141-13.376 7.54-1.195.634-2.256-1.179-1.06-1.814 4.52-2.399 9.024-4.844 13.377-7.539 1.155-.715 2.209 1.102 1.06 1.813m-2.762-19.457c-4.438-2.038-8.461-4.805-12.647-7.296-1.163-.691-.107-2.507 1.06-1.812 4.186 2.49 8.209 5.256 12.647 7.296 1.229.564.16 2.374-1.06 1.812" fill="#44ad91"/><path d="M58.138 51.792c-4.18.776-7.112 5.777-9.75 8.728-.906 1.011-2.386-.479-1.487-1.485 2.921-3.264 6.028-8.404 10.678-9.268 1.324-.246 1.89 1.778.56 2.025" fill="#44ad91"/><path d="M56.566 51.023v-4.136c0-1.353 2.1-1.353 2.1 0v4.136c0 1.353-2.1 1.353-2.1 0M114.2 50.01c4.165.748 8.097 3.808 10.92 6.837.921.989-.56 2.477-1.485 1.484-2.598-2.788-6.157-5.606-9.995-6.296-1.332-.24-.765-2.262.56-2.025" fill="#44ad91"/><path d="M125.39 57.553c1.196 3.745 1.438 7.325 1.01 11.224-.146 1.33-2.247 1.345-2.1 0 .407-3.711.206-7.094-.934-10.665-.414-1.294 1.613-1.843 2.025-.56M17.57 68.946c-.142-.64-.157-1.25.132-1.852.389-.806 1.446-.779 2.078-.334.467.33.559 1.493.25 2.017-.27.463-.841.127-1.31-.204-.334-.235.28-.062.05-.033l.53-.143a.763.763 0 0 0 .259-.335c.009-.117.01-.108.003.03-.008.2.536.345.564.472-.083 1.27-2.26 1.703-2.555.382" fill="#44ad91"/></g></svg>