<svg xmlns="http://www.w3.org/2000/svg" width="200" height="200"><path fill="#45A98E" d="M67.01 166.241c-1.929 3.036-4.762 6.036-7.758 7.543l-2.219-1.86c2.779-1.254 5.651-3.996 7.468-6.886l2.509 1.203zm-2.875-3.02l2.581-14.365c-1.102.596-2.295 1.217-3.516 1.75-.344-.731-1.149-1.795-1.731-2.401 6.48-2.595 11.621-6.89 14.605-10.488l3.579 1.269c-.149.35-.437.507-1.024.399l-1.388 1.466 10.101 1.813.482-.039 1.982 1.735c-.113.146-.394.264-.612.265-1.155 1.381-2.893 3.114-4.617 4.519l11.358 2.039-3.089 17.197-28.711-5.159zm15.284-12.584l-9.892-1.777-.916 5.099 9.892 1.778.916-5.1zm-11.207 5.545l-.931 5.18 9.891 1.777.931-5.181-9.891-1.776zm12.929-7.661c1.399-1.043 2.912-2.481 4.111-3.854l-10.145-1.821c-1.393 1.254-3.002 2.51-4.739 3.74l10.773 1.935zm-10.346 26.752c.349-1.941.568-5.325.516-7.926l2.719.279c.136 2.614.024 5.895-.277 7.801l-2.958-.154zm20.995-17.152l.917-5.1-10.521-1.89-.916 5.099 10.52 1.891zm-1.33 7.404l.93-5.18-10.521-1.891-.93 5.182 10.521 1.889zM81.4 177.18c-.105-2.064-.732-5.56-1.545-8.256l2.692-.058c.83 2.612 1.547 6.079 1.693 8.155l-2.84.159zm11.816 2.623c-.709-2.548-2.871-6.654-4.92-9.695l2.703-.601c2.071 2.919 4.338 6.918 5.126 9.522l-2.909.774z"/><g fill="#46AA8D"><path d="M67.01 166.241c-.221.399-.439.804-.672 1.196l-.757 1.153a29.5 29.5 0 0 1-.832 1.104l-.908 1.046c-.634.674-1.294 1.331-2.021 1.918-.366.29-.755.554-1.133.831-.396.255-.808.488-1.217.724a.445.445 0 0 1-.504-.042l-.023-.02-2.229-1.848a.497.497 0 0 1 .085-.82l.03-.017c.364-.188.737-.36 1.096-.563.348-.227.708-.43 1.047-.672.332-.252.683-.479 1.007-.741.318-.271.649-.529.959-.812.3-.295.623-.566.923-.861l.876-.912.82-.969c.248-.34.505-.678.77-1.011l.024-.03a.187.187 0 0 1 .24-.045c.807.463 1.623.906 2.419 1.391zm0 0c-.876-.317-1.733-.677-2.598-1.019l.263-.074c-.216.375-.44.748-.673 1.115l-.76 1.063a22.49 22.49 0 0 1-1.717 1.977c-.311.309-.645.594-.967.891-.33.289-.686.552-1.032.824-.355.262-.739.486-1.107.73-.383.225-.787.419-1.181.629l.115-.834 2.209 1.871-.526-.061c.38-.221.773-.418 1.154-.641.366-.248.744-.48 1.104-.74.346-.279.713-.535 1.061-.816.337-.295.684-.579 1.016-.883l.965-.944c.301-.335.614-.662.929-.988l.89-1.026c.275-.366.567-.717.855-1.074zm-2.875-3.02l2.356-14.406.333.242-3.516 1.797a.25.25 0 0 1-.325-.088l-.029-.046-.77-1.206-.931-1.104-.004-.005a.307.307 0 0 1 .108-.477l2.049-.93c.347-.145.667-.344 1-.516l.99-.533c.671-.335 1.281-.779 1.924-1.163.646-.381 1.241-.841 1.853-1.271.3-.225.619-.424.903-.668l.873-.707c.287-.24.592-.459.861-.719l.831-.755c.566-.49 1.072-1.041 1.603-1.565.531-.525.995-1.11 1.496-1.662l.013-.015a.434.434 0 0 1 .465-.118l3.583 1.26.054.019a.392.392 0 0 1 .206.574c-.081.134-.147.276-.269.391-.135.099-.289.233-.436.247-.144.031-.317.08-.43.059l-.377-.03.404-.134-1.383 1.47-.249-.759 10.106 1.785-.125-.006.482-.039a.48.48 0 0 1 .358.117l1.987 1.73.033.027a.447.447 0 0 1 .043.631l-.01.012c-.074.08-.166.17-.247.223-.077.045-.156.092-.236.124a1.519 1.519 0 0 1-.517.111l.376-.179-1.115 1.205-.559.603c-.191.194-.364.41-.571.589l-2.443 2.184-.222-.856 11.352 2.071a.454.454 0 0 1 .367.525v.002c-1.047 5.729-2.082 11.461-3.176 17.182l-.001.009a.361.361 0 0 1-.423.287l-14.332-2.714-14.313-2.805zm0 0l14.396 2.354 14.38 2.445-.424.295c.965-5.744 1.99-11.479 3.002-17.213l.366.526-11.364-2.008a.487.487 0 0 1-.243-.837l.021-.019 2.365-2.141c.2-.175.366-.384.55-.574l.542-.581 1.088-1.161a.545.545 0 0 1 .321-.168l.056-.01c.039-.006.087-.012.148-.035.024-.011.042-.025.066-.033.013-.01-.002-.006.01 0l.065.67-1.977-1.742.358.117-.482.039a.647.647 0 0 1-.125-.006l-10.096-1.845a.453.453 0 0 1-.249-.756l1.392-1.461a.443.443 0 0 1 .356-.137l.049.004.221.019c.088.021.108-.019.161-.017.065.01.045-.039.083-.035.025-.018.036-.073.07-.102l.26.594-3.575-1.278.478-.132c-.518.564-1.001 1.165-1.548 1.701-.548.535-1.068 1.101-1.657 1.589l-.862.757c-.281.26-.595.479-.893.719l-.903.705c-.294.244-.623.441-.933.665-.631.429-1.245.886-1.91 1.263-.662.379-1.289.818-1.979 1.148l-1.017.525c-.342.17-.67.365-1.026.506l-2.1.908.104-.479.96 1.181.802 1.312-.354-.134 3.516-1.703.013-.006a.226.226 0 0 1 .321.248l-2.803 14.323z"/><path d="M79.419 150.637c-.837-.076-1.67-.179-2.502-.279a71.45 71.45 0 0 1-2.495-.323c-1.658-.245-3.322-.454-4.974-.734l.519-.36c-.265 1.707-.571 3.405-.864 5.106l-.403-.58c1.646.31 3.296.603 4.938.938 1.646.313 3.28.689 4.918 1.041l-.344.238c.177-.845.37-1.688.58-2.526.202-.844.4-1.685.627-2.521zm0 0c-.078.863-.185 1.721-.288 2.58a69.219 69.219 0 0 1-.336 2.571.286.286 0 0 1-.328.241l-.017-.002c-1.658-.242-3.321-.459-4.973-.737-1.656-.257-3.304-.558-4.955-.841a.497.497 0 0 1-.405-.573l.001-.008c.318-1.696.622-3.396.967-5.089l.003-.014a.443.443 0 0 1 .516-.347c1.646.313 3.279.695 4.918 1.043.82.171 1.636.364 2.451.563.819.201 1.634.393 2.446.613zm-11.207 5.545c-.08.877-.189 1.748-.294 2.62a69.286 69.286 0 0 1-.344 2.611l-.24-.347c1.658.244 3.321.461 4.973.74 1.655.256 3.303.557 4.954.84l-.58.402c.323-1.725.631-3.451.983-5.171l.361.519c-1.646-.313-3.279-.694-4.918-1.041a74.227 74.227 0 0 1-2.451-.564 90.822 90.822 0 0 1-2.444-.609zm0 0c.837.076 1.669.18 2.502.279.833.096 1.666.198 2.495.323 1.658.245 3.322.454 4.974.733.239.041.4.266.363.504l-.002.016c-.269 1.734-.581 3.461-.879 5.189a.493.493 0 0 1-.572.404l-.008-.001c-1.646-.312-3.295-.603-4.937-.938-1.645-.313-3.279-.688-4.918-1.039l-.018-.004a.287.287 0 0 1-.222-.342c.179-.857.375-1.715.587-2.566.205-.853.405-1.709.635-2.558zm12.929-7.661c.668-.666 1.359-1.308 2.04-1.957a76.854 76.854 0 0 1 1.848-2.094l.171.487c-1.699-.255-3.405-.478-5.098-.765-1.697-.267-3.389-.565-5.082-.859l.42-.12a149.77 149.77 0 0 1-2.35 1.949l-2.461 1.788-.18-.809c1.792.34 3.573.746 5.358 1.123.894.185 1.783.389 2.671.604.889.213 1.778.42 2.663.653zm0 0c-.911-.088-1.817-.203-2.723-.316a79.683 79.683 0 0 1-2.715-.363c-1.805-.27-3.615-.508-5.414-.813a.449.449 0 0 1-.198-.797l.017-.013 2.381-1.821c.769-.633 1.516-1.289 2.285-1.922l.021-.017a.495.495 0 0 1 .4-.104c1.689.313 3.379.621 5.063.961 1.688.319 3.364.705 5.046 1.059l.03.006a.285.285 0 0 1 .141.483 79.42 79.42 0 0 1-2.072 1.967 89.194 89.194 0 0 1-2.262 1.69zm-10.346 26.752c-.009-.668.017-1.332.033-1.998l.032-.996c.007-.331.053-.664.029-.994-.04-1.317-.052-2.624-.046-3.928v-.006a.474.474 0 0 1 .476-.473l.041.002 2.722.249.021.002a.471.471 0 0 1 .427.47c-.001 1.315.003 2.633-.033 3.944.006.328-.053.658-.088.985l-.124.982c-.079.654-.178 1.305-.271 1.953l-.002.018a.24.24 0 0 1-.271.205c-.983-.129-1.966-.243-2.946-.415zm0 0c.992-.068 1.981-.078 2.971-.108l-.274.222c.015-.648.023-1.297.053-1.938l.038-.964c.003-.321.055-.639.028-.963-.052-1.291-.063-2.578-.08-3.867l.447.472-2.715-.31.517-.478a115.662 115.662 0 0 1-.25 4.021c-.017.334-.101.656-.148.983l-.186.979c-.128.651-.246 1.304-.401 1.951zm20.995-17.152c.181-1.723.385-3.439.633-5.148l.232.334c-1.763-.264-3.532-.49-5.289-.787-1.761-.274-3.514-.593-5.27-.895l.58-.402c-.318 1.695-.618 3.396-.962 5.09l-.365-.524c1.75.332 3.489.729 5.232 1.099.873.182 1.742.381 2.608.594.869.206 1.738.409 2.601.639zm0 0c-.89-.084-1.775-.195-2.66-.305a73.38 73.38 0 0 1-2.652-.351c-1.764-.26-3.531-.493-5.288-.791a.447.447 0 0 1-.368-.509l.002-.016c.266-1.707.577-3.405.869-5.106a.495.495 0 0 1 .572-.405l.008.002c1.751.327 3.505.641 5.251.995 1.75.332 3.488.735 5.232 1.104l.018.004c.15.03.247.179.215.329v.001c-.362 1.691-.769 3.37-1.199 5.048zm-1.33 7.404c.083-.877.193-1.748.3-2.619.103-.873.212-1.744.345-2.611l.234.336c-1.763-.262-3.532-.49-5.288-.789-1.761-.273-3.514-.592-5.27-.895l.58-.402c-.323 1.725-.628 3.452-.978 5.171l-.364-.522c1.75.332 3.489.729 5.232 1.1a77.41 77.41 0 0 1 2.608.593c.87.205 1.738.408 2.601.638zm0 0c-.89-.084-1.775-.195-2.66-.305a75.694 75.694 0 0 1-2.652-.352c-1.763-.26-3.532-.492-5.288-.79a.447.447 0 0 1-.367-.509l.002-.016c.27-1.732.585-3.459.882-5.188a.496.496 0 0 1 .573-.405l.007.001c1.751.328 3.505.641 5.251.996 1.75.332 3.488.732 5.232 1.102l.016.002c.153.033.25.182.218.334a75.556 75.556 0 0 1-.585 2.567 85.49 85.49 0 0 1-.629 2.563zM81.4 177.18c-.069-.346-.147-.689-.205-1.037-.066-.346-.111-.695-.204-1.033-.178-.682-.301-1.359-.478-2.033-.183-.674-.34-1.352-.524-2.021l-.587-1.992a.477.477 0 0 1 .443-.612l2.692-.083.014-.001a.475.475 0 0 1 .473.349l.563 2.036c.167.684.291 1.375.437 2.061.137.688.211 1.392.314 2.084.095.696.099 1.41.152 2.108l.001.021a.229.229 0 0 1-.211.246h-.025c-.952-.035-1.901-.031-2.855-.093zm0 0c.94-.168 1.884-.27 2.826-.406l-.235.267-.181-1.017c-.067-.338-.105-.676-.19-1.014-.156-.672-.297-1.346-.456-2.016l-.513-2.001-.58-1.976.487.348-2.693.031.443-.609.497 2.07c.127.697.241 1.396.353 2.095.098.7.156 1.414.21 2.116.038.353.026.703.036 1.055.01.352-.001.704-.004 1.057zm11.816 2.623c-.191-.414-.387-.826-.565-1.246-.188-.414-.344-.847-.582-1.233-.221-.396-.44-.79-.644-1.189-.214-.396-.397-.801-.644-1.184l-1.403-2.315-1.481-2.258a.483.483 0 0 1 .294-.736l2.699-.619.014-.004a.474.474 0 0 1 .501.201l1.502 2.291c.471.782.898 1.59 1.348 2.383.236.391.402.821.597 1.233l.566 1.248c.207.405.322.86.481 1.29.149.436.3.867.432 1.305l.004.014a.204.204 0 0 1-.136.254l-.021.006c-.985.186-1.967.397-2.962.559zm0 0c.944-.353 1.902-.656 2.854-.982l-.152.272c-.194-.405-.369-.815-.547-1.225-.188-.405-.327-.824-.564-1.21l-.652-1.176c-.227-.387-.414-.791-.658-1.17l-1.405-2.291-1.5-2.227.515.198-2.707.582.294-.737 1.421 2.357c.231.396.418.816.629 1.224l.615 1.228c.216.401.376.842.562 1.262.184.423.351.851.518 1.275.186.42.284.865.417 1.301.13.437.242.877.36 1.319z"/></g><path fill="#D5E4E9" d="M64.155 42.742c1.232 2.614-1.296 6.396-5.647 8.448l-18.384 8.669c-4.352 2.052-8.877 1.597-10.11-1.017l-4.117-8.73c-1.233-2.613 1.295-6.396 5.647-8.448l18.384-8.67c4.351-2.052 8.878-1.596 10.111 1.018l4.116 8.73z"/><path fill="#46AA8D" d="M63.432 42.941c2.036 6.76-15.603 12.458-19.938 14.502-3.368 1.588-10.62 5.714-12.885.909l-4.012-8.508c-2.853-6.05 16.433-12.772 19.96-14.436 3.368-1.588 10.62-5.713 12.886-.908l4.064 8.619c.412.875 1.705.113 1.295-.757-1.288-2.732-2.531-7.993-4.996-9.878-4.173-3.193-9.168-.653-13.299 1.295l-14.063 6.632c-3.791 1.788-8.736 5.042-7.272 9.899.861 2.858 2.77 7.79 4.92 9.94 3.517 3.516 9.068.888 12.798-.871l14.715-6.939c3.791-1.788 8.734-5.042 7.272-9.898-.276-.923-1.725-.529-1.445.399z"/><path fill="#FFF" d="M63.226 40.77c1.232 2.613-1.297 6.396-5.647 8.448l-18.384 8.67c-4.352 2.052-8.878 1.596-10.111-1.017l-4.117-8.731c-1.234-2.614 1.295-6.396 5.646-8.449l18.384-8.669c4.351-2.052 8.878-1.596 10.111 1.017l4.118 8.731z"/><path fill="#46AA8D" d="M62.503 40.969C64.538 47.73 46.9 53.428 42.565 55.472c-3.368 1.588-10.62 5.713-12.886.909l-4.012-8.508c-2.854-6.052 16.432-12.772 19.959-14.436 3.368-1.588 10.621-5.713 12.886-.909l4.065 8.62c.412.875 1.705.113 1.295-.757-1.289-2.732-2.532-7.994-4.997-9.878-4.173-3.192-9.168-.652-13.299 1.295l-14.063 6.631c-3.79 1.787-8.736 5.043-7.271 9.899.862 2.859 2.769 7.79 4.919 9.94 3.517 3.516 9.068.889 12.798-.871l14.715-6.939c3.791-1.788 8.734-5.042 7.272-9.899-.275-.923-1.723-.529-1.443.4z"/><path fill="#45A98E" d="M35.944 52.13c-1.191.55-3.313 1.204-3.059 2.896.13.867 1.015 1.637 1.88 1.683 1.102.059 2.019-.649 2.959-1.113.868-.428.107-1.721-.757-1.295-.585.288-1.128.671-1.754.868-.244.077-1.01-.111-.846-.438.17-.338.667-.54.982-.701.44-.224.902-.399 1.35-.606.88-.404.117-1.696-.755-1.294zm.679-3.844c1.149 1.913 1.813 4.077 3.086 5.918.546.79 1.847.041 1.295-.757-1.272-1.841-1.936-4.006-3.086-5.918-.498-.828-1.795-.074-1.295.757z"/><path fill="#45A98E" d="M38.141 53.042c.785-.517 1.573-1.026 2.42-1.436.871-.42.11-1.713-.757-1.295-.848.409-1.635.918-2.42 1.436-.804.529-.053 1.828.757 1.295zm3.2-2.35c.648.772 1.113 1.673 1.855 2.37.512.481 1.209.105 1.28-.53.093-.824.031-2.259.959-2.644.88-.365.495-1.817-.398-1.446-1.759.729-1.873 2.417-2.061 4.09l1.28-.53c-.736-.692-1.208-1.6-1.855-2.37-.622-.742-1.677.325-1.06 1.06zm3.442-5.416c1.607 1.216 2.006 3.468 3.128 5.06.552.784 1.854.036 1.295-.757-1.318-1.87-1.765-4.16-3.667-5.598-.771-.584-1.518.719-.756 1.295z"/><path fill="#FFF" d="M120.823 120.268l-11.973-4.226-10.271 7.474.317-12.698-10.28-7.454 12.17-3.626 3.917-12.078 7.206 10.456 12.698-.009-7.714 10.084z"/><path fill="#46AA8D" d="M121.021 119.543l-5.986-2.111c-1.745-.615-4.309-2.14-6.188-2.14-1.371 0-3.716 2.531-4.746 3.28-1.967 1.432-3.935 2.863-5.901 4.296l1.129.647.182-7.298c.034-1.36.762-4.532.032-5.778-.803-1.369-3.396-2.535-4.641-3.438l-5.908-4.284-.179 1.371 6.995-2.084c1.374-.41 4.445-.673 5.506-1.735 1.08-1.08 1.406-4.075 1.857-5.467l2.252-6.942-1.371.179 4.143 6.01c.854 1.241 1.984 3.925 3.332 4.715 1.268.742 4.39.1 5.779.099l7.299-.005c-.215-.376-.432-.752-.646-1.129l-3.857 5.042c-1.078 1.408-3.455 3.479-3.936 5.222-.376 1.366 1.262 4.271 1.672 5.532.754 2.313 1.508 4.627 2.26 6.94.299.916 1.748.523 1.447-.397-1.302-3.996-2.604-7.992-3.902-11.988.207.641.613-.447 1.102-1.085l2.652-3.466c1.285-1.682 2.572-3.361 3.857-5.042.357-.469-.132-1.129-.646-1.129l-12.607.009c.799-.001.09-.305-.57-1.263a16324.387 16324.387 0 0 0-6.081-8.822c-.371-.538-1.162-.463-1.371.179l-3.889 11.991c.259-.799-.347-.186-1.406.131l-4.184 1.246-6.085 1.813c-.664.197-.692.998-.179 1.371 3.402 2.467 6.803 4.935 10.205 7.4-.722-.523-.319.322-.347 1.391l-.108 4.364-.158 6.349c-.014.529.663.985 1.129.646l10.193-7.419c-.51.372.572.399 1.369.682l4.115 1.452 5.987 2.112c.915.323 1.307-1.127.398-1.447zm47.95-31.59c3.518 8.123 8.782 15.249 13.043 22.971 1.221 2.212 2.875 4.153 4.053 6.407-.774 2.099-1.514 2.221-2.213.369-.303-.482-.59-.974-.863-1.472-.375-.662-.738-1.319-1.143-1.965-2.783-4.438-5.891-8.664-8.645-13.127-1.514-2.451-2.904-4.974-4.1-7.595a20.908 20.908 0 0 1-1.312-3.888c-.231-.975-.687-3.478.584-2.175.676.693 1.735-.368 1.062-1.061-.621-.636-.646-.643-1.428-1.111-.383-.229-.781-.054-1.025.269-3.142 4.144 2.308 11.905 4.332 15.341 3.526 5.983 7.642 11.603 11.242 17.539 2.521 4.159 6.777 2.746 4.803-1.884-1.604-3.76-4.577-7.451-6.672-10.961-3.629-6.083-7.6-11.89-10.424-18.417-.382-.882-1.674-.118-1.294.76z"/><circle fill="#FFF" cx="162.544" cy="82.189" r="16.989"/><path fill="#46AA8D" d="M178.631 84.447c-1.604 8.542-8.457 14.155-17.158 13.947-9.134-.218-15.339-8.722-15.135-17.275.219-9.133 8.725-15.339 17.275-15.136 9.736.232 15.937 9.664 14.99 18.664-.101.961 1.4.952 1.5 0 1.029-9.798-5.229-18.174-14.903-19.991-9.753-1.831-18.454 5.638-20.19 14.877-1.83 9.752 5.639 18.456 14.877 20.189 9.754 1.829 18.456-5.635 20.191-14.876.177-.946-1.267-1.349-1.447-.399z"/><circle fill="#FFF" cx="162.544" cy="82.188" r="13.837"/><path fill="#46AA8D" d="M175.514 83.991c-3.113 15.946-26.084 13.744-26.041-2.476.021-7.404 6.887-12.416 13.744-12.398 7.994.02 12.982 7.786 12.27 15.073-.094.963 1.406.954 1.5 0 1.824-18.633-25.282-22.522-28.856-4.202-1.569 8.045 4.663 15.143 12.214 16.616 8.045 1.569 15.143-4.665 16.617-12.214.183-.946-1.264-1.348-1.448-.399z"/><path fill="#46AA8D" d="M166.977 76.222c.739 2.724 1.178 5.383.565 8.178-.065.306.032.703.345.847 9.086 4.188 5.44-16.164-.718-9.934-.681.688.38 1.75 1.062 1.061 2.168-2.194 3.304 1.348 3.541 3.146.283 2.13-.14 5.809-3.127 4.432.114.282.229.564.346.847.669-3.06.244-5.987-.566-8.975-.256-.933-1.702-.536-1.448.398z"/><path fill="#45A98E" d="M62.607 75.028c-3.102-14.558 5.358-26.298 17.525-28.89 10.97-2.337 19.367 3.484 21.647 14.184 2.025 9.505-2.843 15.709-7.783 16.762-2.937.625-5.516-.298-6.475-2.934l-.112.024c-1.339 2.5-3.45 4.595-5.837 5.104-3.694.788-7.1-1.325-8.153-6.268-1.239-5.814.721-13.3 7.079-14.655 1.849-.394 4.207-.073 5.57 1.508l.106-.022.132-2.298 2.992-.638.195 11.315c-.175 4.525 1.297 6.368 4.286 5.731 3.425-.729 6.392-5.731 4.886-12.796-1.863-8.744-8.391-14.054-18.276-11.948-9.669 2.06-17.267 12.251-14.56 24.963 2.257 10.593 10.495 15.142 19.731 13.173 3.314-.707 6.136-2.384 8.279-4.319l1.763 2.406c-2.748 2.574-5.982 4.172-9.734 4.971-10.645 2.268-20.564-2.715-23.261-15.373zm23.498-3.248l-.265-8.971c-1.391-1.466-2.497-1.854-3.963-1.541-4.289.913-5.796 6.631-4.928 10.704.74 3.476 2.67 4.542 4.839 4.08 1.524-.325 2.948-1.651 4.317-4.272z"/><g fill="#46AA8D"><path d="M63.33 74.829c-2.747-14.679 6.674-28.544 22.273-28.437 7.694.053 13.015 5.852 15.122 12.762 1.19 3.905 1.03 8.092-.603 11.823-1.71 3.908-8.778 8.929-11.954 2.795-.16-.309-.529-.413-.847-.345-1.047.224-2.439 2.97-2.968 3.515-5.837 6.021-10.42-2.497-10.534-7.56-.085-3.777 1.544-7.464 4.746-9.53 3.443-2.223 4.91 1.313 7.808.711.337-.07.532-.404.551-.723l.066-1.149c.069-1.202-.555-.411.568-.65 1.914-.408 1.011.086.992-1.023l.025 1.472.161 9.297c.067 3.891 2.201 9.952 7.229 5.984 5.83-4.6 4.484-14.662.329-19.981-4.676-5.988-12.99-7.389-19.797-4.087-14.501 7.033-17.032 31.562-.577 37.949 3.65 1.417 7.777.965 11.455-.016 2.087-.557 3.984-1.787 5.716-3.021.688-.49-.236-1.672.721-.365 1.302 1.776 1.225.83-1.063 2.504-4.91 3.593-11.894 4.179-17.593 2.535-6.646-1.918-10.301-8.145-11.826-14.46-.227-.94-1.673-.542-1.446.398 1.74 7.205 5.746 12.935 12.874 15.508 7.252 2.617 15.754.085 21.375-4.775.234-.202.304-.654.117-.909l-1.763-2.406c-.302-.412-.781-.484-1.178-.152-9.541 7.979-22.667 4.886-26.413-7.116-3.724-11.931 3.924-24.485 16.356-25.834 5.172-.561 9.711 1.896 12.514 6.138 2.986 4.52 4.853 16.647-2.927 17.64-3.696.472-2.751-14.089-2.791-16.417-.009-.508-.47-.825-.949-.723l-2.992.638c-.337.072-.532.403-.551.723l-.066 1.149c-.111 1.109-.05 1.055.183-.161-.631-.547-1.987-.986-2.808-1.021-3.207-.137-5.713 1.027-7.833 3.424-3.402 3.848-3.954 12.257-.615 16.289 3.988 4.816 9.522 2.984 12.909-1.459-1.05 1.377 6.32 2.115 6.671 2.07 2.498-.319 4.592-2.155 6.12-4.011 4.367-5.305 3.146-13.236.585-19.002-2.917-6.567-9.493-9.891-16.416-9.938-16.149-.111-25.103 15.911-22.401 30.345.177.95 1.622.547 1.445-.398z"/><path d="M86.855 71.78l-.263-8.921c-.035-1.199-2.296-2.357-3.345-2.406-2.091-.098-3.8.822-5.145 2.384-2.732 3.176-2.903 9.002-.568 12.392 2.978 4.321 7.6-.178 9.218-3.07.473-.845-.823-1.601-1.295-.757-.928 1.659-1.936 3.349-3.869 3.927-2.807.839-3.851-2.643-4.085-4.69-.391-3.418.971-7.639 4.572-8.647 3.814-1.068 3.077 2.953 3.138 5.011l.141 4.778c.03.964 1.53.967 1.501-.001z"/></g><path fill="#D6E5EA" d="M133.788 88.172l-25.947-9.151 14.725-41.752 25.95 9.15z"/><path fill="#46AA8D" d="M133.986 87.449a109976.527 109976.527 0 0 0-24.932-8.793c-1.555-.548-.231-.17-.453.455l.688-1.948c4.474-12.684 8.946-25.367 13.421-38.051.182-.512.359-1.023.541-1.535-.264.745-1.352.25.132.773l9.196 3.243 10.591 3.735 3.707 1.307c1.877.662.625.403.875-.306l-12.804 36.302a5669.8 5669.8 0 0 0-1.885 5.341c-.322.915 1.127 1.304 1.447.398 4.907-13.917 9.816-27.835 14.727-41.753.143-.405-.16-.794-.524-.922l-25.946-9.151c-.406-.143-.795.16-.924.524-4.908 13.917-9.816 27.835-14.727 41.752-.143.405.16.794.523.922l25.947 9.151c.917.325 1.309-1.124.4-1.444z"/><path fill="#FFF" d="M133.676 77.664l-18.869-6.657 9.754-27.658 18.871 6.656z"/><path fill="#46AA8D" d="M133.875 76.94l-11.698-4.126-6.311-2.226c-1.064-.375-.521 1.136.157-.784 3.082-8.738 6.164-17.476 9.244-26.213-.313.888-1.365.32-.045.785l2.985 1.054 7.851 2.769 6.312 2.226c1.397.493.144-.066.278-.453l-.604 1.711c-3.03 8.594-6.062 17.188-9.093 25.781-.322.915 1.127 1.304 1.447.398 3.25-9.219 6.502-18.439 9.754-27.659.144-.405-.159-.794-.523-.922l-18.87-6.656c-.405-.143-.794.16-.923.524l-9.755 27.658c-.144.405.16.794.524.922l18.869 6.656c.917.324 1.307-1.125.401-1.445zm4.416-32.373c-2.15-.732-4.398-1.166-6.491-2.065-.879-.378-1.644.914-.758 1.295 2.22.954 4.572 1.441 6.851 2.217.918.312 1.308-1.138.398-1.447zM120.48 77.971c-1.02 2.092 1.896 4.461 3.722 2.959 1.966-1.62-.776-3.777-2.497-3.764-.967.007-.969 1.507 0 1.5.361-.002.787.191 1.145.412.152.096.319.223.428.37a.5.5 0 0 1 .106.23c-.017-.069.036-.124-.043.014-.432.745-1.856-.363-1.565-.963.421-.867-.874-1.627-1.296-.758z"/><path fill="#45A98E" d="M155.158 114.378c1.35-2.51 2.673-5.579 2.4-6.349-.354-.993-3.752-.776-6.797-.439a17.239 17.239 0 0 0-8.488-3.933c-1.609-2.478-3.463-5.001-4.414-4.663-.742.265-2.211 3.041-3.299 5.604-1.766.848-3.184 2.15-4.006 3.881-2.393 5.026 1.069 11.672 7.73 14.84 6.66 3.17 14.001 1.662 16.393-3.364.829-1.737.94-3.665.481-5.577zm-14.815 51.752c.679-2.292 1.453-3.873 2.075-5.976.361-1.225.148-2.586-1.977-3.247l.483-1.634c2.144.601 3.062-.426 3.413-1.618.633-2.136.842-3.884 1.52-6.175.957-3.233 2.429-3.822 4.908-3.088l1.412.416-.437 1.476-.849-.25c-1.695-.502-2.377.187-2.979 2.225-.563 1.916-.86 3.604-1.49 5.738-.604 2.042-1.437 2.89-2.896 2.866l-.037.128c1.24.772 1.466 1.967.871 3.978-.631 2.133-1.303 3.713-1.867 5.627-.604 2.039-.405 2.986 1.29 3.487l.849.254-.438 1.472-1.413-.416c-2.478-.734-3.394-2.03-2.438-5.263z"/><path fill="#46AA8D" d="M140.632 166.21c.517-1.584 4.054-7.562 1.218-8.946-2.846-1.393.748-1.365 1.605-1.867 1.104-.646 1.293-2.111 1.582-3.205.857-3.236 1.646-8.688 6.695-7.2 1.82.536-3.021.593-1.935.593-4.331 0-1.483 10.245-6.353 10.991-.1.016-.182.116-.209.209l-.036.128a.297.297 0 0 0 .077.292c3.808 3.405-3.383 8.938-.756 12.562.319.441 1.084.578 1.605.734.316.096.039.988-.22.912-2.075-.613-4.255-.988-3.273-5.203.089-.377-.489-.536-.577-.16-.886 3.8.551 5.015 4.062 6.048a.302.302 0 0 0 .368-.209c.146-.49.293-.98.438-1.472.048-.159-.056-.323-.209-.369-3.983-1.192-.274-7.996.228-10.36.063-.299-.459-2.668-.35-2.686 4.376-.671 1.079-12.195 7.071-10.429.159.047.323-.056.369-.209l.437-1.476a.302.302 0 0 0-.209-.369c-1.783-.525-3.3-1.084-5-.103-3.188 1.841-1.074 11.19-6.333 10.558-.132-.018-.255.104-.288.219l-.484 1.634c-.035.122.021.28.139.339 3.6 1.762.548 6.473-.236 8.884-.124.369.456.526.574.16z"/><path fill="#45A98E" d="M147.695 171.24l.814.242c1.696.5 2.377-.188 2.98-2.229.564-1.913.893-3.594 1.521-5.728.596-2.01 1.403-2.898 2.865-2.875l.037-.125c-1.241-.775-1.443-1.932-.841-3.971.632-2.135 1.27-3.722 1.836-5.637.604-2.04.407-2.986-1.288-3.49l-.816-.238.436-1.477 1.381.407c2.514.741 3.396 2.028 2.439 5.264-.678 2.29-1.451 3.871-2.084 6.007-.352 1.192-.107 2.563 1.986 3.215l-.484 1.633c-2.111-.59-3.062.428-3.422 1.65-.621 2.104-.832 3.853-1.512 6.145-.955 3.234-2.395 3.83-4.906 3.089l-1.382-.407.44-1.475z"/><path fill="#46AA8D" d="M147.615 171.529c6.972 2.07 2.639-9.678 8.344-10.59.102-.016.182-.116.209-.209.014-.041.025-.084.037-.125a.294.294 0 0 0-.077-.291c-3.16-2.822 4.065-11.064.647-12.674-.713-.334-2.625-1.936-.592-1.336 5.535 1.633.811 8.903.373 11.922-.094.639.418 1.736 1.014 2.028 2.992 1.47-1.014 1.274-1.67 1.917-1.625 1.586-1.726 4.018-2.207 6.15-.609 2.693-6.822 6.759-5.709 2.996.109-.371-.469-.529-.578-.159l-.438 1.476a.303.303 0 0 0 .209.369c1.774.521 3.29 1.078 4.979.096 3.178-1.85 1.06-11.185 6.321-10.562.133.017.256-.104.289-.22l.485-1.633c.036-.121-.021-.281-.138-.338-4.18-2.052 1.035-8.761.468-12.238-.294-1.799-2.89-2.28-4.263-2.686a.303.303 0 0 0-.369.209l-.436 1.477a.301.301 0 0 0 .209.369c3.922 1.145.265 8.055-.238 10.369-.063.293.438 2.652.33 2.67-4.301.688-1.133 12.188-7.043 10.433-.369-.108-.526.471-.156.58z"/><g fill="#45A98E"><path d="M35.201 88.39c-2.566-4.424-2.381-8.818.153-13.25l2.581 1.388c-1.766 3.463-2.025 6.202-.228 9.301.136-.15.302-.247.469-.343 1.491-.866 3.51-.706 4.569 1.119 1.092 1.882.546 3.752-1.167 4.746-2.217 1.283-4.515.25-6.377-2.961zm9.792-5.681c-2.566-4.424-2.38-8.818.153-13.25l2.577 1.39c-1.761 3.461-2.021 6.201-.223 9.299.135-.151.303-.248.468-.344 1.491-.865 3.505-.704 4.564 1.122 1.093 1.882.551 3.749-1.161 4.743-2.218 1.286-4.516.251-6.378-2.96z"/><path d="M35.848 88.011c-2.272-4.297-2.087-8.249.153-12.493l-1.026.269 2.581 1.388-.269-1.026c-1.666 3.504-2.057 6.539-.228 10.058.174.336.707.502 1.026.269 2.199-1.61 7.114 1.236 3.115 4.226-2.27 1.695-4.362-1.135-5.352-2.691-.518-.813-1.816-.062-1.295.757 1.183 1.859 2.541 3.508 4.822 3.839 1.568.227 3.616-.841 4.231-2.312 1.685-4.027-2.684-7.748-6.279-5.114l1.026.269c-1.553-2.988-1.184-5.575.228-8.544.17-.358.113-.821-.269-1.026l-2.581-1.388c-.348-.187-.831-.102-1.026.269-2.493 4.723-2.662 9.262-.153 14.007.453.856 1.748.098 1.296-.757zm9.792-5.68c-2.272-4.297-2.086-8.249.153-12.493l-1.026.269 2.577 1.39-.269-1.026c-1.663 3.504-2.052 6.539-.223 10.056.174.335.708.503 1.026.269 2.195-1.613 7.101 1.245 3.114 4.227-2.269 1.695-4.362-1.137-5.352-2.692-.518-.813-1.816-.062-1.295.757 1.183 1.859 2.541 3.508 4.822 3.84 1.567.228 3.617-.841 4.23-2.312 1.676-4.019-2.686-7.755-6.277-5.115l1.026.269c-1.553-2.986-1.185-5.573.223-8.542.17-.359.113-.82-.269-1.026l-2.577-1.39c-.347-.188-.831-.102-1.026.269-2.492 4.723-2.662 9.262-.153 14.007.453.855 1.748.097 1.296-.757z"/></g><path fill="#D6E5EA" d="M31.219 137.281l-7.129-29.785 47.93-11.469 7.127 29.786z"/><path fill="#46AA8D" d="M31.942 137.082l-4.028-16.83-2.389-9.98-.625-2.61c-.126-.527-1.161.69.016.409l39.446-9.439 6.651-1.591 1.18-.282c-1.055.252-.937-.698-.452 1.329l5.104 21.329 1.539 6.434c-.086-.359 1.092-.885-.063-.607l-2.746.656-20.591 4.928-23.964 5.732c-.941.227-.542 1.672.398 1.447l47.928-11.468c.407-.099.617-.536.524-.923L72.743 95.83c-.097-.407-.536-.617-.922-.524l-47.93 11.468c-.407.098-.617.535-.524.922l7.129 29.785c.225.94 1.671.54 1.446-.399z"/><path fill="#FFF" d="M33.647 129.973l-4.593-19.198 40.505-9.693 4.592 19.195z"/><path fill="#46AA8D" d="M34.371 129.771l-3.788-15.828-.677-2.829c-.238-.994-1.139.502-.184.272 2.014-.482 4.028-.965 6.042-1.445 11.321-2.711 22.643-5.42 33.963-8.129-.989.235-.977-.887-.552.891l1.059 4.428 2.56 10.698.575 2.403c-.044-.186 1.122-.809-.143-.506l-6.531 1.563c-11.083 2.651-22.165 5.306-33.247 7.957-.94.226-.542 1.672.398 1.446l40.503-9.693c.407-.098.617-.536.524-.923l-4.592-19.195c-.097-.407-.536-.617-.922-.524l-40.504 9.694c-.407.099-.617.536-.524.923l4.593 19.195c.225.942 1.672.544 1.447-.398z"/><path fill="#D6E5EA" d="M58.808 131.563l3.862 5.308-5.482 1.326-.666.162-5.482 1.329 1.006-6.489"/><path fill="#46AA8D" d="M58.16 131.941l3.863 5.309c.149-.367.299-.734.448-1.104l-11.631 2.815.922.923 1.006-6.486c.147-.945-1.298-1.354-1.446-.398l-1.006 6.486c-.087.561.322 1.068.922.924 3.877-.938 7.754-1.878 11.631-2.814.439-.106.732-.714.448-1.104l-3.863-5.309c-.562-.772-1.864-.025-1.294.758z"/><path fill="#FFF" d="M136.446 146.134l-29.923 11.271-7.333-19.467 29.923-11.272z"/><path fill="#46AA8D" d="M136.247 145.412l-27.163 10.23c-.618.233-1.236.467-1.855.699-1.36.514-.34-.08-.004.811l-1.983-5.264-5.31-14.094c.256.68-1.067 1.063.044.645.725-.271 1.448-.545 2.173-.817l7.593-2.86c5.603-2.109 11.206-4.222 16.809-6.332.726-.272 1.449-.546 2.173-.818 1.067-.401-.234-.48-.25-.526l2.237 5.94 5.015 13.311c.338.896 1.787.51 1.446-.398-2.444-6.489-4.892-12.979-7.335-19.47-.134-.354-.516-.678-.923-.524-9.976 3.759-19.95 7.517-29.925 11.273-.354.135-.678.516-.524.924 2.445 6.488 4.892 12.979 7.335 19.467.135.354.516.679.924.524 9.975-3.758 19.949-7.515 29.924-11.271.894-.341.506-1.792-.401-1.45z"/><path fill="#46AA8D" d="M106.078 139.447c-1.428 2.779 2.326 4.352 3.371 2.017.925-2.29-2.642-4.83-3.371-2.017"/><path fill="#46AA8D" d="M105.432 139.068c-.697 1.445-.483 3.14 1.026 3.953a2.64 2.64 0 0 0 3.64-1.18c.709-1.464-.123-3.15-1.387-3.98-1.411-.928-2.918-.133-3.355 1.387-.27.932 1.179 1.326 1.446.398.214-.742.634-.832 1.255-.424.598.395 1.012 1.313.682 1.992-.282.583-.943.782-1.522.51-.776-.365-.829-1.195-.489-1.898.417-.867-.876-1.629-1.296-.758z"/><path fill="#45A98E" stroke="#46AA8D" stroke-width=".5" stroke-miterlimit="10" d="M107.5 153.438l25.514-9.92-2.951-7.799-4.657-1.813-6.25 8.131-3.468-1.635-9.219 10.379z"/><g fill="#46AA8D"><path d="M87.24 28.854l15.64 19.203c.611.75 1.666-.317 1.062-1.061L88.301 27.793c-.612-.75-1.666.318-1.061 1.061z"/><path d="M102.88 48.058c4.331 3.693 12.322-2.929 9.78-7.916-.439-.862-1.733-.103-1.295.757 1.744 3.423-4.426 8.656-7.426 6.098-.73-.624-1.796.432-1.059 1.061z"/><path d="M112.543 39.99L93.124 16.147c-.611-.75-1.666.317-1.061 1.061l19.419 23.843c.612.75 1.666-.318 1.061-1.061z"/><path d="M93.124 16.147c-1.76-1.889-4.733-1.082-6.488.339-1.772 1.435-2.909 4.771-1.127 6.592.677.692 1.737-.369 1.061-1.061-1.25-1.277.118-3.517 1.127-4.471 1.056-.999 3.262-1.524 4.367-.339.66.71 1.718-.353 1.06-1.06z"/><path d="M85.508 23.078l15.119 18.563c.611.75 1.666-.317 1.061-1.061L86.569 22.017c-.611-.75-1.666.318-1.061 1.061z"/><path d="M100.627 41.641c2.786 3.142 8.864-1.664 6.152-5.075-.603-.757-1.656.312-1.062 1.061 1.457 1.833-2.51 4.669-4.03 2.954-.642-.726-1.699.339-1.06 1.06z"/><path d="M106.779 36.565c-3.846-4.721-7.688-9.442-11.534-14.162-.611-.75-1.666.317-1.061 1.061l11.534 14.162c.612.75 1.667-.317 1.061-1.061z"/></g></svg>