<svg xmlns="http://www.w3.org/2000/svg" width="500" height="200"><path fill="#FFF" d="M290.435 106.001c.23-8.764 4.382-18.91 9.916-25.599 8.533-9.916 17.528-8.071 29.52-9.685-2.307-5.997-11.991-6.226-17.527-6.226-8.532 0-14.529 2.306-20.755 8.072l-12.538 29.565"/><path fill="#45A487" d="M291.484 106.001c.52-10.3 5.025-21.167 12.835-28.054 6.861-6.049 17.084-5.125 25.551-6.181.815-.102 1.274-.807.906-1.58-3.165-6.649-12.086-6.726-18.434-6.746-4.394-.014-9.021.605-13.014 2.538-2.5 1.21-7.611 3.61-8.783 6.373l-12.402 29.246c-.522 1.231 1.286 2.304 1.813 1.061l10.651-25.115 1.752-4.132c1.422-3.354 8.412-5.928 11.588-6.874 6.561-1.955 21.491-2.696 25.017 4.709l.906-1.58c-9.53 1.188-19.086.587-27.035 6.795-8.433 6.585-12.93 19.21-13.45 29.539-.069 1.355 2.032 1.349 2.099.001z"/><path fill="#FFF" d="M188.27 103.088c-4.844-.463-8.533-7.842-11.07-11.532-2.998-4.381-6.688-8.301-11.762-11.07-6.688-3.92-21.909-5.073-22.831 5.766 8.302-3.689 18.218-2.536 23.061 6.457 2.537 4.844 4.382 10.148 7.149 14.76 2.537 4.151 8.417 8.604 12.107 11.371l10.263-7.797-3.921-9.225-2.996 1.27z"/><path fill="#45A487" d="M188.549 102.075c-6.237-1.229-9.522-10.154-13.228-14.729-3.534-4.364-8.354-7.876-13.707-9.606-7.614-2.46-18.733-1.307-20.019 8.232-.091.679.453 1.638 1.292 1.292 4.18-1.726 8.397-2.41 12.855-1.381 6.218 1.436 8.982 7.024 11.386 12.31 2.109 4.637 3.994 9.297 7.391 13.158 2.843 3.23 6.453 5.82 9.877 8.396.265.2.795.202 1.06 0l10.263-7.797c.502-.381.623-.857.377-1.437l-3.921-9.225c-.244-.572-.965-.576-1.437-.376l-2.997 1.27c-1.244.526-.172 2.335 1.06 1.813l2.997-1.27-1.437-.376 3.921 9.225.377-1.437-9.195 6.985c-1.224.93-.425.497-.973.085a105.207 105.207 0 0 1-5.309-4.276c-3.572-3.068-5.93-6.575-7.977-10.792-3.262-6.722-5.265-13.837-12.38-17.367-5.158-2.558-11.39-1.64-16.497.467l1.292 1.292c1.583-11.744 17.215-7.89 23.922-3.518 5.282 3.443 8.521 8.827 11.91 13.955 2.083 3.153 4.659 6.367 8.538 7.133 1.323.26 1.886-1.764.559-2.026z"/><path fill="#FFF" d="M276.382 102.396s.101.234.302.651c1.811 3.768 11.622 22.438 26.155 17.674 0 0 7.234-4.976 15.815-15.463 8.581-10.491 37.326-3.972 41.071 3.259 3.748 7.229 7.644 11.079 6.49 17.416 0 0-8.836-19.309-36.146-5.212 0 0-20.079 19.428-40.698 18.033 0 0-22.646-4.318-27.353-16.048"/><path fill="#FFF" d="M192.611 105.259v5.085l13.547 5.912-8.658 10.578 9.634.93 7.86-8.278 24.661 1.597s4.09 22.729 23.903 21.494c0 0 10.916 1.14 14.095-7.124s-2.476-36.639-2.476-36.639l-82.566 6.445z"/><path fill="#FFF" d="M192.611 108.518c-14.189-19.35-20.642-40.642-15.48-64.506 5.159-21.933 25.157-31.609 45.8-36.125 34.833-7.742 73.536 13.549 70.308 50.963-.644 13.542-7.094 33.539-16.126 43.86"/><path fill="#45A487" d="M193.518 107.987c-14.741-20.417-24.175-49.964-11.517-73.814 10.036-18.91 36.479-26.946 56.517-26.807 20.03.138 40.643 10.104 49.755 28.514 4.925 9.949 4.728 21.355 2.791 32.027-2.175 11.983-6.765 24.666-14.693 34.062-.867 1.027.61 2.521 1.484 1.484 7.342-8.7 11.563-19.754 14.302-30.683 2.521-10.067 3.308-20.817.598-30.914-5.09-18.967-22.888-31.072-41.224-35.124-19.934-4.405-43.675 1.044-59.938 13.322-19.112 14.429-20.301 41.53-13.67 62.744 2.964 9.484 7.991 18.229 13.781 26.249.785 1.088 2.608.041 1.814-1.06z"/><path fill="#FFF" d="M192.611 108.518c-11.611 19.353-23.864.645-34.187-6.448-9.677-7.742-28.382-9.68-29.673 6.448l-.646 1.935c16.127-14.834 25.788 5.521 37.401 12.618 14.188 9.031 35.493 10.602 40.651-8.748"/><path fill="#45A487" d="M191.704 107.987c-3.001 4.718-6.831 9.003-12.891 7.651-4.332-.967-8.116-4.569-11.344-7.381-5.224-4.549-10.202-9.146-16.81-11.563-5.147-1.882-11.043-2.135-16.058.215-5.581 2.616-5.809 8.169-7.509 13.263-.356 1.067 1.017 1.666 1.755 1.021 4.174-3.646 8.696-5.97 14.236-4.342 4.404 1.294 8.031 4.992 11.27 8.055 5.61 5.306 10.87 9.876 18.092 12.865 13.953 5.775 30.117 2.58 34.725-13.171.381-1.303-1.646-1.855-2.025-.559-5.809 19.859-29.457 16.125-42.417 5.735-5.74-4.603-10.286-10.645-16.928-14.067-6.692-3.448-13.194-.581-18.438 3.999l1.755 1.021c.897-2.688 1.025-5.464 2.35-8.021 1.911-3.691 6.058-5.124 9.938-5.383 7.579-.507 14.317 3.649 19.887 8.297 5.296 4.42 10.189 9.923 16.962 12.038 6.822 2.131 11.967-3.436 15.263-8.615.73-1.144-1.088-2.196-1.813-1.058zm175.873 17.548c-2.883-7.36-11.175-10.185-18.451-11.062-4.092-.493-8.152-.521-12.223.161-2.328.39-4.445 2.49-6.307 3.837-2.523 1.825-4.957 3.778-7.404 5.704-10.098 7.944-20.485 14.222-33.842 13.094-12.469-1.053-24.844-9.357-28.85-21.412-.606-1.827-3.505-1.044-2.893.797 6.739 20.281 31.45 28.314 50.313 20.825 10.529-4.181 18.729-12.81 27.98-19.072 3.806-2.577 10.984-1.351 15.183-.602 5.221.932 11.508 3.187 13.6 8.526.699 1.781 3.601 1.008 2.894-.796z"/><path fill="#45A487" d="M367.181 125.934c1.089-18.78-18.438-29.331-35.286-26.807-10.072 1.51-15.627 6.907-21.745 14.561-4.765 5.961-10.987 8.209-18.198 5.03-6.509-2.869-12.472-9.215-13.825-16.286-.255-1.329-2.278-.765-2.025.559 1.828 9.551 11.364 18.057 20.912 19.385 10.381 1.442 14.918-8.878 21.088-14.939 15.239-14.971 48.292-4.128 46.98 18.498-.08 1.352 2.021 1.344 2.099-.001z"/><path fill="#DFEAF1" d="M258.873 70.248c-6.781 4.468-.44 19.558 7.081 11.143 4.57-4.882 1.544-18.126-7.081-11.143"/><path fill="#45A487" d="M258.419 69.47c-7.362 5.226-.792 20.456 7.385 13.357 3.238-2.812 4.039-8.063 2.335-11.912-2.037-4.603-6.445-3.986-9.902-1.304-.916.711.368 1.975 1.273 1.272 2.851-2.212 5.963-2.355 7.237 1.426 1.017 3.016.343 6.553-1.824 8.866-5.829 6.222-11.212-6.165-5.596-10.151.939-.665.04-2.227-.908-1.554z"/><path fill="#DFEAF1" d="M223.479 63.655c-6.784 4.468-.44 19.558 7.077 11.143 4.573-4.882 1.546-18.127-7.077-11.143"/><path fill="#45A487" d="M223.024 62.877c-7.363 5.225-.793 20.457 7.381 13.357 3.238-2.813 4.042-8.061 2.337-11.912-2.037-4.603-6.445-3.986-9.901-1.304-.917.711.368 1.975 1.272 1.272 2.851-2.212 5.962-2.356 7.237 1.425 1.017 3.018.339 6.552-1.827 8.866-5.826 6.223-11.209-6.165-5.592-10.15.94-.665.042-2.227-.907-1.554zm-9.281 55.564c-1.925 7.511-9.121 9.706-15.844 6.946-1.791-.735-2.562 2.169-.798 2.893 8.231 3.379 17.231-.052 19.535-9.042.48-1.875-2.413-2.67-2.893-.797z"/><path fill="#FFF" d="M215.189 119.485c1.288 6.448 1.934 15.479-3.226 20.642-5.806 5.158-14.836 1.938-21.93 1.938-10.968.643-30.964 15.479-18.064 26.444-1.289-21.287 27.864-13.026 41.412-15.608 15.482-2.577 26.319-16.645 26.319-33.415"/><path fill="#45A487" d="M214.177 119.765c.901 4.792 1.272 9.534.068 14.307-1.731 6.864-8.043 8.192-14.221 7.821-7.284-.438-12.502-1.324-19.276 1.87-9.668 4.56-19.642 16.192-9.522 25.488.645.592 1.827.215 1.792-.742-.674-18.883 25.13-13.328 37.176-14.151 18.315-1.252 30.231-17.323 30.555-34.872.025-1.354-2.075-1.353-2.1 0-.211 11.428-5.176 22.051-14.882 28.391-7.564 4.94-16.414 4.617-25.039 4.47-12.045-.207-28.379.217-27.81 16.163l1.792-.742c-7.262-6.672-2.355-14.313 4.149-19.209 6.326-4.761 12.569-5.731 20.233-4.854 6.635.76 13.266.77 17.449-5.152 3.791-5.365 2.791-13.328 1.659-19.346-.248-1.331-2.272-.766-2.023.558z"/><path fill="#45A487" d="M238.649 120.129c-.831 19.169 29.179 33.006 41.307 16.646.808-1.09-1.017-2.135-1.813-1.061-10.937 14.753-38.126 1.298-37.395-15.585.06-1.355-2.04-1.349-2.099 0zm-16.225-31.965c4.234 5.385 10.464 5.696 16.85 5.624 6.909-.077 12.859 7.137 19.607 2.751.97-.63.068-2.189-.908-1.555-6.144 3.994-10.547-2.936-16.5-2.994-6.511-.063-13.29.606-17.777-5.099-.716-.912-1.981.372-1.272 1.273z"/><path fill="#FFF" d="M222.629 68.5c3.735-1.333 11.516-1.333 7.937 4.833-3.268 5.667-8.715 2-8.715-3.667m36.654 5.55c3.599-1.333 11.094-1.333 7.646 4.833-3.148 5.667-8.396 2-8.396-3.667m-90.732 66.408l178.975-67.566 20.086 53.208-178.975 67.565z"/><path fill="#45A487" d="M365.784 127.432l-139.602 52.696-39.366 14.859 1.292.733-20.083-53.206-.733 1.292 139.602-52.695 39.366-14.859-1.292-.733 20.083 53.205c.474 1.254 2.504.711 2.025-.559L346.993 74.96c-.188-.495-.721-.949-1.292-.733l-139.602 52.695-39.367 14.859c-.495.188-.949.721-.733 1.292l20.083 53.206c.187.495.721.949 1.292.733l139.602-52.696 39.366-14.859c1.255-.474.712-2.504-.558-2.025z"/><path fill="#DFEAF1" d="M290.423 111.41l8.727-3.293 3.294 8.728-8.727 3.294z"/><path fill="#45A487" d="M302.241 116.116c-2.909 1.099-5.818 2.196-8.728 3.294l.923.524-3.295-8.728-.524.923 8.729-3.292-.923-.524 3.294 8.726c.339.896 1.789.508 1.447-.398-1.099-2.908-2.196-5.817-3.294-8.726-.134-.354-.515-.678-.923-.524l-8.729 3.292c-.354.134-.678.515-.524.923l3.295 8.728c.134.354.515.678.923.524 2.909-1.099 5.818-2.196 8.728-3.294.896-.339.507-1.79-.399-1.448z"/><path fill="#DFEAF1" d="M303.274 106.553L312 103.26l3.293 8.727-8.726 3.293z"/><path fill="#45A487" d="M315.09 111.266l-8.726 3.293.923.524-3.294-8.726-.524.923 8.727-3.294-.923-.524 3.293 8.727c.339.896 1.789.508 1.447-.398l-3.293-8.727c-.134-.354-.515-.678-.923-.524l-8.727 3.294c-.354.134-.678.515-.524.923 1.099 2.908 2.196 5.817 3.294 8.726.134.354.515.678.923.524l8.726-3.293c.896-.34.507-1.79-.399-1.448z"/><path fill="#DFEAF1" d="M335.39 94.44l8.726-3.296 3.296 8.727-8.727 3.296z"/><path fill="#45A487" d="M347.215 99.139l-8.727 3.296.923.524-3.295-8.728-.524.922 8.729-3.293-.923-.524 3.293 8.725c.339.896 1.789.508 1.447-.398l-3.293-8.725c-.134-.354-.515-.678-.923-.524l-8.729 3.293c-.354.133-.678.515-.524.922l3.295 8.728c.134.354.515.678.923.524l8.727-3.296c.896-.338.507-1.788-.399-1.446z"/><path fill="#DFEAF1" d="M322.56 99.28l8.726-3.295 3.294 8.725-8.726 3.294z"/><path fill="#45A487" d="M334.364 103.989l-8.726 3.294.923.524-3.295-8.725-.524.923 8.729-3.295-.923-.524 3.292 8.726c.339.896 1.789.508 1.447-.398l-3.292-8.726c-.134-.354-.515-.678-.923-.524l-8.729 3.295c-.354.133-.678.514-.524.922l3.295 8.725c.134.354.515.678.923.524 2.908-1.099 5.817-2.196 8.726-3.294.896-.338.508-1.789-.399-1.447z"/><path fill="#DFEAF1" d="M340.26 107.272l8.73-3.295 3.295 8.728-8.73 3.295z"/><path fill="#45A487" d="M352.066 111.989l-8.729 3.295.923.524-3.293-8.729-.524.923 8.727-3.293-.923-.524 3.295 8.727c.339.896 1.789.508 1.447-.398l-3.295-8.727c-.134-.354-.515-.678-.923-.524l-8.727 3.293c-.354.134-.678.515-.524.923l3.293 8.729c.134.354.515.678.923.524l8.729-3.295c.896-.339.508-1.79-.399-1.448z"/><path fill="#DFEAF1" d="M327.39 112.14l8.726-3.296 3.296 8.727-8.726 3.295z"/><path fill="#45A487" d="M339.215 116.839l-8.727 3.296.923.524-3.293-8.728-.524.923 8.727-3.295-.923-.524 3.293 8.727c.339.896 1.789.508 1.447-.398l-3.293-8.727c-.134-.354-.515-.678-.923-.524l-8.727 3.295c-.354.134-.678.515-.524.923l3.293 8.728c.134.354.515.678.923.524l8.727-3.296c.896-.34.507-1.79-.399-1.448z"/><path fill="#DFEAF1" d="M345.09 120.116l8.726-3.295 3.295 8.726-8.725 3.296z"/><path fill="#45A487" d="M356.915 124.838l-8.726 3.295.923.524-3.295-8.727-.524.923 8.727-3.294-.923-.524c1.099 2.908 2.196 5.817 3.294 8.726.339.896 1.789.508 1.447-.398l-3.294-8.726c-.134-.354-.515-.678-.923-.524l-8.727 3.294c-.354.134-.678.515-.524.923l3.295 8.727c.134.354.515.678.923.524l8.726-3.295c.896-.34.507-1.79-.399-1.448z"/><path fill="#DFEAF1" d="M332.236 124.982l8.727-3.293 3.293 8.728-8.727 3.293z"/><path fill="#45A487" d="M344.066 129.69l-8.728 3.293.923.524-3.295-8.728-.524.923c2.909-1.099 5.819-2.196 8.729-3.294l-.923-.524 3.294 8.729c.339.896 1.789.508 1.447-.398l-3.294-8.729c-.134-.354-.515-.678-.923-.524-2.909 1.099-5.819 2.196-8.729 3.294-.354.134-.678.515-.524.923l3.295 8.728c.134.354.515.678.923.524l8.728-3.293c.896-.339.508-1.789-.399-1.448z"/><path fill="#DFEAF1" d="M301.7 121.814l8.726-3.293 3.293 8.727-8.726 3.294z"/><path fill="#45A487" d="M313.516 126.541l-8.727 3.293.923.524-3.293-8.728-.524.923 8.726-3.293-.923-.524c1.099 2.909 2.196 5.818 3.294 8.728.339.896 1.789.508 1.447-.398-1.099-2.909-2.196-5.818-3.294-8.728-.134-.354-.515-.678-.923-.524l-8.726 3.293c-.354.134-.678.515-.524.923l3.293 8.728c.134.354.515.678.923.524l8.727-3.293c.896-.34.507-1.79-.399-1.448z"/><path fill="#DFEAF1" d="M306.541 134.669l8.726-3.296 3.295 8.727-8.725 3.295z"/><path fill="#45A487" d="M318.366 139.39l-8.726 3.295.923.524-3.296-8.727-.524.923 8.728-3.295-.923-.524 3.294 8.727c.339.896 1.789.508 1.447-.398l-3.294-8.727c-.134-.354-.515-.678-.923-.524l-8.728 3.295c-.354.134-.678.515-.524.923l3.296 8.727c.134.354.515.678.923.524l8.726-3.295c.896-.34.507-1.79-.399-1.448z"/><path fill="#DFEAF1" d="M293.688 139.533l8.727-3.293 3.293 8.727-8.728 3.293z"/><path fill="#45A487" d="M305.517 144.241l-8.728 3.293.923.524-3.295-8.727-.524.923 8.728-3.295-.923-.524 3.295 8.729c.339.896 1.789.508 1.447-.398l-3.295-8.729c-.134-.354-.515-.678-.923-.524l-8.728 3.295c-.354.134-.678.515-.524.923l3.295 8.727c.134.354.515.678.923.524l8.728-3.293c.896-.339.507-1.79-.399-1.448z"/><path fill="#DFEAF1" d="M319.39 129.827l8.727-3.296 3.296 8.728-8.727 3.296z"/><path fill="#45A487" d="M331.217 134.54l-8.728 3.296.923.524-3.295-8.729-.524.923c2.909-1.099 5.818-2.196 8.728-3.294l-.923-.524 3.295 8.727c.339.896 1.789.508 1.447-.398l-3.295-8.727c-.134-.354-.515-.678-.923-.524-2.909 1.099-5.818 2.196-8.728 3.294-.354.134-.678.515-.524.923l3.295 8.729c.134.354.515.678.923.524l8.728-3.296c.896-.34.507-1.79-.399-1.448z"/><path fill="#DFEAF1" d="M261.053 122.49l8.725-3.293 3.294 8.726-8.726 3.293z"/><path fill="#45A487" d="M272.868 127.202l-8.726 3.293.923.524-3.292-8.727-.524.923 8.727-3.293-.923-.524 3.291 8.727c.338.896 1.789.508 1.447-.398L270.5 119c-.134-.354-.515-.678-.923-.524l-8.727 3.293c-.354.134-.678.515-.524.923l3.292 8.727c.134.354.515.678.923.524l8.726-3.293c.896-.339.507-1.79-.399-1.448z"/><path fill="#DFEAF1" d="M248.187 127.337l8.727-3.295 3.294 8.726-8.727 3.295z"/><path fill="#45A487" d="M260.021 132.051l-8.728 3.295.923.524-3.294-8.727-.524.923 8.729-3.293-.923-.524 3.293 8.725c.339.896 1.789.508 1.447-.398l-3.293-8.725c-.134-.354-.515-.678-.923-.524l-8.729 3.293c-.354.134-.678.515-.524.923l3.294 8.727c.133.354.514.678.922.524l8.728-3.295c.896-.34.508-1.79-.398-1.448z"/><path fill="#DFEAF1" d="M235.351 132.208l8.728-3.293 3.293 8.726-8.727 3.294z"/><path fill="#45A487" d="M247.171 136.902l-8.727 3.294.922.524-3.294-8.726-.524.923 8.729-3.295-.922-.524 3.292 8.727c.338.896 1.789.508 1.446-.398l-3.292-8.727c-.133-.354-.515-.678-.922-.524l-8.729 3.295c-.354.134-.678.515-.524.923l3.294 8.726c.133.354.515.678.922.524l8.727-3.294c.896-.339.509-1.789-.398-1.448z"/><path fill="#DFEAF1" d="M231.899 123.01l8.726-3.295 1.793 4.75-8.727 3.294z"/><path fill="#45A487" d="M242.205 123.746l-8.726 3.294.922.524-1.793-4.749-.524.923 8.727-3.295-.922-.524 1.792 4.75c.338.896 1.789.508 1.446-.398l-1.792-4.75c-.133-.354-.515-.678-.922-.524l-8.727 3.295c-.354.134-.678.515-.524.923l1.793 4.749c.134.354.515.678.922.524l8.726-3.294c.897-.34.509-1.79-.398-1.448z"/><path fill="#DFEAF1" d="M244.722 118.158l8.727-3.295 1.794 4.75-8.727 3.296z"/><path fill="#45A487" d="M255.056 118.896l-8.728 3.295.922.524-1.793-4.751-.524.923 8.727-3.294-.923-.524c.599 1.583 1.196 3.167 1.794 4.75.339.896 1.789.508 1.447-.398-.599-1.583-1.196-3.167-1.794-4.75-.134-.354-.515-.678-.923-.524l-8.727 3.294c-.354.134-.678.515-.524.923l1.793 4.751c.133.354.515.678.922.524l8.728-3.295c.898-.339.509-1.789-.397-1.448z"/><path fill="#DFEAF1" d="M257.58 113.3l8.726-3.293 1.792 4.748-8.726 3.293z"/><path fill="#45A487" d="M267.904 114.047l-8.727 3.292.923.524-1.791-4.748-.524.923 8.725-3.293-.923-.524 1.793 4.749c.339.896 1.789.508 1.447-.398l-1.793-4.749c-.134-.354-.515-.678-.923-.524l-8.725 3.293c-.354.134-.678.515-.524.923l1.791 4.748c.134.354.515.678.923.524l8.727-3.292c.896-.34.508-1.79-.399-1.448z"/><path fill="#DFEAF1" d="M286.959 102.212l8.726-3.293 1.793 4.749-8.727 3.293z"/><path fill="#45A487" d="M297.275 102.96l-8.727 3.293.923.524-1.793-4.749-.524.923 8.728-3.293-.923-.524 1.792 4.749c.339.896 1.789.508 1.447-.398l-1.792-4.749c-.134-.354-.515-.678-.923-.524l-8.728 3.292c-.354.134-.678.515-.524.923l1.793 4.749c.134.354.515.678.923.524l8.727-3.293c.896-.339.508-1.789-.399-1.447z"/><path fill="#DFEAF1" d="M299.79 97.374l8.727-3.295 1.793 4.749-8.727 3.295z"/><path fill="#45A487" d="M310.125 98.11c-2.909 1.098-5.818 2.197-8.728 3.294l.923.524-1.793-4.749-.524.922 8.729-3.296-.923-.524 1.792 4.75c.339.896 1.789.508 1.447-.398l-1.792-4.75c-.134-.354-.515-.678-.923-.524l-8.729 3.296c-.354.133-.678.515-.524.922l1.793 4.749c.134.354.515.678.923.524l8.728-3.295c.896-.337.507-1.787-.399-1.445z"/><path fill="#DFEAF1" d="M219.038 127.874l8.728-3.294 1.792 4.75-8.727 3.293z"/><path fill="#45A487" d="M229.356 128.597l-8.727 3.294.922.524-1.792-4.749-.524.923 8.727-3.293-.922-.524 1.792 4.748c.338.896 1.789.508 1.446-.398l-1.792-4.748c-.133-.354-.515-.678-.922-.524l-8.727 3.293c-.354.134-.678.515-.524.923l1.792 4.749c.133.354.515.678.922.524l8.727-3.294c.896-.34.509-1.79-.398-1.448z"/><path fill="#DFEAF1" d="M206.18 132.718l8.728-3.293 1.792 4.748-8.728 3.293z"/><path fill="#45A487" d="M216.506 133.448l-8.728 3.293.922.524-1.792-4.748-.524.923 8.726-3.296-.922-.524 1.793 4.751c.338.896 1.789.508 1.446-.398l-1.793-4.751c-.133-.354-.515-.678-.922-.524l-8.726 3.296c-.354.134-.678.515-.524.923l1.792 4.748c.133.354.515.678.922.524l8.728-3.293c.897-.339.509-1.79-.398-1.448z"/><path fill="#DFEAF1" d="M193.325 137.563l8.726-3.295 1.793 4.75-8.726 3.294z"/><path fill="#45A487" d="M203.656 138.297l-8.727 3.295.922.524-1.793-4.75-.524.923c2.909-1.099 5.818-2.196 8.728-3.294l-.922-.524 1.793 4.749c.338.896 1.789.508 1.446-.398l-1.793-4.749c-.133-.354-.515-.678-.922-.524-2.909 1.099-5.818 2.196-8.728 3.294-.354.134-.678.515-.524.923l1.793 4.75c.133.354.515.678.922.524l8.727-3.295c.897-.34.509-1.79-.398-1.448z"/><path fill="#DFEAF1" d="M174.992 144.494l8.726-3.295 1.793 4.75-8.727 3.294z"/><path fill="#45A487" d="M185.299 145.227l-8.726 3.294.922.524-1.793-4.749-.524.923 8.727-3.295-.922-.524 1.792 4.75c.338.896 1.789.508 1.446-.398l-1.792-4.75c-.133-.354-.515-.678-.922-.524l-8.727 3.295c-.354.134-.678.515-.524.923l1.793 4.749c.133.354.515.678.922.524l8.726-3.294c.896-.34.509-1.79-.398-1.448z"/><path fill="#DFEAF1" d="M222.502 137.052l8.728-3.294 3.293 8.728-8.727 3.293z"/><path fill="#45A487" d="M234.323 141.753l-8.727 3.294.922.524-3.295-8.727-.524.923 8.728-3.295-.922-.524 3.294 8.728c.338.896 1.789.508 1.446-.398l-3.294-8.728c-.133-.354-.515-.678-.922-.524l-8.728 3.295c-.354.134-.678.515-.524.923l3.295 8.727c.133.354.515.678.922.524l8.727-3.294c.896-.34.508-1.79-.398-1.448z"/><path fill="#DFEAF1" d="M209.64 141.892l8.726-3.295 3.294 8.725-8.726 3.295z"/><path fill="#45A487" d="M221.472 146.602l-8.727 3.295.922.524-3.293-8.727-.524.923 8.727-3.293-.922-.524 3.293 8.725c.338.896 1.789.508 1.446-.398l-3.293-8.725c-.133-.354-.515-.678-.922-.524l-8.727 3.293c-.354.134-.678.515-.524.923l3.293 8.727c.133.354.515.678.922.524l8.727-3.295c.897-.34.509-1.79-.398-1.448z"/><path fill="#DFEAF1" d="M196.796 146.744l8.728-3.293 3.292 8.726-8.728 3.293z"/><path fill="#45A487" d="M208.623 151.453l-8.728 3.293.922.524-3.293-8.726-.524.923 8.727-3.294-.922-.524 3.294 8.727c.338.896 1.789.508 1.446-.398l-3.294-8.727c-.133-.354-.515-.678-.922-.524l-8.727 3.294c-.354.134-.678.515-.524.923l3.293 8.726c.133.354.515.678.922.524l8.728-3.293c.897-.339.509-1.79-.398-1.448z"/><path fill="#DFEAF1" d="M178.612 153.616l14.069-5.31 3.293 8.726-14.069 5.31z"/><path fill="#45A487" d="M195.773 156.303c-4.689 1.771-9.379 3.54-14.068 5.31l.922.524-3.294-8.725-.524.923 14.069-5.311-.922-.524 3.293 8.726c.338.896 1.789.508 1.446-.398l-3.293-8.726c-.133-.354-.515-.678-.922-.524l-14.069 5.311c-.354.134-.678.515-.524.923l3.294 8.725c.133.354.515.678.922.524 4.689-1.771 9.379-3.54 14.068-5.31.896-.34.509-1.79-.398-1.448z"/><path fill="#DFEAF1" d="M260.408 137.421l8.727-3.294 3.294 8.725-8.727 3.294z"/><path fill="#45A487" d="M272.213 142.129c-2.908 1.099-5.817 2.196-8.726 3.294l.923.524-3.293-8.726-.524.923 8.725-3.293-.923-.524c1.099 2.908 2.196 5.816 3.294 8.725.339.896 1.789.508 1.447-.398-1.099-2.908-2.196-5.816-3.294-8.725-.134-.354-.515-.678-.923-.524l-8.725 3.293c-.354.134-.678.515-.524.923l3.293 8.726c.134.354.515.678.923.524l8.726-3.294c.896-.34.507-1.79-.399-1.448z"/><path fill="#DFEAF1" d="M273.712 132.41l13.462-5.08 3.293 8.727-13.461 5.08z"/><path fill="#45A487" d="M290.265 135.315l-13.461 5.081.923.524-3.293-8.727-.524.923 13.462-5.08-.923-.524 3.292 8.726c.339.896 1.789.508 1.447-.398l-3.292-8.726c-.134-.354-.515-.678-.923-.524l-13.462 5.08c-.354.134-.678.515-.524.923l3.293 8.727c.134.354.515.678.923.524l13.461-5.081c.896-.339.507-1.789-.399-1.448z"/><path fill="#DFEAF1" d="M247.53 142.27l8.726-3.295 3.295 8.726-8.727 3.295z"/><path fill="#45A487" d="M259.364 146.979l-8.727 3.295.922.524-3.293-8.728-.524.923 8.727-3.294-.923-.524 3.294 8.727c.339.896 1.789.508 1.447-.398l-3.294-8.727c-.134-.354-.515-.678-.923-.524l-8.727 3.294c-.354.134-.678.515-.524.923l3.293 8.728c.133.354.515.678.923.524l8.727-3.295c.897-.339.509-1.789-.398-1.448z"/><path fill="#DFEAF1" d="M234.7 147.115l8.726-3.296 3.297 8.726-8.726 3.296z"/><path fill="#45A487" d="M246.513 151.829l-8.726 3.296.922.524-3.294-8.727-.524.923 8.727-3.295-.922-.524 3.293 8.726c.338.896 1.789.508 1.446-.398l-3.293-8.726c-.133-.354-.515-.678-.922-.524l-8.727 3.295c-.354.134-.678.515-.524.923l3.294 8.727c.133.354.515.678.922.524l8.726-3.296c.897-.339.508-1.79-.398-1.448z"/><path fill="#DFEAF1" d="M221.843 151.956l8.726-3.292 3.292 8.725-8.726 3.292z"/><path fill="#45A487" d="M233.666 156.681l-8.727 3.292.922.524-3.294-8.725-.524.923 8.727-3.295-.922-.524 3.294 8.728c.338.896 1.789.508 1.446-.398l-3.294-8.728c-.133-.354-.515-.678-.922-.524l-8.727 3.295c-.354.134-.678.515-.524.923l3.294 8.725c.134.354.515.678.922.524l8.727-3.292c.896-.34.508-1.79-.398-1.448z"/><path fill="#DFEAF1" d="M208.982 156.818l8.726-3.295 3.295 8.727-8.727 3.294z"/><path fill="#45A487" d="M220.815 161.53l-8.727 3.295.922.524-3.294-8.728-.524.923 8.727-3.293-.922-.524 3.294 8.726c.338.896 1.789.508 1.446-.398l-3.294-8.726c-.133-.354-.515-.678-.922-.524l-8.727 3.293c-.354.134-.678.515-.524.923l3.294 8.728c.133.354.515.678.922.524l8.727-3.295c.897-.339.509-1.79-.398-1.448z"/><path fill="#DFEAF1" d="M183.295 166.531l21.428-8.087 3.293 8.727-21.428 8.087z"/><path fill="#45A487" d="M207.816 166.437l-16.409 6.193-3.832 1.447c-1.624.612-.445.493-.425.548l-3.091-8.191c.286.758-.841.915 1.107.18l4.156-1.569 10.579-3.992 3.832-1.447c1.624-.612.445-.493.425-.548l3.133 8.303c.338.896 1.789.508 1.446-.398l-3.293-8.727c-.133-.354-.515-.678-.922-.524-7.143 2.696-14.285 5.393-21.428 8.088-.354.134-.678.515-.524.923l3.293 8.727c.133.354.515.678.922.524 7.143-2.696 14.285-5.393 21.428-8.088.898-.341.51-1.791-.397-1.449z"/><path fill="#DFEAF1" d="M200.996 174.532l12.096-4.566 3.294 8.728-12.097 4.565z"/><path fill="#45A487" d="M216.186 177.961l-12.096 4.565.922.524-3.294-8.728-.524.923 12.096-4.566-.922-.524 3.293 8.729c.338.896 1.789.508 1.446-.398a22515.16 22515.16 0 0 1-3.293-8.729c-.133-.354-.515-.678-.922-.524l-12.096 4.566c-.354.134-.678.515-.524.923l3.294 8.728c.133.354.515.678.922.524l12.096-4.565c.896-.34.508-1.79-.398-1.448z"/><path fill="#DFEAF1" d="M187.23 179.722l9.496-3.584 3.293 8.728-9.496 3.584z"/><path fill="#45A487" d="M199.818 184.138l-9.496 3.584.922.524-3.294-8.727-.524.923 9.496-3.584-.922-.524 3.294 8.727c.338.896 1.789.508 1.446-.398l-3.294-8.727c-.133-.354-.515-.678-.922-.524l-9.496 3.584c-.354.134-.678.515-.524.923l3.294 8.727c.133.354.515.678.922.524l9.496-3.584c.897-.34.509-1.79-.398-1.448z"/><path fill="#DFEAF1" d="M261.559 151.654l12.094-4.566 3.295 8.726-12.095 4.566z"/><path fill="#45A487" d="M276.763 155.093c-4.032 1.522-8.063 3.045-12.095 4.566l.923.524-3.295-8.727-.524.923 12.096-4.565-.923-.524 3.294 8.726c.339.896 1.789.508 1.447-.398-1.099-2.908-2.196-5.817-3.294-8.726-.134-.354-.515-.678-.923-.524l-12.096 4.565c-.354.134-.678.515-.524.923l3.295 8.727c.134.354.515.678.923.524 4.031-1.522 8.063-3.045 12.095-4.566.896-.34.507-1.79-.399-1.448z"/><path fill="#DFEAF1" d="M217.694 168.222l39.996-15.099 3.295 8.729-39.996 15.099z"/><path fill="#45A487" d="M260.77 161.13l-25.025 9.447-13.301 5.021-1.421.536c-.079.029.858 1.102.286-.413l-2.857-7.57c.217.576-1.06.979-.136.631l1.652-.624 6.167-2.327 17.663-6.668 12.787-4.826 1.18-.445c-.711.268-.882-.753-.158 1.164l2.641 6.997c.339.896 1.789.508 1.447-.398-1.099-2.909-2.196-5.818-3.294-8.728-.134-.354-.515-.678-.923-.524l-39.995 15.098c-.354.134-.678.515-.524.923l3.294 8.728c.133.354.515.678.922.524l39.995-15.098c.894-.34.506-1.79-.4-1.448z"/><path fill="#DFEAF1" d="M278.402 145.31l8.728-3.294 3.293 8.727-8.727 3.293z"/><path fill="#45A487" d="M290.221 150.014c-2.909 1.099-5.818 2.196-8.728 3.294l.923.524c-1.099-2.908-2.196-5.817-3.294-8.726l-.524.923 8.729-3.296-.923-.524 3.293 8.728c.339.896 1.789.508 1.447-.398l-3.293-8.728c-.134-.354-.515-.678-.923-.524l-8.729 3.296c-.354.134-.678.515-.524.923l3.294 8.726c.134.354.515.678.923.524 2.909-1.099 5.818-2.196 8.728-3.294.896-.34.507-1.79-.399-1.448z"/><circle fill="#DFEAF1" cx="319.764" cy="92.825" r="2.942"/><path fill="#45A487" d="M321.793 91.985c.847 2.629-2.649 4.203-4.014 1.776-.616-1.096.066-2.37 1.049-2.922 1.227-.69 2.553.202 3.041 1.325.385.885 1.677.121 1.295-.757-.791-1.819-2.764-2.661-4.638-2.059-1.96.629-2.838 2.848-2.238 4.715.63 1.959 2.848 2.837 4.715 2.239 1.96-.628 2.837-2.85 2.237-4.715-.296-.918-1.744-.525-1.447.398z"/><circle fill="#DFEAF1" cx="330.779" cy="88.667" r="2.943"/><path fill="#45A487" d="M332.809 87.827c.843 2.629-2.65 4.202-4.015 1.777-.617-1.095.066-2.371 1.048-2.923 1.227-.69 2.554.204 3.043 1.325.386.885 1.678.121 1.295-.757-.793-1.819-2.765-2.66-4.64-2.059-1.961.628-2.837 2.85-2.238 4.716.629 1.959 2.85 2.836 4.715 2.237 1.96-.629 2.837-2.847 2.239-4.714-.294-.918-1.743-.526-1.447.398z"/><circle fill="#DFEAF1" cx="341.792" cy="84.51" r="2.942"/><path fill="#45A487" d="M343.82 83.67c.847 2.63-2.649 4.201-4.014 1.776-.616-1.096.068-2.37 1.05-2.922 1.227-.69 2.552.203 3.04 1.325.385.885 1.677.121 1.295-.757-.791-1.819-2.763-2.661-4.637-2.06-1.96.628-2.838 2.849-2.239 4.715.629 1.959 2.85 2.836 4.716 2.239 1.96-.627 2.836-2.851 2.236-4.715-.295-.916-1.744-.524-1.447.399z"/><path fill="#FFF" d="M277.012 153.517c.982-11.707-9.159-20.354-16.468-27.714-4.421-4.452-13.089-11.736-18.592-14.309-4.283-2.003-9.437-2.724-14.1-2.039-2.574.38-4.836 1.215-7.094 2.454-2.466 1.356-5.324 2.483-6.521 5.251-.582 1.347-1.136 2.737-1.382 4.19-.142.84-.128 2.593-.138 3.404l11.717-4.477c7.669-1.454 11.448 2.279 18.562 5.935 11.313 5.705 18.734 12.766 26.271 24.785 0 0 1.867 4.514 3.8 4.32s3.945-1.8 3.945-1.8z"/><path fill="#45A487" d="M278.062 153.517c.372-8.175-3.782-14.698-9.039-20.602a132.233 132.233 0 0 0-19.857-18.175c-7.256-5.381-15.605-8.027-24.551-5.627-8.078 2.168-12.882 7.284-12.947 15.642-.005.634.684 1.259 1.329 1.013l11.355-4.339c4.668-1.783 9.699.981 13.634 3.213 4.02 2.278 8.149 4.317 12.009 6.87 7.689 5.084 13.463 12.322 18.367 20.017 2.625 4.12 4.326 6.479 9.181 2.895 1.076-.795.031-2.618-1.061-1.813-3.941 2.909-5.549-.952-7.211-3.562-2.251-3.53-4.789-6.863-7.542-10.015-5.068-5.798-11.396-10.214-18.202-13.728-5.469-2.824-12.77-8.563-19.465-6.005l-11.624 4.44 1.329 1.013c.034-4.352 1.026-8.147 5-10.59 3.804-2.338 7.779-3.704 12.251-3.909 8.532-.392 15.427 4.78 21.679 9.876 9.786 7.977 23.891 19.629 23.265 33.385-.062 1.355 2.038 1.349 2.1.001z"/><path fill="#FFF" d="M279.05 118.462c13.186-.359 22.179 1.091 34.19 7.439 7.044 3.825 14.223 9.266 14.223 17.52l-6.998 2.603c-1.728 6.657 16.352 2.689 17.76 1.683 3.824-2.817 2.188-10.13 1.584-14.961-2.013-13.083-17.311-17.309-27.978-19.926-7.85-2.014-15.9-1.61-24.152-1.61-3.106 0-6.898-.482-11.512 1.208 0-.001-4.901 6.256 2.883 6.044z"/><path fill="#45A487" d="M279.05 119.512c13.05-.275 24.786 2.041 36.141 8.716 2.394 1.406 4.575 3.1 6.579 5.015.671.642 5.883 8.992 5.276 9.218l-6.86 2.551c-.323.12-.671.36-.733.733-1.391 8.27 14.601 4.609 18.534 3.221 4.684-1.653 3.822-8.879 3.375-12.564-.808-6.666-2.709-11.739-8.08-16.029-12.369-9.879-30.702-10.258-45.603-10.212-4.271.013-11.075-1.14-13.4 3.342-2.093 4.031 1.058 5.902 4.771 6.009 1.354.039 1.352-2.061 0-2.1-2.914-.084-3.819-1.473-2.424-3.816.979-1.643 5.603-1.36 7.262-1.4 6.84-.164 13.823-.16 20.641.42 9.978.849 22.587 4.379 29.864 11.54 4.034 3.97 4.648 9.525 5.151 14.868.236 2.51.418 7.021-2.53 8.063-1.323.468-2.732.726-4.105.994-3.214.629-7.676 1.423-10.766-.075-2.773-1.346.804-1.788 2.101-2.271l3.499-1.301c.426-.158.796-.52.771-1.013-.491-9.614-8.494-15.203-16.362-19.262-10.452-5.392-21.46-6.993-33.101-6.747-1.354.028-1.357 2.129-.001 2.1z"/><path fill="#FFF" d="M177.602 172.991c2.746.646 5.452.453 8.118-.045l.855-.118c3.575-1.422 0-4.73 0-4.73-2.284-.979-4.731-1.632-6.852-2.773-3.916-2.121-6.036-4.079-7.504-7.994-.489-1.305-.979-4.73-2.447-5.221-1.305-.489-2.121 1.958-2.61 3.427-1.795 4.567-2.855 11.908 9.46 17.292l.98.162z"/><path fill="#45A487" d="M177.323 174.004c3.086.576 16.013.78 10.789-5.738-.866-1.081-1.255-1.18-2.644-1.735-3.178-1.272-6.22-2.369-8.913-4.551-2.004-1.624-3.106-4.021-3.766-6.448-.345-1.271-.736-2.822-1.703-3.789-3.941-3.941-6.064 7.06-6.05 9.338.039 6.107 6.596 11.976 12.287 12.923 1.325.22 1.892-1.804.559-2.025-4.71-.783-9.616-5.126-10.634-9.793-.38-1.742.025-3.603.531-5.27.211-.695.492-1.382.729-2.068 1.261-3.652 2.25 1.22 2.485 2.087 1.187 4.37 4.407 7.154 8.2 9.296 2.029 1.146 5.524 1.394 7.051 3.043 3.376 3.646-7.096 2.941-8.363 2.705-1.323-.248-1.888 1.776-.558 2.025z"/><path fill="#FFF" d="M361.865 134.217c-1.129-3.288 1.694-4.344 1.78-7.965.117-3.748-.774-7.047-2.031-10.434l-.171-.457-6.512-17.741c3.182 0 7.246.856 9.938 2.814 3.059 2.08 4.405 6.24 5.996 9.544 1.957 3.793 2.324 8.319 1.835 12.479-.449 3.482-1.826 7.067-3.469 10.093-.146.271-.296.537-.446.798 0 .001-5.43 5.211-6.92.869z"/><path fill="#45A487" d="M362.878 133.938c-.551-2.708 1.33-3.97 1.633-6.276.316-2.41.064-4.669-.354-7.041-.49-2.788-1.682-5.483-2.656-8.14l-5.557-15.14-1.013 1.329c4.663.176 9.039 1.373 11.853 5.357 2.103 2.976 3.771 7.284 4.638 10.749 1.321 5.28-.137 10.875-2.301 15.688-.646 1.437-4.513 6.88-6.35 3.222-.607-1.21-2.419-.146-1.813 1.061 1.562 3.112 4.384 2.362 6.894.698 3.761-2.494 5.521-8.801 5.897-12.987.618-6.86-1.389-12.203-4.426-18.24-2.789-5.544-8.539-7.427-14.393-7.647-.645-.024-1.245.696-1.013 1.329l5.299 14.436c.869 2.369 1.757 4.725 2.495 7.14 1.165 3.81 1.252 7.249-.555 10.837-.719 1.427-.612 2.676-.306 4.185.272 1.324 2.296.762 2.028-.56z"/></svg>