<svg xmlns="http://www.w3.org/2000/svg" width="200" height="200"><path fill="#D6E5EA" d="M44.322 122.523c.695 4.166 1.941 9.722 2.635 13.541l105.871.183c0-5.53 2.156-12.063 2.258-14.418"/><path fill="#45A98E" d="M43.599 122.723c.791 4.53 1.786 9.021 2.635 13.541.061.324.411.551.723.551 35.29.063 70.581.123 105.871.185.419.001.736-.342.75-.75.162-4.938 1.764-9.554 2.258-14.418.098-.962-1.402-.952-1.5 0-.136 1.34-3.167 13.665-1.521 13.668l-1.705-.003-10.733-.02c-12.994-.021-25.987-.045-38.983-.067-13.302-.021-26.603-.045-39.902-.067l-11.882-.021-2.451-.006c.405.002-1.854-11.526-2.11-12.989-.17-.955-1.615-.552-1.45.396z"/><path fill="#FFF" d="M43.281 122.523c-.347-1.043-.322-2.086-.347-3.475-.174-9.55 6.597-8.333 15.278-8.333h95.485l.348.694c0 3.473 1.042 6.943 1.042 10.417"/><path fill="#45A98E" d="M44.004 122.324c-.954-4.217-.454-9.242 4.307-10.53 3.658-.989 8.067-.326 11.81-.326h91.627c1.512-.516 2.053.044 1.624 1.681.129 2.908.835 5.766.965 8.683.043.964 1.543.968 1.5 0-.155-3.515.054-8.399-1.489-11.49-.115-.231-.396-.372-.648-.372H58.215c-3.443 0-6.895-.246-10.299.381-5.75 1.063-6.431 7.621-5.354 12.377.209.938 1.655.538 1.442-.404z"/><path fill="#45A98E" d="M44.322 122.926c18.709-.813 37.419-.189 56.134-.023 18.099.162 36.19-.773 54.282.023.969.043.964-1.457 0-1.5-18.09-.799-36.187.098-54.282-.023-18.718-.125-37.422-.788-56.134.023-.963.043-.967 1.543 0 1.5z"/><path fill="#45A98E" d="M95.74 121.758c1.281-4.986 9.152-4.916 10.445 0 .246.936 1.692.538 1.446-.398-1.669-6.344-11.69-6.42-13.339 0-.239.937 1.207 1.333 1.448.398z"/><path fill="#D6E5EA" d="M149.375 121.559c.688-1.686 1.375-4.057 4.625-3.59h.762l.324 3.86-5.711-.27z"/><path fill="#45A98E" d="M150.1 121.758c.381-.947.732-2.041 1.592-2.672.886-.648 2.055-.367 3.07-.367l-.75-.75c.108 1.287.217 2.573.324 3.86l.75-.75-5.711-.271c-.968-.047-.963 1.455 0 1.5l5.711.271c.385.019.783-.354.75-.75-.107-1.287-.216-2.573-.324-3.86-.033-.408-.313-.75-.75-.75-1.43 0-2.779-.195-4.01.707-1.128.827-1.598 2.188-2.102 3.434-.36.897 1.091 1.285 1.45.398z"/><path fill="#D6E5EA" d="M42.76 118.01c2.604.174 4.861 1.215 6.077 3.473v.732l-5.586.656-.491-4.861z"/><path fill="#45A98E" d="M42.76 118.76c1.882.155 5.327 1.18 5.327 3.455l.75-.75-5.586.656.75.75-.49-4.861c-.096-.953-1.597-.963-1.5 0l.49 4.861c.037.367.315.801.75.75l5.586-.656c.406-.048.75-.305.75-.75 0-3.27-4.127-4.732-6.827-4.955-.965-.08-.957 1.422 0 1.5z"/><path fill="#D6E5EA" d="M149.184 111.76c.521 1.563 2.433 2.258 3.994 2.432H154l-.65-3.474h-4.475l.309 1.042z"/><path fill="#45A98E" d="M148.459 111.959c.875 2.241 3.322 2.98 5.541 2.98.52 0 .813-.477.725-.949a928.167 928.167 0 0 1-.649-3.473c-.063-.324-.411-.553-.726-.553h-4.475c-.48 0-.861.479-.725.95l.309 1.045c.273.926 1.723.53 1.447-.398l-.309-1.041c-.24.315-.481.633-.725.948h4.477c-.242-.185-.482-.366-.726-.551.217 1.156.435 2.313.649 3.474.24-.316.481-.634.725-.949-1.458 0-3.487-.33-4.096-1.881-.342-.891-1.794-.504-1.442.398z"/><path fill="#D6E5EA" d="M44.322 115.059c2.604.174 5.208-1.216 5.729-3.819v-.747s-4.526-.077-5.729 2.291c-1.203 2.366 0 2.275 0 2.275z"/><path fill="#45A98E" d="M44.322 115.809c3.215.137 6.479-1.846 6.479-5.316a.757.757 0 0 0-.75-.75c-1.926-.021-4.008.402-5.538 1.615-.939.746-2.622 4.544-.191 4.451.964-.037.968-1.537 0-1.5-.042.002.138.035.196.121-.121-.177.401-1.164.451-1.27.368-.768 1.189-1.174 1.951-1.439.987-.348 2.085-.492 3.131-.479l-.75-.75c0 2.658-2.6 3.92-4.979 3.816-.968-.04-.963 1.46 0 1.501z"/><path fill="#FFF" d="M64.3 136.424l.778-4.713-15.963-5.645 1.364 16.791 4.717.545 4.722-2.613z"/><path fill="#45A98E" d="M65.023 136.623l.778-4.713c.07-.426-.107-.773-.524-.922l-15.963-5.646c-.438-.154-.987.256-.949.725l1.365 16.791c.036.443.317.699.75.75l4.607.531c1.014.116 2.611-1.266 3.434-1.721 2.514-1.393 4.273-3.438 6.31-5.466.686-.685-.375-1.744-1.061-1.062-1.728 1.721-3.315 3.74-5.454 4.926-1.028.568-2.963 1.852-3.53 1.785l-4.306-.498.75.75-1.365-16.791c-.316.242-.633.482-.949.725l15.963 5.646-.524-.923-.778 4.714c-.157.946 1.289 1.352 1.446.399z"/><path fill="#FFF" d="M64.349 132.133l-3.429 1.851-7.058 5.411-2.782 3.23"/><path fill="#45A98E" d="M63.97 131.486c-5.119 2.764-9.626 6.203-13.42 10.606-.628.729.428 1.796 1.061 1.062 3.653-4.241 8.021-7.621 13.117-10.373.851-.461.093-1.756-.758-1.295z"/><path fill="#FFF" d="M61.13 139.447c.283-.764.258-2.348-.069-3.012-.229-.465-.168-.875-.362-1.367"/><path fill="#45A98E" d="M61.853 139.648c.507-1.592.051-3.25-.431-4.777-.29-.919-1.738-.525-1.446.398.398 1.264.852 2.657.431 3.979-.295.925 1.154 1.316 1.446.4z"/><path fill="#FFF" d="M60.518 134.477c-.618-.808-1.343-1.396-2.232-1.901-1.177-.698-2.203-1.56-3.313-2.354-.785-.544-1.531-1.158-2.372-1.66-.481-.27-.971-.487-1.474-.789-.46-.239-.916-.717-1.417-.834"/><path fill="#45A98E" d="M61.048 133.945c-1.396-1.668-3.423-2.676-5.148-3.971-1.794-1.347-3.753-2.779-5.812-3.686-.876-.389-1.641.904-.757 1.295 1.859.816 3.617 2.104 5.263 3.282 1.784 1.28 3.983 2.45 5.394 4.138.621.746 1.676-.321 1.06-1.058z"/><path fill="#FFF" d="M58.423 141.523c-1.208-.08-3.049-1.23-3.957-1.996"/><path fill="#45A98E" d="M58.423 140.773c-1.223-.129-2.501-1.017-3.426-1.776-.74-.608-1.808.444-1.061 1.062 1.271 1.045 2.817 2.039 4.487 2.217.962.1.952-1.401 0-1.503z"/><path fill="#FFF" d="M53.847 139.314c-.068-1.045-.72-2.191-1.049-3.219-.362-1.188-.724-2.375-1.165-3.547-.408-1.012-.84-2.055-1.171-3.082-.232-.781-.183-1.551-.525-2.294"/><path fill="#45A98E" d="M54.57 139.115c-.321-1.975-1.264-3.981-1.897-5.883a381.705 381.705 0 0 1-2.013-6.258c-.29-.918-1.738-.525-1.446.397.662 2.104 1.26 4.167 2.013 6.258.671 1.861 1.579 3.931 1.897 5.884.154.955 1.6.55 1.446-.398z"/><path fill="#FFF" d="M39.995 106.843c12.136-1.323 14.349 9.99 11.242 18.589 1.889-.613 3.881-1.007 5.387.207-1.912 2.549-7.156 5.291-10.277 5.938-.271-1.242.069-2.504 1.026-3.775l.552-.809c-7.464-1.976-13.966-11.815-9.247-18.979l1.317-1.171z"/><path fill="#45A588" d="M39.995 107.593c10.816-.776 13.42 8.938 10.519 17.64-.184.552.394 1.068.922.922 1.325-.706 2.626-.771 3.904-.19-1.158 1.313-2.921 2.22-4.431 3.063a20.891 20.891 0 0 1-3.65 1.537c-.876.306.976-2.697 1.313-3.19.285-.418-.015-.964-.448-1.103-6.966-2.238-14.748-12.559-7.599-18.896.725-.643-.34-1.7-1.061-1.061-4.234 3.752-3.571 9.475-1.057 14.076 1.519 2.78 4.095 4.879 6.825 6.377 1.068.588 1.77.25 1.493.653-.949 1.392-1.218 2.505-1.129 4.154.026.487.458.852.949.724 3.959-1.031 7.877-3.033 10.608-6.13.305-.346.3-.94-.152-1.178-2.063-1.074-3.73-.904-5.965-.284.307.309.615.613.922.923 3.251-9.748-.256-20.379-11.965-19.538-.957.07-.964 1.571.002 1.501z"/><path fill="#FFF" d="M31.006 56.335c7.285 6.043 2.18 13.38-4.285 16.29 1.36.721 2.655 1.618 2.792 3.112-2.452.311-6.809-1.129-8.852-2.519.545-.821 1.432-1.313 2.657-1.467l.748-.128c-2.928-5.222-.956-14.153 5.58-15.391l1.36.103z"/><path fill="#45A588" d="M30.476 56.865c6.163 5.636 2.181 12.021-4.133 15.112-.517.253-.459 1.026 0 1.295l2.447 2.664.723-.949c-2.973.139-5.955-.886-8.474-2.417l.152 1.178c1.023-1.104 1.903-1.201 3.073-1.402.506-.087.647-.707.448-1.102-2.51-4.996-.89-14.703 6.294-14.159.965.073.958-1.427 0-1.5-8.372-.634-10.577 10.471-7.589 16.416l.448-1.102c-1.581.271-2.636.601-3.735 1.788a.76.76 0 0 0 .152 1.178c2.737 1.664 6.002 2.772 9.23 2.622.475-.022.868-.464.723-.949-.537-1.802-1.544-2.627-3.136-3.56v1.295c7.314-3.58 11.238-11.249 4.437-17.468-.712-.652-1.776.406-1.06 1.06z"/><path fill="#FFF" d="M60.394 122.615c9.999-10.467 20.642-1.893 24.389 8.279 1.246-1.998 2.754-3.877 5.046-3.924.21 3.77-2.453 10.262-4.792 13.229-1.194-.92-1.848-2.322-1.95-4.209l-.117-1.153c-8.279 3.907-21.689-.056-22.878-10.155l.302-2.067z"/><path fill="#45A588" d="M60.924 123.146c9.279-8.935 19.077-2.188 23.135 7.946.242.604.987.755 1.371.181.976-1.459 4.275-5.998 3.271-.938-.35 1.764-1.083 3.521-1.786 5.148-.519 1.207-1.192 2.332-1.883 3.443-.372.598-1.293-3.889-1.313-4.093-.062-.604-.581-.881-1.128-.647-8.002 3.408-23.088-.347-21.474-11.375.139-.943-1.307-1.353-1.446-.396-1.819 12.429 14.382 17.025 23.677 13.066-.376-.215-.752-.432-1.128-.646.239 2.354.555 4.19 2.287 5.896.37.363.897.235 1.178-.151 2.79-3.867 4.844-8.794 4.895-13.608.005-.521-.48-.81-.949-.725-2.66.484-4.03 2.079-5.495 4.27.457.062.914.119 1.371.181-4.542-11.341-15.593-18.285-25.642-8.609-.699.669.363 1.727 1.059 1.057z"/><path fill="#FFF" d="M70.59 103.258c5.122-2.688 8.059 1.917 8.179 6.248.727-.598 1.539-1.115 2.412-.843-.401 1.455-2.238 3.573-3.503 4.399-.335-.5-.404-1.115-.202-1.842l.103-.453c-3.634.424-8.208-2.789-7.369-6.768l.38-.741z"/><path fill="#45A588" d="M70.968 103.906c4.308-2.047 6.833 1.621 7.051 5.6.028.508.64 1.018 1.128.646.546-.533 1.224-.78 2.034-.739l-.723-.949c-.561 1.578-1.812 2.979-3.158 3.952l1.026.27c-.302-.66-.156-1.133-.023-1.718.102-.446-.215-.983-.723-.948-3.083.211-8.256-2.629-6.342-6.381.439-.859-.855-1.619-1.295-.759-2.421 4.745 3.276 8.938 7.637 8.64l-.723-.949c-.248 1.091-.289 1.859.175 2.873.159.349.717.492 1.026.27 1.683-1.213 3.146-2.874 3.848-4.849.178-.5-.275-.902-.723-.949-1.151-.122-1.874.254-2.791.944.376.217.752.433 1.128.646-.287-5.244-3.951-9.439-9.308-6.895-.874.414-.112 1.707.756 1.295z"/><path fill="#FFF" d="M34.825 80.087c13.937-7.849 22.433 4.638 23.121 16.596 1.959-1.711 4.158-3.212 6.597-2.525-.99 4.055-5.892 10.063-9.32 12.449-.966-1.358-1.208-3.053-.709-5.078l.249-1.258c-10.01 1.467-22.914-7.035-20.922-18.097l.984-2.087z"/><path fill="#45A588" d="M35.204 80.734c12.624-6.57 21.032 3.937 21.992 15.949.054.681.763.954 1.28.53.688-.563 5.865-3.679 4.027-.114-.832 1.613-2.022 3.111-3.147 4.51-.866 1.076-1.856 2.041-2.852 2.996-1.973 1.893-1.111-3.672-1.019-4.137.085-.432-.205-1.005-.723-.949-9.655 1.041-24.657-7.688-19.289-19.055.411-.869-.882-1.631-1.295-.757-2.888 6.114-.064 12.941 5.244 16.859 3.083 2.275 6.718 4.049 10.58 4.451a26.3 26.3 0 0 0 3.594.129l.319-.446c-.145.69-.265 1.386-.36 2.085-.25 1.548.305 2.885 1.021 4.199.178.328.706.511 1.026.269 4.232-3.198 8.076-7.771 9.665-12.896.158-.508-.26-.896-.723-.949-2.951-.34-4.889.914-7.127 2.745l1.28.53C57.63 83.344 48.05 72.359 34.447 79.439c-.859.447-.1 1.742.757 1.295z"/><path fill="#FFF" d="M160.109 108.109c2.705 2.964 6.115-.549 9.246.9 2.719 1.068 3.824 4.229 3.256 6.989-1.338 4.438-8.422 4.103-10.334 8.044-1.396 2.872 4.722 1.641 4.722 1.641.403 2.688-.888 10.707-9.138 12.666-2.248.53-2.094-5.92-2.965-4.341-1.472 2.657-3.002 5.247-5.27 7.257-5.016 4.672-12.164 4.949-15.302-2.929-1.313-3.63-.276-9.389 4.345-9.142 1.686-.163 5.426 2.701 5.076 4.81-.577 3.324-4.225 1.259-3.334-1.921-4.842.402-2.348 9.119 2.715 8.063 6.119-1.517 3.201-10.047 3.914-15.388.492-4.687 3.625-10.228 8.777-10.487 1.475-.073 5.535 2.375 6.714 1.028 2.241-2.362-3.396-4.973-3.9-6.151.11-.328.425-.185.745-.603l.733-.436z"/><path fill="#44A98D" d="M159.579 108.641c1.729 1.373 3.002 1.561 5.192 1.211 4.444-.707 8.777 2.078 6.787 6.713-.711 1.65-3.258 2.541-4.781 3.218-1.746.776-7.473 3.677-4.771 6.334.878.864 2.842.587 3.905.483 1.705-.164.431-.01.389-.42.114 1.119-.131 2.264-.381 3.348-.407 1.772-1.332 3.334-2.462 4.734-.729.901-5.109 4.571-6.32 2.889-.744-1.032-.361-3.405-1.646-4.03-.292-.144-.677-.146-.909.116-3.848 4.354-5.452 10.005-12.244 10.572-4.568.383-7.52-4.521-7.783-8.466-.171-2.53 1.012-5.229 4.118-5.396l2.06.791c2.554 2.07 2.695 2.52.435 1.346.063-.518-.521-.811-.949-.725-4.452.914-3.487 6.117-.854 8.56 4.453 4.129 8.226-2.271 8.505-6.032.353-4.732-.771-8.908 1.177-13.492 1.293-3.043 4.52-6.102 8.087-5.082 1.644.47 3.103 1.205 4.843 1.076 1.096-.082 2.185-1.654 1.793-2.723-.619-1.688-4.543-4.148-3.272-4.911.828-.497.073-1.794-.759-1.295-.579.349-1.125.701-1.627 1.156-.229.207-.31.651-.116.909.646.873 1.506 1.476 2.354 2.146 1.226.668 1.271 1.718.139 3.149-.995-.164-2.004-.629-2.954-.957-2.259-.776-4.976.047-6.691 1.668-2.608 2.466-3.983 5.496-4.516 9.025-.638 4.248 1.041 8.846-.744 12.914-1.838 2.377-3.761 2.649-5.763.82-2.293-2.125-.541-2.941-.283-5.079-.073.613.381 1.864.865 2.279 1.246 1.065 2.332 1.256 3.537.042 1.24-1.246.353-3.541-.664-4.553-2.006-2.004-4.002-3.016-6.813-2.172-5.01 1.5-3.637 9.651-1.307 12.633 4.658 5.957 11.299 3.975 16.086-.701 1.462-1.43 2.531-3.303 3.566-5.036.018-.983.1-1.013.245-.087.136.548.271 1.119.503 1.637 1.118 2.494 2.723 1.878 5.012.951 4.723-1.912 7.695-7.553 7.188-12.525-.052-.511-.438-.82-.949-.725-.766.145-1.533.204-2.312.236-3.997.164 2.053-3.672 3.047-4.119 2.289-1.03 5.062-2.195 5.8-4.879.734-2.676-.438-5.365-2.382-7.141-3.045-2.775-7.215.98-10.313-1.479-.756-.588-1.827.466-1.068 1.069z"/><path fill="#FFF" d="M129.73 122.896l-3.843 2.834 7.5 15.18 10.733-12.983-2.999-3.681-5.206-1.422z"/><path fill="#45A98E" d="M129.352 122.248c-1.281.945-2.563 1.891-3.845 2.834-.347.256-.465.629-.269 1.025l7.5 15.182c.201.408.88.512 1.178.15l10.734-12.982c.281-.34.275-.721 0-1.061-.974-1.193-1.943-2.386-2.916-3.578-.66-.813-2.729-.928-3.662-1.185-2.776-.758-5.461-.521-8.342-.487-.967.01-.969 1.51 0 1.5 2.433-.028 4.978-.373 7.334.27.799.219 3.438.754 3.608.963.974 1.193 1.943 2.385 2.915 3.578v-1.061l-10.732 12.981c.393.052.785.103 1.178.149-2.5-5.059-5-10.117-7.5-15.18l-.27 1.025 3.846-2.834c.77-.56.023-1.863-.757-1.289z"/><path fill="#FFF" d="M126.702 125.938l3.748 1.063 8.831 1.047 4.246-.374"/><path fill="#45A98E" d="M126.503 126.66c5.597 1.59 11.229 2.273 17.024 1.764.957-.084.965-1.585 0-1.5-5.685.5-11.159-.158-16.627-1.711-.931-.264-1.326 1.183-.397 1.447z"/><path fill="#FFF" d="M134.111 122.939c-.736.353-1.822 1.504-2.053 2.207-.16.494-.49.744-.693 1.231"/><path fill="#45A98E" d="M133.732 122.293c-.684.355-1.258.92-1.732 1.516-.25.313-.475.642-.617 1.019-.162.425-.469.767-.665 1.175-.417.866.876 1.629 1.296.758.146-.306.34-.572.521-.857.179-.281.261-.609.438-.896a4.12 4.12 0 0 1 1.519-1.415c.856-.452.097-1.747-.76-1.3z"/><path fill="#FFF" d="M131.081 126.93c-.12 1.01-.011 1.938.272 2.92.354 1.322.492 2.653.731 3.998.185.938.288 1.898.541 2.844.156.529.354 1.026.506 1.596.161.492.156 1.15.435 1.586"/><path fill="#45A98E" d="M130.331 126.93c-.138 2.144.569 4.209.897 6.313.354 2.264.754 4.696 1.613 6.827.358.886 1.811.5 1.447-.397-.764-1.885-1.132-4.028-1.479-6.022-.381-2.17-1.121-4.521-.979-6.719.065-.968-1.437-.961-1.499-.002z"/><path fill="#FFF" d="M137.499 123.34c.81.9 1.325 3.01 1.44 4.191"/><path fill="#45A98E" d="M136.969 123.871c.786.947 1.09 2.467 1.223 3.66.104.951 1.605.961 1.5 0-.182-1.635-.59-3.43-1.662-4.721-.619-.746-1.675.323-1.061 1.061z"/><path fill="#FFF" d="M139.236 128.115c-.68.797-1.014 2.074-1.493 3.039-.568 1.104-1.138 2.205-1.638 3.353-.414 1.011-.832 2.06-1.313 3.024-.379.724-.95 1.24-1.226 2.012"/><path fill="#45A98E" d="M138.59 127.736c-1.188 1.695-1.936 3.84-2.824 5.709-.916 1.928-1.94 3.806-2.843 5.719-.409.869.884 1.632 1.295.758.905-1.924 1.96-3.759 2.843-5.72.832-1.847 1.67-4.058 2.824-5.708.556-.795-.744-1.543-1.295-.758z"/><path fill="#FFF" d="M87.588 124.52l-2.708 4.767 14.953 12.414 5.192-18.627-4.863-2.459-6.122.94z"/><path fill="#45A98E" d="M86.94 124.141c-.902 1.59-1.806 3.178-2.708 4.769-.155.272-.142.692.117.907 4.984 4.141 9.969 8.277 14.953 12.416.424.354 1.092.25 1.255-.332 1.729-6.209 3.461-12.418 5.191-18.627.086-.309-.049-.695-.346-.848l-4.729-2.391c-1.001-.508-2.756.17-3.775.324-3.582.553-6.38 1.99-9.692 3.512-.878.404-.115 1.697.758 1.295 2.562-1.176 5.067-2.703 7.859-3.131.974-.15 4.235-.633 4.094-.703l2.296 1.16 1.382.697c1.209.609.471.533.693-.271-1.729 6.191-3.454 12.391-5.182 18.582.418-.107.836-.223 1.254-.33-3.433-2.852-6.864-5.697-10.297-8.549l-4.516-3.75c-.274-.266-.257-.045.053.656.292-.514.585-1.027.877-1.545.585-1.027 1.17-2.059 1.755-3.088.482-.839-.814-1.595-1.292-.753z"/><path fill="#FFF" d="M85.832 129.121l4.428-.633 9.749-3.027 4.279-2.377"/><path fill="#45A98E" d="M86.031 129.846c6.613-.947 12.798-2.873 18.636-6.113.847-.471.089-1.766-.758-1.295-5.718 3.174-11.802 5.033-18.276 5.961-.954.136-.547 1.581.398 1.447z"/><path fill="#FFF" d="M92.202 122.52c-.608.711-1.21 2.426-1.121 3.271.062.592-.167 1.01-.152 1.617"/><path fill="#45A98E" d="M91.672 121.988c-1.222 1.572-1.403 3.502-1.493 5.42-.045.967 1.455.963 1.5 0 .067-1.443.124-3.162 1.054-4.359.585-.754-.468-1.822-1.061-1.061z"/><path fill="#FFF" d="M90.888 128.119c.346 1.113.894 2.035 1.651 2.934.99 1.221 1.754 2.553 2.635 3.85.628.896 1.188 1.855 1.895 2.729.411.481.852.912 1.276 1.437.399.443.7 1.136 1.194 1.462"/><path fill="#45A98E" d="M90.164 128.318c.846 2.357 2.58 4.226 3.93 6.311 1.436 2.219 3.009 4.588 4.915 6.43.695.672 1.759-.389 1.061-1.061-1.632-1.576-2.986-3.611-4.248-5.475-1.402-2.072-3.365-4.244-4.21-6.604-.325-.903-1.775-.515-1.448.399z"/><path fill="#FFF" d="M95.941 121.357c1.269.564 2.795 2.535 3.469 3.721"/><path fill="#45A98E" d="M95.563 122.004c1.388.674 2.444 2.152 3.2 3.453.485.836 1.782.08 1.295-.758-.876-1.506-2.132-3.211-3.737-3.99-.868-.42-1.629.873-.758 1.295z"/><path fill="#FFF" d="M99.994 125.553c-.341 1.152-.095 2.646-.146 3.885-.082 1.422-.164 2.845-.153 4.279.039 1.254.091 2.547.039 3.785-.06.934-.418 1.742-.345 2.68"/><path fill="#45A98E" d="M99.271 125.354c-.41 2.365-.242 4.888-.318 7.289-.08 2.529-.192 5.021-.313 7.539-.047.969 1.453.963 1.5 0 .106-2.201.375-4.238.306-6.465-.079-2.506-.154-5.5.273-7.965.162-.945-1.283-1.352-1.448-.398z"/><path fill="#FFF" d="M99.773 132.839c1.861.248 4.002.076 5.795-.021 1.425-.076 5.205.035 6.228.092.251 1.729.945 6.744 1.513 10.238.034.217.068.429.104.631 0 0 .598 1.481 1.374-.793.478-1.387 2.868-7.213 3.34-9.455 2.174.316 7.336 1.1 8.642 1.289.34.033 1.01.275 1.604.055 1.04-.391.232-1.332.232-1.332-.799-.575-1.304-.979-2.379-1.754-1.808-1.307-4-2.756-5.8-4.129 0 0 1.526-3.951 2.19-5.484.574-1.324 1.242-2.688 1.627-4.025.318-1.114-.907-.832-.907-.832-1.287 1.041-2.834 2.324-3.505 2.922-1.9 1.691-3.002 2.085-4.786 3.283-2.495-2.133-8.185-7.695-8.692-7.467-.64.289-.606.807-.606.807 1.165 3.516 3.692 8.518 4.312 10.38-3.543 1.375-7.318 2.685-10.613 4.646-.004-.003-.705.809.327.949z"/><path fill="#44A98D" d="M99.773 133.589c2.245.181 4.437.017 6.68-.044 1.954-.053 4.564-.827 4.882 1.402.353 2.469-.011 8.068 1.94 9.82.188.168.477.289.729.19 2.479-.942 3.615-7.312 4.357-9.519 1.056-3.127 7.809 1.588 10.385.08 3.072-1.801-2.633-4.727-3.563-5.385-.211-.15-3.865-2.729-3.953-2.502.453-1.17.916-2.338 1.381-3.504.771-1.939 2.572-4.502 2.283-6.693-.045-.344-.195-.617-.549-.725-3.65-1.094-6.926 7.961-10.25 4.969-1.326-1.193-5.83-6.934-7.947-6.352-3.084.85.943 6.904 1.586 8.352.479 1.078 2.203 2.801.586 3.422-1.609.619-3.24 1.209-4.815 1.916-1.532.688-4.677 1.323-5.001 3.312-.055.333.03.668.345.847.181.104.363.206.544.311.843.478 1.598-.818.757-1.295.332.188 5.733-2.547 5.475-2.438 1.525-.633 3.084-1.196 4.626-1.788.354-.137.679-.512.522-.922a52.512 52.512 0 0 0-1.207-2.918l-1.104-2.479c.42.944-1.783-4.572-1.422-4.291 2.639 2.041 4.963 4.504 7.473 6.699.248.217.609.305.907.116 1.201-.762 2.534-1.442 3.64-2.344.854-.695 5.146-5.263 3.498-1.366a244.245 244.245 0 0 0-2.857 6.999c-.129.334.093.661.345.849a205.87 205.87 0 0 0 4.386 3.125c.328.229 4.432 2.944 1.877 2.566-2.662-.395-5.322-.802-7.983-1.191-.396-.059-.813.094-.925.523-.77 3.054-2.024 5.977-3.143 8.913-.619 1.631-.773-2.845-.888-3.615-.293-1.973-.567-3.946-.851-5.92-.049-.335-.422-.537-.726-.551-4.006-.179-8.037.245-12.023-.071-.962-.075-.955 1.427.003 1.502z"/><path fill="#FFF" d="M43.376 166.564c19.748.399 95.737.402 113.793.402v-.347c.729-9.793-.694-20.834-1.39-30.558-20.485 0-41.318.349-61.804.349H67.586c-7.292 0-14.789-.315-23.958.348-.347 8.119-.752 21.39-.252 29.806"/><path fill="#45A98E" d="M43.376 167.314c37.916.744 75.871.402 113.793.402.409 0 .75-.341.75-.75 0-10.387-.612-20.535-1.39-30.902-.029-.406-.317-.75-.75-.75-19.319.01-38.639.297-57.959.344-18.01.045-36.216-.831-54.192.354-.421.026-.732.319-.75.75-.414 9.916-.774 19.885-.252 29.805.051.961 1.551.968 1.5 0-.32-6.071-.257-12.153-.13-18.229.062-2.999.166-5.997.277-8.994.127-3.39 7.701-2.215 10.338-2.245 15.039-.176 30.093.098 45.134.061 16.112-.039 32.226-.258 48.338-.324 1.925-.008 3.851-.012 5.774-.014 1.976-.004 1.502 3.422 1.593 4.506.306 3.637.622 7.271.868 10.912.244 3.625.33 7.252.271 10.884-.021 1.221-.173 2.458-.173 3.678 0-.924-.205-.577-1.358-.577-35.086 0-70.182.092-105.267-.307a686.756 686.756 0 0 1-6.418-.098c-.965-.024-.963 1.476.003 1.494z"/><path fill="#45A98E" d="M94.267 137.105c-.306 3.797 1.317 8.713 5.762 9.11 4.911.438 6.776-4.733 6.849-8.764.009-.418-.349-.737-.75-.75-3.704-.116-7.408-.229-11.111-.349-.968-.03-.965 1.47 0 1.5 3.704.115 7.407.23 11.111.349l-.75-.75c-.058 3.124-1.177 7.381-5.043 7.291-3.772-.089-4.805-4.698-4.568-7.64.077-.959-1.423-.954-1.5.003z"/><path fill="#D6E5EA" d="M43.334 158.127c5.034 1.216 6.075 3.486 6.075 8.521l-5.825-.188-.25-8.333z"/><path fill="#45A98E" d="M43.135 158.852c1.683.428 3.433 1 4.477 2.482 1.049 1.488 1.036 3.574 1.047 5.313l.75-.75-5.825-.188.75.75-.25-8.333c-.029-.965-1.529-.968-1.5 0l.25 8.333a.762.762 0 0 0 .75.75l5.825.188c.407.015.753-.351.75-.75-.014-2.082-.131-4.252-1.252-6.068-1.147-1.86-3.367-2.663-5.374-3.176-.938-.238-1.335 1.208-.398 1.449z"/><path fill="#D6E5EA" d="M156.648 161.064c-2.433-.349-5.563 3.431-5.392 5.688l5.392.216v-5.904z"/><path fill="#45A98E" d="M156.648 160.314c-3.061-.274-6.229 3.541-6.142 6.438a.765.765 0 0 0 .75.75l5.392.216c.408.017.75-.354.75-.75v-5.901c0-.969-1.5-.969-1.5 0v5.901l.75-.75-5.392-.216.75.75c-.063-2.133 2.386-5.141 4.642-4.938.963.088.956-1.414 0-1.5z"/><path fill="#D6E5EA" d="M149.703 136.934c.174 3.299 3.299 5.209 6.25 5.209l-.516-5.896-5.734-.173v.86z"/><path fill="#45A98E" d="M148.953 136.934c.313 3.66 3.482 5.877 7 5.959.382.008.785-.35.75-.75l-.516-5.896c-.037-.417-.313-.737-.75-.75l-5.734-.173c-.409-.014-.75.351-.75.75v.86c0 .969 1.5.969 1.5 0v-.858l-.75.75c1.91.059 3.822.114 5.734.174l-.75-.75.516 5.896.75-.75c-2.637-.062-5.26-1.636-5.5-4.457-.082-.96-1.582-.968-1.5-.005z"/><path fill="#D6E5EA" d="M44.149 142.837c4.34 0 6.597-2.084 5.902-6.599l-6.423.521-.252 6.077.773.001z"/><path fill="#45A98E" d="M44.149 143.587c1.953-.026 3.94-.397 5.37-1.825 1.495-1.494 1.524-3.775 1.256-5.723-.042-.307-.426-.575-.723-.551l-6.423.521c-.421.034-.732.315-.75.75l-.252 6.077c-.017.409.354.75.75.75l.772.001c.967 0 .967-1.5 0-1.5h-.773l.75.75.252-6.077-.75.75 6.423-.521c-.241-.185-.482-.366-.723-.552.203 1.476.162 3.093-.87 4.265-1.043 1.183-2.839 1.366-4.309 1.387-.966.011-.968 1.511 0 1.498z"/><path fill="#44A98E" d="M99.972 139c-2.032 2.822 3.824 1.402.883 0-.001 0-.569-.436-.883 0z"/><path fill="#45A98E" d="M99.324 138.621c-.538.766-.853 1.844.037 2.482.605.436 1.483.297 2.12.021.771-.332 1.164-1.085.813-1.874-.172-.391-.614-.668-.974-.855-.637-.334-1.314-.531-1.879.073-.659.706.4 1.771 1.061 1.062-.252-.008-.293.009-.122.047-.058-.018.079.06.083.063.104.068.225.116.331.182.173.104.05.016.174.138.132.13-.077-.127.011.015.084.135-.049-.164-.014-.021-.039-.148-.023-.152.037-.286-.064.146.111-.087-.063.067.17-.15-.021.006-.08.037-.039.021-.195.082-.004.006-.049.021-.1.035-.147.051-.084.025-.17.043-.256.058.224-.038-.053-.004-.11-.004a1.13 1.13 0 0 1-.1-.004c-.173-.011.175.032.01-.001-.236-.049.04.049-.101-.039.052.031.156.193.084.061.103.19.028-.043.049.17-.005-.049.02-.205-.012-.01.042-.264.154-.399.347-.675.559-.8-.744-1.549-1.295-.764z"/><path fill="#45A98E" d="M101.365 142.555v-2.992c0-.969-1.5-.969-1.5 0v2.992c.001.966 1.5.966 1.5 0zm21.265-5.43c6.962.089 12.496 2.863 12.078 10.898-.196 3.763-1.294 7.041.418 10.604 1.37 2.854 4.704 4.93 6.983 6.977 3.154 2.832 3.888 6.367 2.052 10.303-1.765 3.781-6.445 2.91-9.325 1.492-11.152-5.488-4.564-18.035-6.561-27.23-1.328-6.119-5.782-13.871-12.646-14.542-.963-.095-.953 1.407 0 1.5 7.883.771 11.46 11.319 11.413 17.878-.041 5.751-1.489 11.583.67 17.127 2.392 6.141 11.755 10.975 16.999 5.604 2.057-2.105 2.758-6.695 1.412-9.32-2.489-4.855-8.703-6.932-10.363-12.232-1.627-5.201 2.649-11.02-1.306-15.88-3.127-3.843-7.052-4.612-11.825-4.674-.967-.019-.966 1.481.001 1.495z"/><path fill="#D6E5EA" d="M140.163 161.066c-2.864-.397-2.864 3.42-.317 3.58 1.271.078 1.828-.797 1.75-1.988-.08-1.114-.477-1.352-1.513-1.75"/><path fill="#45A98E" d="M140.163 160.316c-1.296-.146-2.513.482-2.864 1.789-.313 1.162.301 2.41 1.333 2.973 1.39.756 3.097.189 3.604-1.314.229-.683.168-1.664-.172-2.304-.373-.708-1.071-.997-1.781-1.274-.902-.354-1.289 1.099-.398 1.446.786.308 1.094.666.945 1.567-.139.848-1.071.83-1.665.451-.405-.258-.504-.828-.39-1.256.166-.615.873-.637 1.389-.578.96.108.949-1.393-.001-1.5z"/><path fill="#D6E5EA" d="M145.797 169.555c-2.863-.397-2.863 3.42-.316 3.578 1.271.08 1.828-.795 1.75-1.988-.08-1.112-.479-1.352-1.513-1.75"/><path fill="#45A98E" d="M145.797 168.805c-1.296-.145-2.512.483-2.863 1.789-.313 1.162.301 2.41 1.334 2.971 1.392.756 3.096.191 3.604-1.313.229-.684.168-1.664-.171-2.305-.375-.707-1.072-.998-1.782-1.275-.899-.354-1.289 1.098-.397 1.447.785.308 1.094.667.944 1.568-.139.846-1.069.828-1.665.451-.404-.26-.504-.83-.39-1.258.166-.613.873-.635 1.388-.576.959.106.948-1.396-.002-1.499z"/><path fill="#D6E5EA" d="M135.212 152.336c-2.862-.398-2.862 3.42-.317 3.579 1.272.079 1.83-.796 1.75-1.988-.08-1.114-.478-1.353-1.512-1.75"/><path fill="#45A98E" d="M135.212 151.586c-1.296-.145-2.512.482-2.864 1.789-.313 1.162.301 2.41 1.334 2.973 1.389.756 3.096.189 3.604-1.313.229-.685.168-1.664-.17-2.306-.375-.707-1.072-.998-1.782-1.273-.9-.354-1.289 1.1-.396 1.445.785.309 1.092.666.943 1.568-.139.848-1.07.829-1.666.45-.402-.258-.504-.829-.389-1.255.166-.615.873-.637 1.388-.578.959.105.948-1.395-.002-1.5z"/><path fill="#D6E5EA" d="M131.755 174.012c-2.864-.396-2.864 3.422-.317 3.58 1.271.079 1.828-.796 1.75-1.988-.08-1.112-.479-1.353-1.513-1.75"/><path fill="#45A98E" d="M131.755 173.262c-1.296-.145-2.513.484-2.864 1.79-.313 1.162.301 2.41 1.334 2.972 1.392.756 3.096.19 3.604-1.313.229-.686.168-1.664-.171-2.304-.375-.71-1.072-.998-1.782-1.276-.899-.354-1.289 1.1-.397 1.447.785.308 1.094.667.944 1.566-.139.849-1.069.83-1.665.451-.404-.258-.504-.828-.39-1.255.166-.614.874-.636 1.389-.579.959.106.948-1.394-.002-1.499z"/><path fill="#D6E5EA" d="M135.212 142.646c-2.862-.396-2.862 3.42-.317 3.58 1.272.08 1.83-.795 1.75-1.988-.08-1.113-.478-1.354-1.512-1.75"/><path fill="#45A98E" d="M135.212 141.896c-1.296-.145-2.512.482-2.864 1.791-.313 1.16.301 2.408 1.334 2.971 1.389.756 3.096.191 3.604-1.313.229-.684.168-1.663-.17-2.305-.375-.708-1.072-.998-1.782-1.274-.9-.354-1.289 1.098-.396 1.445.785.309 1.092.667.943 1.566-.139.849-1.07.83-1.666.451-.402-.258-.504-.828-.389-1.256.166-.613.873-.635 1.388-.578.959.109.948-1.392-.002-1.498z"/><path fill="#D6E5EA" d="M142.17 177.132c-2.863-.397-2.863 3.42-.318 3.579 1.272.079 1.83-.796 1.75-1.988-.08-1.113-.478-1.353-1.512-1.75"/><path fill="#45A98E" d="M142.17 176.382c-1.296-.146-2.513.483-2.863 1.789-.313 1.162.299 2.41 1.332 2.972 1.391.756 3.096.19 3.604-1.313.229-.684.168-1.664-.171-2.305-.375-.707-1.072-.998-1.782-1.274-.901-.354-1.289 1.101-.397 1.447.785.307 1.092.666.944 1.567-.14.846-1.071.828-1.665.449-.404-.258-.504-.828-.39-1.255.166-.614.874-.636 1.389-.578.96.107.949-1.395-.001-1.499z"/><path fill="#D6E5EA" d="M127.551 162.523c-2.863-.398-2.863 3.42-.316 3.578 1.271.08 1.828-.795 1.75-1.988-.08-1.113-.479-1.354-1.512-1.75"/><path fill="#45A98E" d="M127.551 161.773c-1.296-.146-2.512.481-2.863 1.789-.313 1.162.302 2.41 1.334 2.971 1.391.757 3.097.191 3.604-1.313.229-.685.168-1.664-.171-2.306-.375-.707-1.072-.997-1.782-1.274-.901-.354-1.289 1.1-.397 1.446.787.308 1.094.666.945 1.567-.14.848-1.07.828-1.664.449-.406-.258-.506-.828-.392-1.254.166-.615.873-.637 1.388-.578.959.11.948-1.391-.002-1.497z"/><path fill="#D6E5EA" d="M127.551 149.232c-2.863-.398-2.863 3.42-.316 3.578 1.271.08 1.828-.795 1.75-1.988-.08-1.113-.479-1.353-1.512-1.75"/><path fill="#45A98E" d="M127.551 148.482c-1.296-.146-2.512.481-2.863 1.789-.313 1.162.302 2.41 1.334 2.971 1.391.757 3.097.191 3.604-1.313.229-.685.168-1.664-.171-2.306-.375-.707-1.072-.997-1.782-1.274-.901-.354-1.289 1.1-.397 1.446.787.308 1.094.667.945 1.568-.14.847-1.07.827-1.664.448-.406-.258-.506-.828-.392-1.254.166-.615.873-.637 1.388-.578.959.11.948-1.391-.002-1.497z"/><path fill="#D6E5EA" d="M123.922 139.592c-2.863-.398-2.863 3.42-.316 3.579 1.271.079 1.828-.795 1.75-1.987-.08-1.115-.479-1.354-1.513-1.75"/><path fill="#45A98E" d="M123.922 138.842c-1.296-.145-2.512.482-2.863 1.789-.313 1.162.301 2.41 1.334 2.973 1.391.756 3.096.189 3.604-1.313.229-.686.168-1.665-.171-2.307-.375-.707-1.072-.995-1.782-1.273-.901-.354-1.289 1.1-.397 1.446.787.308 1.094.668.944 1.567-.139.849-1.069.83-1.665.45-.404-.258-.504-.827-.39-1.255.166-.615.873-.637 1.388-.578.959.106.948-1.394-.002-1.499z"/><path fill="#FFF" d="M49.834 38.546c-7.038-5.675-12.938.494-14.438 7.096-.931-1.136-2.017-2.178-3.441-2.023.173 2.354 2.348 6.159 4.037 7.809.665-.667.957-1.588.868-2.765l-.02-.724c5.442 1.751 13.428-1.786 13.349-8.139l-.355-1.254z"/><path fill="#45A588" d="M50.212 37.898c-7.138-5.209-13.577.032-15.539 7.544l1.253-.331c-1.231-1.378-2.161-2.08-3.972-2.243-.535-.048-.788.512-.723.949.447 3.042 2.154 5.915 4.229 8.14.354.38.907.225 1.178-.152.904-1.257.993-2.336.95-3.867l-.949.723c6.209 1.678 16.1-2.587 13.917-10.316-.263-.93-1.71-.534-1.446.398 1.874 6.635-7.016 9.838-12.072 8.471-.46-.125-.963.232-.949.723.031 1.132.102 1.931-.745 3.11l1.178-.152c-1.904-2.041-3.435-4.693-3.844-7.478l-.723.949c1.255.213 2.226.814 2.911 1.803.378.424 1.116.194 1.253-.331 1.7-6.508 6.921-11.329 13.336-6.648.783.575 1.53-.728.757-1.292z"/><path fill="#FFF" d="M62.125 77.891c.905-.153 1.882-.542 2.707-.847.654-.241 2.438-.734 2.924-.855.367.772 1.415 3.017 2.184 4.568.048.096.094.19.14.279 0 0 .493.607.529-.568.021-.717.3-3.786.196-4.902 1.062-.166 3.588-.545 4.226-.643.163-.034.511-.017.756-.208.43-.332-.083-.655-.083-.655-.455-.155-.75-.271-1.365-.478-1.033-.349-2.268-.71-3.307-1.093 0 0 .143-2.068.232-2.881.078-.702.193-1.434.18-2.117-.011-.567-.543-.257-.543-.257-.452.672-.99 1.495-1.217 1.871-.645 1.066-1.103 1.408-1.764 2.227-1.475-.639-4.937-2.417-5.141-2.237-.257.228-.168.466-.168.466 1.051 1.474 2.956 3.448 3.513 4.229-1.458 1.153-3.034 2.311-4.29 3.703-.001 0-.211.481.291.398z"/><path fill="#44A98D" d="M62.324 78.614c1.105-.264 2.141-.658 3.216-1.017.453-.14.908-.274 1.365-.401.895-.256.289-.448.663.344.546 1.157 1.131 3.722 2.384 4.301.341.158.618.11.909-.117 1.051-.818.677-4.019.713-5.171.024-.767 1.53-.584 2.725-.765.579-.087 1.797-.06 2.136-.693.936-1.75-1.513-2.11-2.702-2.499-.252-.083-1.891-.949-1.938-.262.038-.539.079-1.078.121-1.616.1-1.284.583-2.715.031-3.922-.106-.232-.405-.374-.648-.372-.408.003-.802.068-1.045.433-.911 1.367-1.796 2.694-2.864 3.946l.909-.117c-.995-.445-4.985-3.185-6.05-2.12-1.558 1.558 2.501 4.666 3.345 5.756v-1.061c-1.307 1.025-4.76 2.796-4.49 4.764.033.24.298.474.524.524l.299.066c.942.209 1.343-1.237.398-1.446 1.319.292 3.225-1.98 4.33-2.847.35-.274.226-.771 0-1.061-1.029-1.33-2.058-2.886-3.671-3.364 1.571.466 3.064 1.416 4.559 2.084.292.131.676.156.909-.117a33.41 33.41 0 0 0 2.632-3.549c-.594.152-.784.584-.568 1.295a45.57 45.57 0 0 0-.1 1.108c-.05.59-.091 1.182-.132 1.772-.024.346.25.618.551.723.829.29 1.663.562 2.5.829.52.165 1.036.339 1.549.523.261-.342.243-.463-.051-.364-1.409.214-2.818.425-4.226.643-.313.048-.565.42-.551.723.038.787.369 4.612-.254 5.097l.909-.117c-.902-.417-1.851-3.776-2.305-4.735-.143-.303-.543-.424-.847-.345-1.9.498-3.725 1.247-5.631 1.702-.944.223-.545 1.669.396 1.445z"/><path fill="#FFF" d="M101.885 94.487c-9.452.503-9.733 9.437-6.281 15.629-1.521-.233-3.097-.286-4.097.832 1.782 1.712 6.138 3.155 8.606 3.261.053-.984-.364-1.908-1.256-2.764l-.523-.549c5.465-2.444 9.212-10.789 4.705-15.682l-1.154-.727z"/><path fill="#45A588" d="M101.885 93.737c-9.28.852-10.744 9.479-6.929 16.757l.647-1.128c-1.805-.199-3.017-.157-4.475.935-.35.262-.562.844-.152 1.18 2.568 2.102 5.859 3.172 9.137 3.479.377.035.792-.369.75-.75-.182-1.682-.826-2.609-2-3.843l-.152 1.179c5.98-3.061 10.632-13.233 3.553-17.705-.822-.518-1.574.78-.76 1.295 6.182 3.903 1.333 12.617-3.55 15.114-.442.228-.47.845-.152 1.179.803.844 1.396 1.986-.423 1.547-1.92-.464-3.81-1.301-5.343-2.557l-.152 1.18c1.182-.791 2.421-1.033 3.718-.729.603.065.885-.675.647-1.128-3.195-6.096-2.523-13.752 5.634-14.5.957-.093.967-1.593.002-1.505z"/><path fill="#FFF" d="M152.412 97.569c-9.34-4.155-13.994 4.299-13.713 11.949-1.35-.972-2.84-1.793-4.35-1.209.873 2.521 4.354 6.047 6.678 7.359.533-.924.586-2.018.146-3.273l-.231-.785c6.455.332 14.156-5.854 12.224-12.771l-.754-1.27z"/><path fill="#45A588" d="M152.611 96.846c-9.209-3.697-14.766 4.026-14.662 12.671.376-.218.752-.434 1.129-.647-1.73-1.136-2.924-1.63-4.928-1.286-.525.09-.619.701-.447 1.104 1.365 3.179 4.046 5.81 6.945 7.629.441.276.938-.014 1.104-.448.618-1.625.4-2.81-.087-4.456-.241.314-.481.633-.724.947 7.197.029 16.705-7.428 12.117-15.167-.492-.831-1.789-.077-1.295.757 4.021 6.781-4.826 12.936-10.822 12.912-.48-.002-.861.48-.726.949.368 1.242.681 2.103.089 3.66.365-.15.733-.3 1.102-.449-2.688-1.687-5.146-4.149-6.408-7.09-.148.365-.299.732-.448 1.102 1.459-.137 2.716.24 3.771 1.134.479.315 1.138-.099 1.131-.646-.092-7.646 4.433-14.57 12.764-11.227.895.358 1.281-1.094.395-1.449z"/><path fill="#FFF" d="M150.414 67.624c12.673-2.827 16.343 8.873 14.068 18.329 1.922-.869 3.984-1.52 5.72-.413-1.724 2.92-6.945 6.435-10.171 7.481-.43-1.281-.219-2.651.646-4.11l.485-.918c-8.122-1.211-16.154-10.852-12.006-18.98l1.258-1.389z"/><path fill="#45A588" d="M150.613 68.347c11.242-2.076 15.174 7.947 13.146 17.407-.106.499.353 1.152.923.922 1.17-.838 2.362-.794 3.58.132-1.162 1.331-2.68 2.337-4.132 3.321-.759.489-1.541.938-2.347 1.345-1.945 1.048-.084-2.892.027-3.103.213-.402.047-1.001-.449-1.102-7.563-1.535-17.297-11.509-10.418-19.115.646-.715-.409-1.779-1.062-1.061-4.024 4.452-2.774 10.35.437 14.939 1.615 2.307 4.248 4.443 6.853 5.518 2.622 1.083 3.446-.315 2.212 2.412-.514 1.134-.263 2.115-.074 3.258.063.378.568.657.922.524 4.119-1.551 8.09-4.172 10.619-7.826.301-.433-.031-.94-.447-1.102-2.295-.888-3.836-.504-6.117.413.308.308.613.615.923.922 2.312-10.779-2.623-21.536-14.991-19.251-.952.176-.55 1.622.395 1.447z"/><path fill="#FFF" d="M135.243 63.046c-.836-.416-1.669-1.082-2.382-1.621-.564-.426-2.152-1.432-2.59-1.692-.584.642-2.266 2.515-3.47 3.796a8.126 8.126 0 0 1-.219.23s-.658.445-.347-.708c.189-.703.822-3.768 1.255-4.822-.983-.474-3.327-1.588-3.917-1.871-.15-.081-.493-.167-.676-.424-.319-.45.271-.613.271-.613.488-.016.811-.042 1.467-.062 1.107-.035 2.416-.022 3.537-.088 0 0 .471-2.052.623-2.868.133-.705.235-1.45.449-2.109.179-.548.604-.091.604-.091.242.787.522 1.746.633 2.177.313 1.226.656 1.693 1.06 2.685 1.621-.187 5.513-.896 5.653-.66.187.297.027.502.027.502-1.457 1.122-3.891 2.479-4.66 3.076 1.076 1.55 2.27 3.139 3.078 4.863.006 0 .068.529-.396.3z"/><path fill="#44A98D" d="M135.622 62.398c-1.72-1.003-3.271-2.269-4.972-3.313-.275-.17-.688-.127-.908.117-.596.655-1.188 1.312-1.782 1.966-.38.418-.763.835-1.146 1.25-.801.597-.726.769.227.516.377-1.506.65-3.041 1.176-4.506.105-.295-.063-.71-.345-.847-1.188-.57-2.377-1.136-3.565-1.703-.427-.204-.979.184.334.13 1.18-.048 2.358-.038 3.537-.088.324-.014.647-.217.725-.551.324-1.427.607-2.858.891-4.294-.583-.075-.646.199-.188.821.123.463.256.923.398 1.379.213.706.602 1.395.895 2.066.094.213.418.401.646.372 1.609-.205 3.21-.49 4.823-.671.61.049.573-.102-.104-.454-.437.303-.879.596-1.324.879-.916.593-1.861 1.135-2.75 1.767-.313.221-.521.669-.271 1.026.795 1.134 2.009 3.933 3.325 4.035-.967-.075-.958 1.426 0 1.5l.311.024c.238.019.547-.151.647-.372.825-1.803-2.04-4.591-2.988-5.944l-.271 1.026c1.355-.964 4.088-1.905 4.932-3.345.381-.65.023-1.668-.805-1.673-.756-.005-4.924.972-5.17.408-.578-1.321-.633-4.225-2.215-4.717-.242-.075-.562.001-.729.193-.663.751-.705 1.745-.878 2.708-.104.583-.241 1.162-.368 1.74-.284 1.293-.024.606-1.308.633-.734.016-4.661-.534-4.297 1.298.256 1.275 4.453 2.842 4.516 2.675-.417 1.165-1.791 4.605-.975 5.767.217.306.483.396.849.345 1.228-.172 2.317-2.103 3.075-2.938 1.091-1.199.508-1.145 1.884-.255 1.159.75 2.215 1.627 3.409 2.326.839.488 1.593-.808.759-1.296z"/><path fill="#FFF" d="M136.376 37.603c5.853-4.403 10.462.755 11.495 6.143.785-.895 1.693-1.708 2.843-1.544-.204 1.901-2.069 4.924-3.483 6.213-.519-.558-.729-1.312-.625-2.263l.035-.585c-4.455 1.269-10.824-1.814-10.586-6.957l.321-1.007z"/><path fill="#45A588" d="M136.755 38.251c5.197-3.549 9.226.477 10.394 5.694.123.55.875.727 1.254.331.558-.758 1.326-1.2 2.313-1.325a149.34 149.34 0 0 0-.724-.949c-.402 2.224-1.707 4.298-3.29 5.882l1.178.152c-.621-.931-.54-1.584-.485-2.469.028-.505-.5-.829-.949-.723-4.057.95-11-1.848-9.342-7.041.295-.924-1.154-1.316-1.447-.398-2.018 6.323 6.031 10.093 11.188 8.886l-.949-.723c-.076 1.263-.018 2.162.692 3.226.267.399.819.509 1.179.152 1.758-1.76 3.229-4.071 3.676-6.544.082-.451-.2-.979-.724-.949-1.502.085-2.321.665-3.372 1.764l1.254.331c-1.396-6.228-6.604-10.685-12.599-6.591-.798.54-.049 1.841.753 1.294z"/><path fill="#D5E4E9" d="M167.471 93.281c2.461 2.917 4.25 6.116 7.4 8.367 4.107 2.936 9.283 3.322 13.1 6.884 10.094 9.424-2.712 22.259-12.971 22.471-.966.021-.968 1.521 0 1.5 9.01-.188 17.798-6.967 17.906-16.431.057-4.926-3.624-9.057-7.631-11.364-3.063-1.763-6.578-2.563-9.646-4.354-3.115-1.816-4.83-5.443-7.1-8.133-.625-.741-1.677.326-1.058 1.06zm-14.67-44.557c10.377 4.052-4.939 12.588-8.354 14.556-4.646 2.679-8.967 5.895-13.002 9.417-8.295 7.239-14.754 16.719-16.195 27.791-.125.958 1.377.946 1.5 0 2.098-16.106 15.218-27.993 28.455-35.912 4.125-2.467 9.02-4.273 11.416-8.709 1.796-3.322-.166-7.317-3.422-8.588-.902-.354-1.289 1.097-.398 1.445zM74.677 79.476c11.263 2.295 16.51 14.796 12.819 25.127-.326.912 1.124 1.303 1.446.396 3.955-11.07-1.863-24.526-13.867-26.972-.943-.19-1.346 1.256-.398 1.449zM23 80.001c-.005 9.444-1.414 59.838 17.699 52.226.888-.354.501-1.807-.398-1.447-16.815 6.697-15.806-41.823-15.801-50.779 0-.967-1.5-.967-1.5 0z"/></svg>