<svg xmlns="http://www.w3.org/2000/svg" width="200" height="200"><path fill="#FFF" d="M52.65 69.254l25.516 9.524 13.532 6.032-1.369 69.206-11.317 4.939-14.298 4.268-40-18.413 2.54-66.032 13.061-5.826zm88.383 43.401l1.799 41.446 20.045 5.774 32.38-11.374v-18.212l-2.056-20.621-8.407-2.801-13.339-2.801zm1.799 55.313l-7.841-4.745 4.85-3.894-25.85-7.808L99 156.974l-.429.692h-2.539l-1.657 11.605 24.229 2.312 5.046 2.1z"/><path fill="#D6E5EA" d="M100.829 159.329l22.821 14.354 19.683-5.715-8.342-4.745-4.644 3.283-6.697 1.144-23.65-9.19zM26.75 102.75L57 113.5l9.327 5.125-18.452 2.625-41.208-14.583 19.671-4.079"/><path fill="#44A587" d="M24.335 145.457c13.145 6.546 26.509 12.617 40 18.413.878.378 1.644-.914.757-1.295-13.49-5.797-26.855-11.868-40-18.413-.863-.43-1.623.864-.757 1.295z"/><path fill="#44A587" d="M65.23 163.628c8.831-2.021 17.435-4.751 25.477-8.965.857-.449.099-1.743-.757-1.295-7.933 4.156-16.415 6.822-25.119 8.813-.942.215-.542 1.662.399 1.447zM27.055 79.501c13.118 5.301 26.291 10.466 39.365 15.873.894.37 1.279-1.082.398-1.446-13.075-5.407-26.248-10.572-39.365-15.873-.897-.363-1.283 1.089-.398 1.446z"/><path fill="#44A587" d="M65.869 95.286c.965 22.456-.588 44.854-.952 67.301-.016.968 1.484.966 1.5 0 .364-22.447 1.917-44.846.952-67.301-.041-.964-1.541-.968-1.5 0z"/><path fill="#44A587" d="M66.818 95.374c9.009-1.348 16.793-6.396 25.079-9.841.88-.366.495-1.818-.398-1.446-8.28 3.442-16.084 8.496-25.079 9.841-.954.142-.547 1.588.398 1.446zM27.632 79.425c7.92-4.075 16.433-7.753 25.217-9.448.949-.183.546-1.629-.398-1.446-8.895 1.716-17.551 5.471-25.576 9.6-.86.442-.101 1.736.757 1.294z"/><path fill="#44A587" d="M52.451 69.977c13.026 4.971 26.39 9.191 38.869 15.48.861.434 1.621-.86.757-1.295-12.595-6.347-26.08-10.614-39.227-15.631-.906-.346-1.293 1.105-.399 1.446zM26.42 103.312c13.123 5.458 27.126 8.665 39.821 15.161.859.439 1.618-.854.757-1.295-12.811-6.557-26.936-9.805-40.179-15.313-.894-.372-1.279 1.08-.399 1.447zm11.539-13.94l-.442.939c-.367.433-.236 1.075.331 1.253 5.104 1.609 10.611 4.366 16.072 4.154.964-.038.968-1.538 0-1.5-5.294.206-10.718-2.538-15.674-4.1l.331 1.253c.568-.671.597-.724.828-1.601.247-.936-1.2-1.333-1.446-.398z"/><path fill="#44A587" d="M90.948 84.81c-1.7 23.045-1.383 46.118-1.369 69.206 0 .967 1.5.968 1.5 0-.014-23.088-.331-46.161 1.369-69.206.072-.966-1.429-.959-1.5 0zm-64.444-6.032c.89 11.435-.572 22.995-.635 34.441-.005.968 1.495.967 1.5 0 .063-11.446 1.524-23.006.635-34.441-.075-.958-1.575-.965-1.5 0zm-1.04 66.032c.031-3.384.417-6.758.286-10.143-.038-.964-1.538-.968-1.5 0 .131 3.385-.255 6.759-.286 10.143-.009.967 1.491.966 1.5 0zm166.987-35.142c1.301 12.922 2.052 25.843 2.056 38.833 0 .968 1.5.968 1.5 0-.004-12.99-.755-25.911-2.056-38.833-.096-.953-1.597-.962-1.5 0z"/><path fill="#44A587" d="M195.058 147.777c-10.707 3.868-21.515 7.435-32.38 10.828-.92.288-.527 1.736.398 1.447 10.866-3.395 21.673-6.961 32.38-10.828.902-.326.514-1.776-.398-1.447z"/><path fill="#44A587" d="M162.819 158.418c-6.749-1.118-13.383-2.602-19.788-5.041-.905-.345-1.293 1.106-.398 1.447 6.405 2.438 13.038 3.922 19.788 5.041.945.156 1.351-1.289.398-1.447zm30.183-49.474c-10.621 3.117-21.266 6.152-31.866 9.335-.924.277-.53 1.726.398 1.447 10.602-3.184 21.246-6.219 31.866-9.335.926-.272.533-1.719-.398-1.447z"/><path fill="#44A587" d="M160.585 119.376c-.172 13.204.485 26.382.771 39.579.021.966 1.521.968 1.5 0-.285-13.197-.942-26.375-.771-39.579.013-.968-1.487-.967-1.5 0z"/><path fill="#44A587" d="M161.335 118.253c-6.989-.771-13.431-3.741-20.103-5.762-.928-.28-1.322 1.167-.398 1.447 6.816 2.063 13.361 5.027 20.501 5.814.961.106.95-1.395 0-1.499zm32.065-9.309c-6.625-2.474-13.541-4.611-20.559-5.602-.945-.133-1.354 1.313-.398 1.447 7.017.99 13.933 3.127 20.559 5.602.908.339 1.296-1.111.398-1.447z"/><path fill="#44A587" d="M171.929 103.157c-10.225 2.822-20.599 5.146-30.581 8.774-.901.328-.513 1.778.398 1.447 9.983-3.63 20.356-5.953 30.581-8.774.932-.257.535-1.705-.398-1.447zm21.587 19.789c-10.411 3.139-21.137 5.183-31.353 8.961-.899.333-.511 1.783.398 1.447 10.216-3.779 20.941-5.823 31.353-8.961.924-.278.53-1.726-.398-1.447zm1.027 12.323c-10.76 2.446-21.048 6.712-31.865 9.148-.943.213-.544 1.659.398 1.447 10.818-2.438 21.105-6.702 31.865-9.148.944-.215.543-1.661-.398-1.447zm-11.317-19.054c.2.551.262.694.707 1.078l.331-1.254c-4.104.94-8.398 2.514-12.649 2.4-.968-.025-.966 1.475 0 1.5 4.396.117 8.81-1.482 13.048-2.453.527-.121.755-.89.331-1.254l-.32-.416c-.328-.902-1.778-.512-1.448.399zm2.25 12.652l.577.977.345-.847c-3.764 1.651-8.936 3.086-13.042 2.351-.945-.169-1.35 1.276-.398 1.447 4.553.814 10.041-.679 14.198-2.503.324-.142.396-.542.345-.847-.127-.747-.401-1.139-.964-1.639-.721-.64-1.786.418-1.061 1.061zm2.118 11.618c.173.436.344.871.515 1.307l.345-.847c-3.276 1.992-8.699 3.958-12.527 2.911-.935-.255-1.33 1.192-.398 1.447 4.271 1.167 10.027-.84 13.684-3.063.265-.161.467-.534.345-.847l-.515-1.307c-.353-.888-1.804-.501-1.449.399z"/><path fill="#44A587" d="M140.283 113.215c.633 13.626 1.748 27.239 1.799 40.886.004.967 1.504.968 1.5 0-.051-13.646-1.166-27.26-1.799-40.886-.045-.963-1.545-.968-1.5 0zM98.372 158.39c8.659 2.366 15.921 8.206 24.825 9.82 7.552 1.368 11.809-4.949 17.765-8.233.847-.467.09-1.763-.758-1.295-2.443 1.348-4.547 3.05-6.716 4.792-4.141 3.327-7.755 3.922-12.885 2.646-7.683-1.908-14.165-7.081-21.833-9.178-.934-.254-1.33 1.193-.398 1.448z"/><path fill="#44A587" d="M140.782 158.605c-8.834-2.11-17.67-4.563-26.139-7.869-.902-.352-1.289 1.1-.398 1.447 8.469 3.306 17.304 5.758 26.139 7.869.94.225 1.339-1.221.398-1.447z"/><path fill="#44A587" d="M114.245 150.736c-5.705.813-10.888 3.371-16.052 5.791-.875.41-.113 1.703.757 1.295 5.055-2.368 10.112-4.845 15.694-5.639.955-.136.546-1.58-.399-1.447zm-14.29 8.867c7.333 5.543 14.986 10.791 23.316 14.728.87.411 1.632-.882.758-1.295-8.33-3.938-15.984-9.185-23.317-14.728-.772-.584-1.518.719-.757 1.295z"/><path fill="#44A587" d="M124.167 174.406c6.369-2.207 12.813-4.127 19.365-5.715.94-.229.541-1.675-.398-1.447-6.552 1.589-12.996 3.509-19.365 5.715-.909.315-.518 1.765.398 1.447z"/><path fill="#44A587" d="M143.85 166.927c-2.854-.41-5.152-2.096-7.439-3.733-.789-.564-1.536.737-.758 1.295 2.388 1.709 4.822 3.457 7.799 3.886.944.135 1.352-1.311.398-1.448zm-49.723 3.061c8.4 1.046 16.92.882 25.251 2.513.944.185 1.348-1.261.398-1.447-8.463-1.655-17.115-1.503-25.649-2.565-.959-.12-.947 1.381 0 1.499z"/><path fill="#44A587" d="M94.877 169.238a120.074 120.074 0 0 1 1.878-11.373l-.723.551 4.302.492c.96.109.95-1.392 0-1.5l-4.302-.492c-.313-.036-.659.254-.723.551a124.534 124.534 0 0 0-1.932 11.771c-.112.96 1.389.95 1.5 0z"/><path fill="#FFF" d="M47.875 121.25c2.5-1.125 6.25-.5 8.875-.75 3.125-.25 6.25-1.125 9.25-1.875l.25.25"/><path fill="#44A587" d="M48.074 121.974c3.193-1.111 6.695-.512 10.015-.867 1.001-.106 7.326-2.006 7.631-1.701.685.685 1.745-.376 1.061-1.061-1.316-1.316-4.68.483-6.222.825-4.245.941-8.779-.071-12.883 1.356-.908.317-.518 1.766.398 1.448zm-22.199-19.849c-6.492.65-12.644 2.905-19.074 3.901-.789.123-.639 1.236 0 1.447l19.619 6.469c.467.153.949-.255.949-.724v-10.631c0-.451-.486-.901-.949-.724l-.744.287c-.893.345-.505 1.796.398 1.447l.744-.287-.949-.724v10.631l.949-.724-19.619-6.469v1.447c6.296-.976 12.321-3.212 18.676-3.849.953-.093.962-1.594 0-1.497z"/><path fill="#D6E5EA" d="M36.422 123.359c.374 1.219.71 2.487 2.023 2.565 2.651.27 2.809-1.095 3.743-2.823"/><path fill="#44A98D" d="M35.699 123.559c.275.898.548 1.761 1.191 2.468.673.74 1.915.747 2.821.634 1.802-.227 2.378-1.761 3.125-3.18.45-.855-.845-1.614-1.295-.758-.414.787-.72 1.862-1.533 2.326-.498.284-1.619.269-2.057-.083-.489-.393-.632-1.24-.805-1.806-.283-.923-1.731-.529-1.447.399z"/><path fill="#FFF" d="M21.411 89.777c-3.048.641-8 3.451-8.527 7.098C11.53 92.68 6.58 91.01 2.539 91.977c-.844 6.072 4.044 8.581 9.393 9.342l.049.225c1.518 7.228 5.094 11.897 11.25 16.498 7.782 4.493 14.479 4.105 22.302 2.617 7.511-1.428 17.153-7.851 13.53-17.226-6.392-5.73-16.468-4.317-23.042-.815-3.197 1.617-6.572 3.507-10.279 3.814-3.708.307-10.963 1.686-10.912-5.721 4.612-.499 9.119-6.164 6.809-10.982"/><path fill="#44A98D" d="M21.212 89.054c-3.965 1.051-7.94 3.456-9.051 7.622l1.371-.179c-1.973-4.578-6.502-6.043-11.192-5.242-.341.058-.529.414-.551.723-.413 5.796 3.451 8.646 8.719 9.858 1.334.307 2.648 5.819 3.668 7.692 1.756 3.225 4.527 5.821 7.327 8.123 9.1 7.48 29.621 6.782 36.768-3.572 2.947-4.27 3.57-9.88-1.087-12.944-5.542-3.647-13.243-2.536-19.052-.322-4.423 1.686-19.003 10.268-22.278 2.085-.61-1.525 4.359-3.863 5.216-5.125 1.81-2.665 2.372-5.154 1.291-8.242-.317-.907-1.767-.517-1.446.398 1.678 4.79-1.552 9.077-6.285 10.06-.311.064-.569.408-.551.723.345 6.069 4.798 7.083 10.126 6.617 10.286-.899 17.701-8.922 28.632-6.401 9.24 2.131 6.605 11.084.977 15.392-4.193 3.209-9.67 4.026-14.763 4.509-12.787 1.21-23.696-7.407-26.396-19.707-.051-.232-.283-.483-.524-.524-3.225-.547-6.357-1.448-8.249-4.352-2.505-3.847 1.013-3.958 3.455-3.446 2.358.495 3.991 2.345 4.9 4.455.267.621 1.217.396 1.371-.179.978-3.665 4.57-5.663 8.003-6.574.934-.25.537-1.696-.399-1.448z"/><path fill="#D6E5EA" d="M59.008 104.314c3.93 9.435-6.671 15.07-14.293 16.674-4.065.854-8.173.657-12.148.255-4.349-.499-7.9-2.664-11.032-4.526 4.946 2.498 13.011 3.006 18.092 1.938 4.742-.997 9.318-1.978 13.294-4.935 2.628-1.79 5.953-5.838 6.087-9.406z"/><path fill="#44A98D" d="M58.285 104.514c2.957 8.348-4.727 13.062-11.63 15.214-8.543 2.665-17.264.776-24.742-3.658l-.757 1.295c11.517 5.222 36.337 2.926 38.575-12.851.134-.945-1.311-1.354-1.446-.398-2.077 14.645-25.642 16.818-36.372 11.954-.864-.392-1.605.792-.757 1.295 9.058 5.372 19.266 6.611 29.21 2.632 6.753-2.702 12.027-8.366 9.364-15.881-.32-.906-1.769-.516-1.445.398z"/><path fill="#D6E5EA" d="M41.599 102.811c-1.488.489-1.337 2.05.321 1.522 1.658-.525 1.085-2.262-.321-1.522"/><path fill="#44A98D" d="M41.4 102.087c-.931.335-1.7 1.038-1.538 2.099.169 1.102 1.604 1.099 2.387.825.89-.31 1.645-1.153 1.373-2.146-.302-1.101-1.56-1.111-2.401-.702-.87.423-.109 1.717.757 1.295a.643.643 0 0 1 .321-.076c-.048-.001-.146-.062-.021.013-.062-.037-.077-.064-.103-.13.049.126.012.015.021-.048-.022.161.044-.035-.041.119-.04.071-.195.183-.305.229a1.5 1.5 0 0 1-.649.122c.041.001.103.045-.015-.024.051.03.106.062.123.124.044.157-.002.088.056.021a.979.979 0 0 1 .434-.272c.903-.327.513-1.777-.399-1.449zm9.859 7.479c.092.057.114.071.066.042-.093-.081-.076-.313-.063-.39a.375.375 0 0 1 .165-.233c-.141.096.149-.042-.02.006.11-.009.122-.011.038-.006-.142.007.098.024.135.043.104.054.213.2.217.327.004.142.049-.11.056-.13l-.345.448c.152-.09.091.013-.072-.031.934.256 1.33-1.191.398-1.447-.849-.232-1.464.358-1.538 1.16-.061.663.522 1.053 1.095 1.128.464.061 1.004-.247 1.225-.645.35-.628-.07-1.234-.603-1.567-.82-.515-1.572.784-.754 1.295z"/><path fill="#FFF" d="M47.667 121c-7-2-12.542-4.833-19.208-7.166-7-2.333-15.125-5.167-21.792-7.167 0 6.333-.333 13.666-.667 20 13.333 5 27.667 13.333 41.667 15.333 1.333-6.667 0-14 .333-21"/><path fill="#45A588" d="M47.866 120.276c-6.563-1.97-12.772-4.846-19.208-7.166-7.181-2.588-14.489-4.944-21.792-7.167-.47-.143-.947.246-.949.724-.028 6.673-.321 13.337-.667 20-.019.354.248.607.551.724 13.803 5.293 26.901 12.964 41.667 15.333.369.059.85-.09.922-.524 1.175-7.041.154-14.11.36-21.199.028-.968-1.472-.965-1.5 0-.138 4.722.235 9.428.271 14.148.02 2.529.379 6.191-3.021 5.531-2.869-.557-5.672-1.447-8.443-2.36-5.682-1.871-11.153-4.37-16.615-6.793-1.677-.743-12.726-4.211-12.609-6.463.233-4.494.416-8.991.526-13.49.061-2.482-.725-4.143 2.279-3.206 2.833.885 5.648 1.83 8.463 2.771 9.859 3.296 19.423 7.602 29.366 10.586.929.277 1.323-1.171.399-1.449z"/><path fill="#44A587" d="M17.612 114.993c-.76.93-1.027 1.579-1.172 2.753-.032.256.166.523.372.647 4.713 2.847 11.855 5.569 17.403 4.203.939-.231.541-1.678-.398-1.447-2.725.672-5.604-.046-8.252-.754-1.451-.388-2.864-.906-4.261-1.452-1.368-.533-4.121-1.065-2.63-2.89.605-.741-.449-1.809-1.062-1.06z"/><path fill="#FFF" d="M66 138.625l.125.5c-6 .375-11.875 3.625-18.25 2.875H48"/><path fill="#44A587" d="M65.277 138.824l.125.5.723-.949c-6.187.574-11.955 3.365-18.25 2.875v1.5H48c.967 0 .967-1.5 0-1.5h-.125c-.979 0-.952 1.426 0 1.5 6.325.492 12.043-2.299 18.25-2.875.488-.045.85-.444.723-.949l-.125-.5c-.234-.939-1.681-.54-1.446.398z"/><path fill="#FFF" d="M154.374 79.91c-3.812 3.64 2.601 7.799 5.2 4.16 3.119-4.679-2.599-6.759-5.2-4.16"/><path fill="#44A98D" d="M153.844 79.38c-1.696 1.705-1.892 4.143.044 5.755 1.798 1.499 4.513 1.457 6.074-.348 1.473-1.702 1.884-4.573-.174-5.986-1.828-1.257-4.367-.913-5.944.579-.704.666.358 1.725 1.061 1.061.97-.917 2.461-1.19 3.682-.615 1.685.793 1.143 2.61.341 3.866-.846 1.324-2.643 1.21-3.819.489-1.531-.938-1.353-2.585-.203-3.74.681-.687-.38-1.748-1.062-1.061z"/><path fill="#FFF" d="M71.609 10.551c-4.808 4.591 3.28 9.837 6.559 5.246 3.934-5.901-3.279-8.525-6.559-5.246"/><path fill="#44A98D" d="M71.079 10.021c-2.07 2.08-2.304 5.016.055 6.982 2.191 1.827 5.489 1.752 7.384-.438 1.769-2.044 2.305-5.536-.179-7.243-2.233-1.536-5.331-1.126-7.26.699-.704.666.358 1.725 1.061 1.061 1.292-1.222 3.26-1.57 4.881-.807 2.228 1.049 1.566 3.473.5 5.144-1.125 1.76-3.505 1.656-5.086.687-2.038-1.25-1.835-3.477-.295-5.024.683-.687-.378-1.748-1.061-1.061z"/><path fill="#FFF" d="M66.11 36.826c-5.504-14.79-21.517-11.388-30.843-3.239-.325-2.517-1.003-5.039-3.476-6.146-2.173 3.566-2.616 11.101-1.596 15.065 1.775-.34 3.211-1.401 4.294-3.184l.722-1.067c7.008 7.621 23.663 9.975 30.163.717l.736-2.146z"/><path fill="#45A588" d="M66.833 36.626c-5.934-14.527-21.811-12.211-32.096-3.57l1.253.331c-.466-2.937-1.243-5.027-3.82-6.594-.337-.205-.839-.089-1.026.269-2.44 4.666-2.749 10.552-1.671 15.643.083.392.549.639.922.524 1.476-.455 2.908-1.019 3.864-2.327 1.723-2.356.85-1.324 3.037.189 3.369 2.33 7.28 3.946 11.373 4.416 7.121.817 15.605-1.005 18.164-8.482.314-.917-1.135-1.308-1.446-.398-4.133 12.076-22.782 8.057-29.644 1.098-.357-.362-.911-.243-1.178.152-.567.838-3.521 5.021-3.871 3.37-.343-1.621-.276-3.362-.243-5.009.037-1.79.359-3.556.753-5.295.846-3.733 3.113 1.419 3.339 2.844.097.61.871.652 1.253.331 9.273-7.791 24.085-10.567 29.589 2.908.363.882 1.815.496 1.448-.4z"/><path fill="#FFF" d="M161.655 59.511c4.346-11.675 16.984-8.989 24.347-2.557.257-1.987.792-3.978 2.743-4.851 1.716 2.815 2.065 8.763 1.26 11.893-1.4-.269-2.534-1.106-3.39-2.514l-.57-.842c-5.531 6.016-18.679 7.874-23.811.566l-.579-1.695z"/><path fill="#45A588" d="M162.379 59.71c4.404-10.522 15.81-8.28 23.093-2.226.386.321 1.152.279 1.254-.331-.035-1.376.686-2.321 2.163-2.833.353 1.178.58 2.382.682 3.612.244 2.037.181 6.847-2.878 2.33-.269-.397-.818-.51-1.178-.152-5.359 5.34-19.904 8.659-23.136-.797-.312-.91-1.761-.519-1.447.398 1.948 5.7 8.156 7.271 13.661 6.91 3.318-.217 6.512-1.468 9.313-3.202.996-.617 1.784-1.968 2.063-1.558 1.058 1.563 2.096 2.25 3.838 2.858.367.128.845-.142.923-.524.836-4.115.587-8.687-1.336-12.47-.18-.354-.697-.481-1.026-.269-2.064 1.327-2.69 2.909-3.088 5.299l1.254-.331c-8.317-6.914-20.764-8.666-25.601 2.888-.374.892 1.078 1.277 1.446.398z"/><path fill="#FFF" d="M127.161 103.211c-.967-.591-1.827-1.575-2.795-2.166l-.327-.135-24.546 10.201-.078.032.032.078c0 1.083-.437 1.986-.252 3.082.689 2.963 2.385 5.957 3.537 8.728 1.023 2.463 1.848 5.099 3.147 7.355l.236.354c1.718.008 4.02-1.4 5.56-2.04l5.771-2.398c4.002-1.663 7.767-3.679 11.768-5.342 1.309-.544 2.431-1.101 3.63-1.688l.244-.282c-.497-2.501-1.835-5.283-2.64-7.656-.935-2.681-2.207-5.31-3.295-7.927"/><path fill="#44A587" d="M127.54 102.563c-4.094-3.02-3.758-2.353-8.953-.193-6.457 2.684-12.907 5.384-19.372 8.05-.34.141-.693.513-.524.923.411.995-.173 3.323.202 4.644.448 1.575 1.239 3.108 1.916 4.588 1.555 3.398 2.562 7.407 4.659 10.545.208.311.49.393.847.345 3.911-.53 7.714-2.936 11.33-4.438 4.849-2.016 9.645-4.288 14.394-6.528 1.958-.924 1.92-1.123 1.384-3.236-1.236-4.868-3.655-9.623-5.622-14.233-.378-.887-1.67-.122-1.295.758a325.486 325.486 0 0 1 4.946 12.312c.641 1.688 1.552 2.264-.17 3.105-1.912.934-3.893 1.727-5.829 2.605-4.17 1.893-8.304 3.812-12.534 5.569a76.528 76.528 0 0 0-3.749 1.672c-2.549 1.222-2.271 1.67-3.371-.436-1.69-3.239-2.833-6.914-4.36-10.252-1.117-2.441-1.578-4.488-1.241-7.14-.026-.502-.194-.298-.505.613l3.5-1.455 12.285-5.105 7.012-2.914c2.173-.903 2.642.279 4.293 1.498.78.574 1.526-.729.757-1.297z"/><path fill="#D6E5EA" d="M123.625 101.585l-23.5 10.082v1.67l25.25-10.712z"/><path fill="#44A587" d="M126.342 102.216c-9.052 3.329-17.907 7.442-26.828 11.149-.88.366-.495 1.818.398 1.447 8.918-3.706 17.775-7.821 26.828-11.149.901-.331.512-1.781-.398-1.447zm2.16 3.975c-9.16 3.801-18.346 7.539-27.504 11.339-.88.365-.495 1.817.399 1.447 9.159-3.801 18.345-7.539 27.504-11.339.879-.365.495-1.817-.399-1.447z"/><path fill="#44A587" d="M108.59 108.484c-.275-.579-1.655-2.679-1.027-3.079 1.003-.64 2.194-1.065 3.287-1.518a88.224 88.224 0 0 1 3.099-1.206c1.728-.639 2.021 1.344 2.46 2.652.307.912 1.756.521 1.447-.398-.492-1.462-.92-3.603-2.624-4.071-1.279-.352-3.656 1.12-4.78 1.577-1.317.536-3.18 1.031-4.19 2.086-1.166 1.216.5 3.592 1.035 4.715.415.873 1.707.112 1.293-.758z"/><path fill="#D6E5EA" d="M107.618 73.65c.669.272.929.91 1.348 1.464.652.821 1.542 1.474 2.242 2.278.967 1.167 1.905 2.399 2.984 3.419.246.235.784.962 1.105.954.789-.019.904-.573 1.142-.741.684-.439 1.266-1.507 1.666-2.197"/><path fill="#44A98D" d="M107.239 74.297c.639.391 1.114 1.253 1.612 1.822.562.64 1.241 1.182 1.826 1.803 1.308 1.389 2.38 2.984 3.816 4.26 1.645 1.461 3.65-1.927 4.259-2.978.486-.838-.811-1.593-1.295-.757-.171.295-1.695 2.858-2.211 2.401-.933-.829-1.75-1.851-2.545-2.809-.883-1.064-1.811-2.009-2.789-2.981-.73-.725-1.025-1.511-1.916-2.056-.827-.506-1.58.791-.757 1.295z"/><path fill="#FFF" d="M107.676 73.24c.905-2.284 2.408-5.048 3.44-7.431 1.579-3.642 3.35-6.431 4.933-9.831 0 0 8.261 3.66 11.485 5.501l-.183.392c-2.561 5.494-5.061 11.545-7.68 17.169-3.671-1.116-8.464-4.154-11.995-5.8"/><path fill="#44A587" d="M108.323 73.619c2.079-4.922 4.482-9.743 6.979-14.463 1.259-2.38-.127-2.761 2.629-1.513 1.952.884 3.893 1.794 5.822 2.727 2.488 1.202 3.357.24 2.253 2.634-1.435 3.112-2.785 6.263-4.164 9.4a441.863 441.863 0 0 1-2.107 4.713c-.896 1.979-3.305-.197-4.477-.775-2.429-1.198-4.769-2.566-7.204-3.75-.866-.421-1.627.872-.758 1.295 4.058 1.972 7.893 4.404 12.176 5.875.293.101.714-.057.847-.345 2.685-5.825 5.154-11.747 7.862-17.561.169-.363.113-.815-.269-1.026-3.713-2.05-7.611-3.78-11.485-5.501-.35-.155-.835-.127-1.026.269-2.785 5.758-5.881 11.361-8.373 17.262-.372.882.92 1.647 1.295.759z"/><path fill="#44A587" d="M113.737 57.786c.177.083.346.169.508.276.811.534 1.562-.766.758-1.295a4.087 4.087 0 0 0-.508-.276c-.87-.41-1.632.883-.758 1.295zm-1.163 2.872c.139.042.261.09.392.151.872.404 1.634-.888.758-1.295a5.535 5.535 0 0 0-.751-.303c-.93-.275-1.324 1.172-.399 1.447zm-1.653 2.661c.156.074.299.151.442.246.811.535 1.561-.765.758-1.295a3.679 3.679 0 0 0-.442-.246c-.87-.411-1.632.882-.758 1.295zm-1.288 2.424l.72.335c.871.405 1.634-.887.758-1.295l-.72-.335c-.871-.407-1.634.886-.758 1.295zm-1.319 2.489l.555.259c.871.408 1.633-.885.758-1.295l-.555-.259c-.871-.408-1.633.885-.758 1.295zm-.544 2.339l-.021.016c.378.157.824-.167.923-.524.118-.431-.146-.766-.524-.922a1.078 1.078 0 0 0-.378-.07c-.968-.041-.964 1.459 0 1.5zm-1.398 2.169l.229.106c.871.405 1.634-.887.758-1.295l-.229-.106c-.872-.403-1.635.89-.758 1.295zm9.938-12.216c-.51.979-1.738 2.669-1.357 3.872.225.711.695.99 1.357 1.266 1.283.534 2.547 1.088 3.808 1.675.558.259 1.145.722 1.78.424.735-.344.828-1.157 1.207-1.807.363-.623.906-1.527.715-2.287-.166-.657-.648-.8-1.218-1.065l-.758 1.295.101.047c.871.404 1.634-.887.758-1.295-1.788-.833-3.57-1.678-5.357-2.512-.871-.407-1.634.886-.758 1.295 1.788.834 3.569 1.68 5.357 2.513l.758-1.295-.101-.047c-.871-.404-1.634.887-.758 1.295.613.286.497.291.157.959-.191.377-.436.719-.581 1.12-.215.259-.169.394.135.404a3.852 3.852 0 0 0-.68-.339l-2.006-.935c-.534-.249-2.563-.741-2.357-1.399.278-.889.665-1.604 1.093-2.427.446-.856-.849-1.615-1.295-.757z"/><path fill="#FFF" d="M116.636 56.239l-8.653 17.103"/><path fill="#44A587" d="M115.988 55.861l-8.652 17.103c-.436.861.858 1.62 1.295.757l8.652-17.103c.436-.861-.858-1.62-1.295-.757z"/></svg>