<svg xmlns="http://www.w3.org/2000/svg" width="260" height="260"><g fill="#b4cb38"><path d="M67.061 157.205c10.38 8.276 29.07 26.903 58.093 26.855l2.42 1.379c8.301 4.824 9.697 13.116 6.946 21.412-1.376 3.458-4.817 11.757-6.196 14.522-2.069 2.767-3.443 6.225-6.896 8.305 17.285 4.117 21.41-8.328 30.376-19.4 8.276-11.07 22.095-11.094 28.985-23.544 8.259-21.781 43.856-16.311 54.186-39.134l-3.125-7.769 5.179-3.637c-33.24-42.448-41.516-31.549-53.966-38.785C169.5 44.565 136.338 50.32 90.718 44.176c2.095 13.472 1.063 16.584 9.372 25.9 7.269 8.282 18.67 8.263 16.621 22.778l-2.072 1.04c-17.6 12.467-39.369 12.504-45.546 37.392l-.817-1.32c-27.78-21.392-17.772-71.85-27.91-102.103-20.165 7.6-2.466 34.055-4.963 49.19C32.9 89.67 22.818 93.469 22.84 107.34c.021 12.61 10.124 20.16 11.403 31.506.015 8.828-6.283 15.144-7.528 23.974.02 11.349 3.81 15.126 6.346 23.95 2.544 13.868-10.783 22.53-4.458 35.13l9.577 10.258c1.219-25.222 17.574-49.208 27.624-71.924l1.257-3.029z"/><path d="M65.736 158.53c13.437 10.82 26.328 21.193 43.445 25.533 2.452.623 4.958.998 7.462 1.335 1.895.257 6.399-.383 7.943.497 5.2 2.962 8.797 6.535 9.326 12.79.456 5.398-2.404 10.703-4.436 15.515-2.118 5.012-4.442 10.53-8.994 13.858-1.189.869-1.3 3.064.447 3.427 6.313 1.312 12.177 1.135 17.68-2.498 5.485-3.62 9.023-10.02 12.823-15.192 5.655-7.698 13.289-11.05 21.124-15.973 2.915-1.831 5.432-4.129 7.612-6.781 2.438-2.963 3.476-6.651 5.911-9.628 8.634-10.551 25.224-12.337 36.713-18.646 5.53-3.039 10.102-7.39 13.166-12.91 1.895-3.416-.971-7.221-2.3-10.525l-.862 2.118 5.178-3.637c1.07-.75 1.168-1.947.38-2.945-10.232-12.963-21.997-28.047-38.035-34.063-3.627-1.36-7.48-1.874-11.202-2.892-3.244-.887-4.32-1.373-5.249-4.678-1.415-5.04-3.294-9.937-5.506-14.677-16.048-34.363-55.513-32.013-87.645-36.257-1.335-.176-1.965 1.321-1.808 2.374 1.593 10.617 2.627 18.412 9.855 26.726 2.997 3.447 7.052 5.696 10.76 8.266 3.09 2.143 8.943 10.214 4.168 12.608-4.644 2.328-8.918 5.37-13.673 7.602-4.922 2.31-9.906 4.451-14.635 7.15-9.327 5.324-15.31 13.445-18.1 23.761 1.143-.148 2.285-.298 3.428-.447-1.64-2.655-4.376-4.42-6.505-6.711-3.21-3.455-5.554-7.637-7.534-11.882-4.272-9.155-5.89-19.572-7.092-29.511-2.205-18.232-1.715-37.234-7.408-54.872-.282-.875-1.334-1.718-2.306-1.31-18.123 7.602-8.886 28.288-6.505 42.673 1.974 11.925-6.179 18.225-10.286 28.249-4.249 10.368-.953 19.719 4.183 28.998 3.54 6.392 6.185 12.035 3.908 19.442-1.799 5.849-5.141 10.8-6.26 16.904-2.075 11.329 8.169 20.79 6.191 32.022-1.647 9.36-8.264 16.607-4.994 26.502 1.61 4.868 7.34 8.985 10.75 12.638 1.187 1.272 3.102.22 3.202-1.325 1.752-27.221 18.648-49.971 28.813-74.455.928-2.232-2.702-3.196-3.616-.996-10.342 24.911-27.162 47.729-28.947 75.451l3.2-1.326c-3.485-3.734-8.672-7.612-10.288-12.504-2.779-8.411 5.113-18.207 5.998-26.583 1.121-10.613-8.373-19.26-6.353-30.282 1.866-10.181 9.37-17.11 6.08-27.995-3.317-10.975-11.992-18.582-9.737-31.013 1.66-9.157 9.855-15.692 12.005-24.902 3.3-14.146-15.215-39.967 3.653-47.882l-2.307-1.309c5.915 18.325 5.242 38.191 7.68 57.133 1.159 8.996 2.981 17.91 6.414 26.333 1.543 3.789 3.528 7.339 5.876 10.684 2.511 3.578 6.724 6.123 8.946 9.72.843 1.364 2.995 1.153 3.428-.446 3.38-12.503 11.563-19.439 22.828-24.893 5.025-2.432 10.164-4.595 15.1-7.215 2.014-1.07 9.024-3.906 9.69-6.326 2.59-9.41-4.41-15.174-11.262-19.704-5.038-3.327-9.5-8.142-11.818-13.776-2.05-4.987-2.122-10.919-2.913-16.195l-1.809 2.374c17.256 2.279 35.061 2.555 51.925 7.151 17.76 4.84 29.059 17.298 35.409 34.253.947 2.53 1.721 10.256 4.065 11.573a28.623 28.623 0 0 0 4.91 2.17c3.365 1.135 6.933 1.573 10.34 2.573 16.247 4.769 28.4 21.16 38.337 33.749l.379-2.945-5.178 3.637c-.633.445-1.188 1.304-.862 2.118.592 1.47 1.184 2.94 1.775 4.412 1.25 3.109 1.251 2.813-.535 5.656-3.483 5.544-9.55 8.944-15.32 11.618-10.384 4.809-22.055 7.114-30.798 14.94-4.78 4.281-6.345 10.674-11.048 15.051-5.334 4.964-12.734 7.326-18.504 11.755-12.008 9.216-14.929 28.006-33.685 24.108l.447 3.426c7.612-5.564 11.827-16.808 14.448-25.604 2.8-9.395-1.246-17.852-9.511-22.561-4.167-2.374-10.59-1.356-15.319-2.276-6.715-1.308-13.104-3.935-19.124-7.127-9.006-4.776-16.595-11.5-24.481-17.848-1.864-1.502-4.535 1.135-2.651 2.65"/><path d="M129.164 224.668c4.007-5.253 8.796-18.373 8.86-24.275.071-6.466-3.138-12.802-8.166-16.125-2.75-1.816-6.09-2.756-12.355-3.477-4.722-.542-10.437-1.647-12.699-2.453-9.613-3.429-20.908-10.305-31.607-19.244-2.405-2.01-5.033-3.653-5.84-3.653-.91 0-5.282 7.836-11.473 20.558-11.931 24.52-15.351 32.91-17.66 43.334-.955 4.306-1.878 7.829-2.052 7.829-.174 0-1.72-1.908-3.434-4.24-3.958-5.381-4.097-10.607-.514-19.266 4.125-9.97 4.244-15.81.527-25.933-3.965-10.799-3.95-15.191.095-25.598 4.673-12.028 4.448-16.14-1.572-28.59-7.53-15.575-7.398-20.453.923-34.21 6.467-10.694 6.985-13.648 4.47-25.51-3.718-17.545-4.158-20.588-3.444-23.841.827-3.765 3.036-7.39 4.951-8.125 1.87-.717 4.139 12.17 6.104 34.682 1.851 21.217 2.954 28.563 5.69 37.897 2.937 10.021 7.194 17.52 13.464 23.71 5.854 5.783 7.908 6.094 9.04 1.373 1.07-4.464 7.242-12.827 11.959-16.206 2.355-1.687 10.67-6.264 18.475-10.17 7.806-3.908 14.797-7.832 15.536-8.722 1.875-2.26.853-9.886-1.773-13.224-1.16-1.476-5.091-4.94-8.735-7.698-9.063-6.86-12.499-12.552-13.981-23.158l-.501-3.587 7.732.822c43.86 4.664 52.345 7.334 64.454 20.28 6.384 6.824 11.512 16.242 13.482 24.762 1.499 6.479 3.171 7.748 13.797 10.47 4.29 1.1 8.964 2.6 10.387 3.337 6.665 3.447 15.774 11.365 22.835 19.849l7.746 9.306-2.288 1.726c-2.257 1.703-2.265 1.785-.57 6.021 1.678 4.193 1.666 4.374-.523 7.568-3.364 4.909-10.1 9.004-24.107 14.655-15.808 6.378-20.972 9.867-26.095 17.628-5.059 7.666-7.97 10.35-16.837 15.522-8.74 5.098-11.43 7.4-16.155 13.823-7.795 10.593-14.011 15.657-19.22 15.657-1.252 0-1.019-.76 1.074-3.504z" stroke="#fff" stroke-width="1.5"/></g></svg>