<svg xmlns="http://www.w3.org/2000/svg" width="180" height="180"><g fill="#bf7849"><path d="M27.332 140.126c5.36-10.215 12.998-18.789 19.51-28.232A427.564 427.564 0 0 0 60.206 91.26l.294 2.273c-9.734-8.912-19.506-17.78-29.176-26.762-2.773-2.576-15.658-10.682-10.573-16.09 2.343-2.49 7.725-.507 10.31.162 4.54 1.176 9.126 2.185 13.691 3.263 10.86 2.565 22.114 4.827 32.51 8.965l-2.117.863c4.406-9.055 8.769-18.133 13.141-27.204 2.864-5.941 5.643-16.13 11.731-19.372 7.273-3.874 7.583 8.305 7.734 11.68.634 14.235.3 28.488 1.001 42.718l-1.376-1.807a1364.05 1364.05 0 0 0 22.215 5.024c5.508 1.19 11.059 2.132 16.591 3.197 3.483.671 12.218 1.251 13.812 5.348 3.2 8.227-12.32 9.636-16.683 10.878-5.711 1.625-11.489 2.96-17.075 4.994-5.786 2.105-11.266 5.036-16.964 7.37l1.377-1.807c1.275 11.236 3.143 22.403 4.7 33.602.685 4.938 1.336 9.884 1.787 14.851.214 2.353.828 5.647-.239 7.895-1.246 2.63-5.358 2.37-7.532 1.432-1.675-.724-2.95-3.57-3.955-4.968-2.175-3.026-4.225-6.14-6.264-9.257-7.041-10.773-13.099-22.347-20.806-32.665l2.565.673c-13.105 9.044-26.015 18.388-39.993 26.07-3.553 1.952-7.29 4.922-11.496 4.103-3.067-.596-3.142-3.799-2.272-6.116.84-2.243 4.467-1.272 3.616.997-1.491 3.971 7.025-1.566 8.26-2.224 4.694-2.498 9.226-5.298 13.714-8.147 8.95-5.683 17.556-11.901 26.28-17.921.908-.628 1.99-.095 2.565.673 5.786 7.745 10.52 16.33 15.628 24.525 3.035 4.865 6.142 9.683 9.367 14.424 1.357 1.994 7.176 10.899 7.046 4.188-.34-17.417-4.76-34.85-6.721-52.135-.1-.887.662-1.517 1.376-1.808 8.867-3.631 17.175-7.876 26.497-10.315 4.494-1.175 8.96-2.445 13.42-3.74 1.587-.46 6.278-.961 7.393-2.057 2.575-2.533-4.908-4.028-6.219-4.35-14.187-3.495-28.737-5.785-42.987-9.12-.838-.194-1.337-.993-1.377-1.807-.537-10.92-.45-21.856-.66-32.786-.086-4.389-.295-8.771-.48-13.157a280.05 280.05 0 0 1-.11-3.078c-.522-1.892-2.05-1.855-4.587.114-.984 1.284-1.483 2.996-2.169 4.447-6.105 12.89-12.372 25.707-18.612 38.53-.337.69-1.39 1.152-2.12.862-15.193-6.05-31.743-8.335-47.48-12.567-.848-.227-5.65-1.565-5.358-.343.286 1.188 1.641 1.976 2.449 2.745 4.576 4.352 9.212 8.638 13.852 12.922 7.777 7.18 15.618 14.289 23.424 21.435.611.559.716 1.578.294 2.273-4.256 6.998-8.75 13.866-13.364 20.632-6.465 9.485-14.146 18.009-19.51 28.233-1.125 2.142-4.36.246-3.239-1.893"/><path d="M30.933 60.137c5.42 5.076 21.2 19.587 31.082 28.581 1.847 1.682 2.4 2.41 2.4 3.164 0 1.754-11.201 18.95-20.36 31.259-7.305 9.817-12.497 17.652-12.497 18.86 0 .619 1.391.508 3.043-.243 2.444-1.11 12.207-6.784 18.238-10.6 5.27-3.334 10.696-7.001 22.622-15.29 2.465-1.712 4.808-3.084 5.268-3.084.456 0 1.11.282 1.456.627 1.147 1.147 7.047 10.162 11.861 18.123 2.614 4.321 7.355 11.794 10.537 16.607 5.439 8.227 7.92 11.29 8.883 10.971.66-.218.692-6.601.064-12.757-.668-6.558-1.132-9.81-3.258-22.857-1.943-11.929-2.855-18.933-2.563-19.693.224-.584 15.424-7.244 21.009-9.205 3.855-1.353 17.545-5.211 22.458-6.329 4.079-.928 5.382-1.565 5.382-2.631 0-1.664-4.29-2.825-29.074-7.868-21.316-4.337-21.002-4.258-21.56-5.423-.34-.71-.543-5.951-.793-20.527-.369-21.53-.649-28.895-1.135-29.842-.42-.818-1.547-.793-2.937.066-.9.557-1.706 1.933-4.127 7.054-7.686 16.253-17.616 36.43-18.239 37.058-.683.689-.746.676-6.68-1.32-7.128-2.397-12.416-3.801-25.098-6.665-5.206-1.176-12.104-2.79-15.331-3.585-6.349-1.566-7.17-1.68-7.17-1 0 .245 2.934 3.192 6.519 6.55z" stroke="#fff" stroke-width="1.5"/></g></svg>