<svg xmlns="http://www.w3.org/2000/svg" width="210.382" height="161.388" viewBox="0 0 197.233 151.301"><path d="M99.963 137.98c.418 4.584.662 9.311 5.245 10.561 9.167 2.918 10.743-1.776 15.327-7.192" fill="#d6e5ea"/><path d="M98.088 137.98c.663 7.355 2.327 11.991 10.27 13.193 6.62 1 9.794-4.012 13.503-8.5 1.527-1.848-1.11-4.515-2.653-2.65-2.272 2.75-4.49 7.01-8.382 7.512-2.485.32-6.2-.566-7.618-2.72-1.232-1.867-1.178-4.7-1.37-6.835-.215-2.389-3.967-2.409-3.75 0" fill="#45a98d"/><path d="M71.875 8.125c-11.25 0-30.834 6.25-35.416 18.75-1.667-15.833-17.917-25.416-32.917-25-7.5 20.834 7.917 33.333 26.25 40v.833c0 26.666 9.168 45.832 27.5 66.666 24.167 21.668 48.123 25.275 76.875 25.834 27.61.537 66.458-15 60.625-50.833-18.332-25-55-27.5-80.833-20-12.5 3.333-25.833 7.5-39.167 5.833-13.333-1.666-40-2.189-34.307-28.334C57.15 43.54 77.292 26.875 72.709 8.125" fill="#fff"/><path d="M71.875 6.25c-13.934.27-31.48 6.322-37.224 20.127h3.615C35.912 9.524 19.566-.065 3.542 0 2.675.004 2 .577 1.735 1.377c-7.149 21.543 8.924 35.32 27.56 42.305l-1.378-1.808c0 29.186 13.072 58.133 36.667 75.829 22.428 16.821 54.298 22.17 81.742 18.641 21.043-2.706 44.395-13.929 49.95-36.144 1.338-5.35 1.106-10.916.324-16.323-.275-1.91-3.635-4.717-4.846-6.018-2.365-2.545-5.105-4.71-7.902-6.756-10.52-7.698-23.752-11.031-36.553-12.081-9.84-.807-19.834.21-29.438 2.388-14.409 3.27-28.015 8.425-43.069 6.923-7.133-.713-14.367-1.449-21.17-3.828-10.103-3.532-13.29-12.057-11.33-22.132l-1.807 1.376c19.284 1.303 38.107-16.416 34.031-36.122-.489-2.367-4.104-1.363-3.615.997C74.507 26.064 57.161 41.125 40.485 40c-.779-.052-1.658.605-1.809 1.376-1.88 9.66-.182 18.532 8.436 24.144 7.447 4.849 17.253 5.398 25.828 6.346 17.192 1.902 32.411-4.036 48.949-7.498 14.086-2.952 29.043-2.452 42.84 1.62 7.055 2.08 13.683 5.527 19.477 10.043 2.636 2.055 4.961 4.47 7.15 6.985 3.191 3.668 2.319 10.397 1.594 14.787-2.108 12.74-12.041 21.858-22.984 27.567-10.875 5.674-23.61 8.089-35.799 7.964-15.767-.163-31.6-1.75-46.48-7.214-34.712-12.749-56.02-48.086-56.02-84.245 0-.891-.585-1.511-1.377-1.807C13.582 33.803-1.12 21.874 5.35 2.374L3.542 3.75c14.523-.058 28.977 8.358 31.11 23.624.29 2.083 3.008 1.459 3.614 0C43.286 15.31 59.88 10.233 71.875 10c2.415-.047 2.42-3.797 0-3.75" fill="#45a98d"/><path d="M194.161 85.13c6.875 36.25-35 50.625-63.125 50.625-15 0-29.375-3.75-43.125-8.125-15-5-25.937-15.287-35.625-24.193 15.625 12.5 43.75 20.286 62.5 20.286 17.5 0 34.402-.052 50.652-7.552 10.625-4.375 25.598-18.541 28.723-31.041" fill="#d6e5ea"/><path d="M192.353 85.628c4.848 28.305-21.878 42.574-45.74 46.893-15.85 2.869-31.782.67-47.218-3.431-8.995-2.392-17.495-5.367-25.424-10.31-7.454-4.647-13.921-10.75-20.359-16.67l-2.651 2.652c21.947 17.016 50.407 21.399 77.397 20.695 26.697-.696 59.332-10.864 67.612-39.829.666-2.33-2.954-3.317-3.617-.997-3.39 11.864-13.533 21.757-23.878 27.944-12.533 7.493-28.12 8.818-42.36 9.19-25.027.653-52.188-3.904-72.503-19.654-1.852-1.435-4.479.971-2.651 2.651 6.219 5.721 12.484 11.334 19.441 16.153 8.544 5.916 18.076 9.035 27.996 11.79 17.1 4.75 34.535 6.327 52 2.906 25.508-4.996 50.534-21.994 45.572-50.98-.41-2.38-4.022-1.368-3.617.997" fill="#45a98d"/><path d="M133.536 69.192c-5.625.625-6.25 6.25 0 5.625s5.522-7.187 0-5.625" fill="#d6e5ea"/><path d="M133.536 67.317c-2.917.375-6.146 1.898-6.33 5.23-.207 3.723 4.412 4.46 7.132 4.043 2.7-.415 5.853-2.499 5.463-5.628-.423-3.404-3.833-4.347-6.762-3.577-2.339.613-1.346 4.231.995 3.615.806-.212 1.234-.24 1.86-.028-.354-.12.095.088.149.121-.334-.217.018.06.076.127-.341-.387.092.312-.111-.188.037.093.12.556.062.078.009.1.011.2.008.301-.002.489.092-.371-.032.115-.122.484.174-.299-.066.162-.016.03-.34.46-.124.202-.473.563-1.11.792-1.946.986a5.198 5.198 0 0 1-2.54-.054c-.249-.071-.342-.167-.431-.254.267.26.002-.013-.056-.12.232.435.025-.285.075.245-.012-.12.076-.535-.012-.093.017-.084.214-.505.04-.15.17-.349.123-.254.508-.604.35-.318 1.352-.69 2.042-.779 1.014-.13 1.875-.755 1.875-1.875 0-.924-.858-2.005-1.875-1.875" fill="#45a98d"/><path d="M129.5 40.946c-2.293-2.462-10.834-19.692-5.21-21.229 4.167-1.233 4.584 15.69 5.21 19.69" fill="#d6e5ea"/><path d="M130.825 39.62c-1.737-2.031-2.855-4.809-3.935-7.219-1.159-2.582-3.659-7.713-2.41-10.593.313-.723 1.049 2.027 1.199 2.565.575 2.073.834 4.252 1.084 6.383.357 3.044.501 6.113.928 9.15.337 2.387 3.948 1.367 3.617-.997-.425-3.019-.875-25.525-8.424-20.636-3.778 2.447-2.175 7.877-1.059 11.363 1.379 4.304 3.379 9.165 6.349 12.635 1.575 1.84 4.214-.825 2.651-2.65" fill="#45a98d"/><path d="M134.707 36.023c.834-2.462.834-12.614 4.167-9.23 3.542 3.691-1.667 8-3.333 9.538" fill="#d6e5ea"/><path d="M136.515 36.521c.845-2.73.412-5.897 1.639-8.515.085-.182.175-.287-.027-.135-.415.314-1.15-.29-.578.247.815.77.76 1.778.322 2.718-.784 1.68-2.317 2.943-3.656 4.17-1.788 1.635.871 4.28 2.651 2.65 2.115-1.933 4.394-4.08 4.98-7.01.548-2.74-1.25-6.103-4.184-6.412-4.402-.465-3.987 8.784-4.763 11.29-.717 2.317 2.905 3.3 3.616.997m26.633 63.059c.149.138.291.28.426.433.262.294-.252-.358-.047-.058.05.073.091.15.131.228-.257-.489-.126-.328-.075-.163.05.162.034.43-.022-.236.013.161-.06.438.051-.26-.024.15-.159.413.12-.232-.18.416.316-.317.059-.062-.2.197.426-.308.192-.146-.051.035-.106.064-.16.094-.26.139.491-.193.211-.089-.06.024-.126.041-.188.059a2.194 2.194 0 0 1-.2.044c-.305.057.537-.06.227-.034a2.69 2.69 0 0 1-.414-.004c-.31-.022.534.086.23.029a2.222 2.222 0 0 1-.195-.049c-.385-.11.468.26.04.009-.33-.191.37.377.057.017.381.44.243.333.16.178.265.49.152.397.102.214-.08-.292.049.543.034.23-.008-.153.056-.45-.043.196.027-.173.268-.726.014-.165.098-.215.228-.416.359-.613l-1.12.863a4.19 4.19 0 0 1 .529-.148c.452-.103-.422.022.068-.005.22.01.197 0-.07-.025-.232-.12-.265-.123-.096-.01.823.608 2.091.137 2.564-.675.56-.953.149-1.957-.673-2.565-.91-.675-2.29-.545-3.305-.193-1.01.35-1.738 1.572-1.898 2.617-.269 1.758.687 3.349 2.477 3.74 1.293.283 2.975.035 3.866-1.045 1.328-1.609.65-3.526-.76-4.825-.75-.692-1.906-.745-2.65 0-.702.7-.753 1.959 0 2.651" fill="#45a98d"/></svg>